Chilanka-Regular.ufo
<glyph name="exclam" format="2">
	<unicode hex="0021"/>
	<advance width="409"/>
	<outline>
		<contour>
			<point x="203.5246429443" y="252.7422332764" type="curve" smooth="yes"/>
			<point x="126.6592788696" y="252.7422332764"/>
			<point x="105" y="316.461151123"/>
			<point x="105" y="411" type="curve" smooth="yes"/>
			<point x="105" y="442" type="line"/>
			<point x="99.0654830933" y="498.203338623"/>
			<point x="96.0556869507" y="564.0338745117"/>
			<point x="96.0556869507" y="639.5341186523" type="curve" smooth="yes"/>
			<point x="96.0556869507" y="780.3117675781"/>
			<point x="106.5199356079" y="954.7084960938"/>
			<point x="128" y="1163" type="curve" smooth="yes"/>
			<point x="131.6311798096" y="1199.3118896484"/>
			<point x="162.1608276367" y="1228.7672119141"/>
			<point x="195.8409118652" y="1228.7672119141" type="curve" smooth="yes"/>
			<point x="229.1396789551" y="1228.7672119141"/>
			<point x="254.0384216309" y="1200.7694091797"/>
			<point x="259" y="1171" type="curve" smooth="yes"/>
			<point x="284.5208435059" y="1004.0208129883"/>
			<point x="297.28125" y="828.5347290039"/>
			<point x="297.28125" y="643.7662963867" type="curve" smooth="yes"/>
			<point x="297.28125" y="575.1380004883"/>
			<point x="295.5208435059" y="505.2291564941"/>
			<point x="292" y="434" type="curve"/>
			<point x="291.0234985352" y="427.8969116211"/>
			<point x="290.7025756836" y="421.4958496094"/>
			<point x="290.7025756836" y="414.898651123" type="curve" smooth="yes"/>
			<point x="290.7025756836" y="402.2439575195"/>
			<point x="291.8834533691" y="388.8675842285"/>
			<point x="291.8834533691" y="375.48828125" type="curve" smooth="yes"/>
			<point x="291.8834533691" y="307.7238769531"/>
			<point x="267.8918457031" y="252.7422332764"/>
		</contour>
		<contour>
			<point x="101.3358459473" y="-98.7757797241" type="curve" smooth="yes"/>
			<point x="101.3358459473" y="-35.4675598145"/>
			<point x="136.1105499268" y="89.7785110474"/>
			<point x="199.5431518555" y="89.7785110474" type="curve" smooth="yes"/>
			<point x="228.002822876" y="89.7785110474"/>
			<point x="248.80418396" y="76.6596908569"/>
			<point x="260" y="58" type="curve" smooth="yes"/>
			<point x="296.7628479004" y="-3.2714147568"/>
			<point x="314.9865112305" y="-58.0541114807"/>
			<point x="314.9865112305" y="-106.6636276245" type="curve" smooth="yes"/>
			<point x="314.9865112305" y="-172.9160919189"/>
			<point x="280.8287658691" y="-232.2640380859"/>
			<point x="213.1152038574" y="-232.2640380859" type="curve" smooth="yes"/>
			<point x="201.7978820801" y="-232.2640380859"/>
			<point x="189.9873962402" y="-230.0473175049"/>
			<point x="178" y="-225" type="curve" smooth="yes"/>
			<point x="127.52293396" y="-204.2914581299"/>
			<point x="101.3358459473" y="-158.8741607666"/>
		</contour>
	</outline>
</glyph>
<glyph name="quotedbl" format="2">
	<unicode hex="0022"/>
	<advance width="526"/>
	<outline>
		<contour>
			<point x="322.3419799805" y="1202.1335449219" type="curve" smooth="yes"/>
			<point x="322.3419799805" y="1282.5866699219"/>
			<point x="347.9710693359" y="1382.6304931641"/>
			<point x="415.3225708008" y="1382.6304931641" type="curve" smooth="yes"/>
			<point x="429.3058776855" y="1382.6304931641"/>
			<point x="444.5316772461" y="1378.0743408203"/>
			<point x="461" y="1369" type="curve" smooth="yes"/>
			<point x="501.038482666" y="1347.0611572266"/>
			<point x="521.2227172852" y="1298.9506835938"/>
			<point x="521.2227172852" y="1224.5037841797" type="curve" smooth="yes"/>
			<point x="521.2227172852" y="1163.2156982422"/>
			<point x="507.543182373" y="1084.0784912109"/>
			<point x="480" y="987" type="curve" smooth="yes"/>
			<point x="472.656036377" y="960.8881225586"/>
			<point x="449.3316955566" y="940.7689208984"/>
			<point x="417.0902709961" y="940.7689208984" type="curve" smooth="yes"/>
			<point x="378.1913146973" y="940.7689208984"/>
			<point x="360.9759216309" y="960.0963745117"/>
			<point x="351" y="1000" type="curve" smooth="yes"/>
			<point x="331.8484191895" y="1078.6767578125"/>
			<point x="322.3419799805" y="1146.1008300781"/>
		</contour>
		<contour>
			<point x="76.3419876099" y="1208.1335449219" type="curve" smooth="yes"/>
			<point x="76.3419876099" y="1288.5866699219"/>
			<point x="101.9710617065" y="1388.6304931641"/>
			<point x="169.3225708008" y="1388.6304931641" type="curve" smooth="yes"/>
			<point x="183.3058776855" y="1388.6304931641"/>
			<point x="198.5316925049" y="1384.0743408203"/>
			<point x="215" y="1375" type="curve" smooth="yes"/>
			<point x="255.038482666" y="1353.0611572266"/>
			<point x="275.2227172852" y="1304.9506835938"/>
			<point x="275.2227172852" y="1230.5037841797" type="curve" smooth="yes"/>
			<point x="275.2227172852" y="1169.2156982422"/>
			<point x="261.543182373" y="1090.0784912109"/>
			<point x="234" y="993" type="curve" smooth="yes"/>
			<point x="226.656036377" y="966.8881225586"/>
			<point x="203.3316955566" y="946.7689208984"/>
			<point x="171.0902709961" y="946.7689208984" type="curve" smooth="yes"/>
			<point x="132.1912994385" y="946.7689208984"/>
			<point x="114.9759140015" y="966.0963745117"/>
			<point x="105" y="1006" type="curve" smooth="yes"/>
			<point x="85.8484268188" y="1084.6767578125"/>
			<point x="76.3419876099" y="1152.1008300781"/>
		</contour>
	</outline>
</glyph>
<glyph name="numbersign" format="2">
	<unicode hex="0023"/>
	<advance width="1590"/>
	<outline>
		<contour>
			<point x="165" y="312" type="line" smooth="yes"/>
			<point x="130" y="312"/>
			<point x="100" y="342"/>
			<point x="100" y="377" type="curve" smooth="yes"/>
			<point x="100" y="412"/>
			<point x="130" y="442"/>
			<point x="165" y="442" type="curve" smooth="yes"/>
			<point x="422" y="442" type="line"/>
			<point x="566" y="843" type="line"/>
			<point x="312" y="843" type="line" smooth="yes"/>
			<point x="277" y="843"/>
			<point x="247" y="873"/>
			<point x="247" y="908" type="curve" smooth="yes"/>
			<point x="247" y="943"/>
			<point x="277" y="973"/>
			<point x="312" y="973" type="curve" smooth="yes"/>
			<point x="613" y="973" type="line"/>
			<point x="720" y="1272" type="line" smooth="yes"/>
			<point x="731.9146728516" y="1304.5667724609"/>
			<point x="747.6149291992" y="1320.0983886719"/>
			<point x="768.1030273438" y="1320.0983886719" type="curve" smooth="yes"/>
			<point x="773.4085083008" y="1320.0983886719"/>
			<point x="779.0350341797" y="1319.0568847656"/>
			<point x="785" y="1317" type="curve" smooth="yes"/>
			<point x="826.3088378906" y="1302.1911621094"/>
			<point x="846.9632568359" y="1281.3074951172"/>
			<point x="846.9632568359" y="1253.4020996094" type="curve" smooth="yes"/>
			<point x="846.9632568359" y="1245.5042724609"/>
			<point x="845.3088378906" y="1237.0440673828"/>
			<point x="842" y="1228" type="curve" smooth="yes"/>
			<point x="751" y="973" type="line"/>
			<point x="1149" y="973" type="line"/>
			<point x="1259" y="1271" type="line" smooth="yes"/>
			<point x="1270.8269042969" y="1303.3269042969"/>
			<point x="1287.0054931641" y="1319.4903564453"/>
			<point x="1307.5358886719" y="1319.4903564453" type="curve" smooth="yes"/>
			<point x="1313.0440673828" y="1319.4903564453"/>
			<point x="1318.8653564453" y="1318.3269042969"/>
			<point x="1325" y="1316" type="curve" smooth="yes"/>
			<point x="1366.0363769531" y="1301.2888183594"/>
			<point x="1386.0904541016" y="1279.9832763672"/>
			<point x="1386.0904541016" y="1252.0831298828" type="curve" smooth="yes"/>
			<point x="1386.0904541016" y="1243.94921875"/>
			<point x="1384.3859863281" y="1235.2548828125"/>
			<point x="1381" y="1226" type="curve" smooth="yes"/>
			<point x="1288" y="973" type="line"/>
			<point x="1425" y="973" type="line" smooth="yes"/>
			<point x="1460" y="973"/>
			<point x="1490" y="943"/>
			<point x="1490" y="908" type="curve" smooth="yes"/>
			<point x="1490" y="873"/>
			<point x="1460" y="843"/>
			<point x="1425" y="843" type="curve" smooth="yes"/>
			<point x="1240" y="843" type="line"/>
			<point x="1092" y="442" type="line"/>
			<point x="1398" y="442" type="line" smooth="yes"/>
			<point x="1433" y="442"/>
			<point x="1463" y="412"/>
			<point x="1463" y="377" type="curve" smooth="yes"/>
			<point x="1463" y="342"/>
			<point x="1433" y="312"/>
			<point x="1398" y="312" type="curve" smooth="yes"/>
			<point x="1044" y="312" type="line"/>
			<point x="929" y="-1" type="line" smooth="yes"/>
			<point x="917.1730957031" y="-33.3269233704"/>
			<point x="900.9944458008" y="-49.4903831482"/>
			<point x="880.4641113281" y="-49.4903831482" type="curve" smooth="yes"/>
			<point x="874.9559936523" y="-49.4903831482"/>
			<point x="869.1346435547" y="-48.3269233704"/>
			<point x="863" y="-46" type="curve" smooth="yes"/>
			<point x="821.9636230469" y="-31.2888450623"/>
			<point x="801.9096069336" y="-9.9832334518"/>
			<point x="801.9096069336" y="17.9168357849" type="curve" smooth="yes"/>
			<point x="801.9096069336" y="26.0507354736"/>
			<point x="803.614074707" y="34.7451248169"/>
			<point x="807" y="44" type="curve" smooth="yes"/>
			<point x="905" y="312" type="line"/>
			<point x="513" y="312" type="line"/>
			<point x="407" y="16" type="line" smooth="yes"/>
			<point x="394.9880981445" y="-16.8325405121"/>
			<point x="378.4873046875" y="-32.9920463562"/>
			<point x="357.4976196289" y="-32.9920463562" type="curve" smooth="yes"/>
			<point x="352.276184082" y="-32.9920463562"/>
			<point x="346.7769775391" y="-31.9920635223"/>
			<point x="341" y="-30" type="curve" smooth="yes"/>
			<point x="299.6911621094" y="-15.1911764145"/>
			<point x="279.0367736816" y="6.2999567986"/>
			<point x="279.0367736816" y="34.473400116" type="curve" smooth="yes"/>
			<point x="279.0367736816" y="42.447013855"/>
			<point x="280.6911621094" y="50.9558830261"/>
			<point x="284" y="60" type="curve" smooth="yes"/>
			<point x="375" y="312" type="line"/>
		</contour>
		<contour>
			<point x="953" y="442" type="line"/>
			<point x="1101" y="843" type="line"/>
			<point x="704" y="843" type="line"/>
			<point x="560" y="442" type="line"/>
		</contour>
	</outline>
</glyph>
<glyph name="dollar" format="2">
	<unicode hex="0024"/>
	<advance width="1316"/>
	<outline>
		<contour>
			<point x="1049.8194580078" y="1038.4790039062" type="curve" smooth="yes"/>
			<point x="1049.8194580078" y="1005.9880981445"/>
			<point x="1013.1358032227" y="966.180480957"/>
			<point x="984.4790039062" y="966.180480957" type="curve" smooth="yes"/>
			<point x="971.1917724609" y="966.180480957"/>
			<point x="957.0586547852" y="971.8135375977"/>
			<point x="942" y="983" type="curve" smooth="yes"/>
			<point x="854" y="1049"/>
			<point x="759" y="1101"/>
			<point x="656" y="1135" type="curve"/>
			<point x="655" y="1021"/>
			<point x="655" y="907"/>
			<point x="654" y="793" type="curve"/>
			<point x="657" y="793"/>
			<point x="676" y="791"/>
			<point x="711" y="789" type="curve" smooth="yes"/>
			<point x="981" y="774"/>
			<point x="1144" y="674"/>
			<point x="1199" y="489" type="curve" smooth="yes"/>
			<point x="1210.74609375" y="448.7786254883"/>
			<point x="1216.6641845703" y="408.8106384277"/>
			<point x="1216.6641845703" y="369.0509338379" type="curve" smooth="yes"/>
			<point x="1216.6641845703" y="297.1076965332"/>
			<point x="1197.2875976562" y="225.8464355469"/>
			<point x="1158" y="155" type="curve" smooth="yes"/>
			<point x="1083" y="19"/>
			<point x="968" y="-71"/>
			<point x="812" y="-115" type="curve" smooth="yes"/>
			<point x="758" y="-130"/>
			<point x="704" y="-137"/>
			<point x="650" y="-137" type="curve"/>
			<point x="649" y="-281" type="line"/>
			<point x="649" y="-319.5165100098"/>
			<point x="616.5807495117" y="-344.7913818359"/>
			<point x="583.2137451172" y="-344.7913818359" type="curve" smooth="yes"/>
			<point x="567.2014160156" y="-344.7913818359"/>
			<point x="550.9708862305" y="-338.9708557129"/>
			<point x="538" y="-326" type="curve" smooth="yes"/>
			<point x="525.9285888672" y="-313.9285583496"/>
			<point x="519.8928833008" y="-255.2959136963"/>
			<point x="519.8928833008" y="-147.7000732422" type="curve" smooth="yes"/>
			<point x="519.8928833008" y="-139.4234619141"/>
			<point x="519.9285888672" y="-130.8571472168"/>
			<point x="520" y="-122" type="curve"/>
			<point x="340" y="-79"/>
			<point x="187" y="56"/>
			<point x="119" y="218" type="curve" smooth="yes"/>
			<point x="113.8669586182" y="230.0777282715"/>
			<point x="111.2866821289" y="241.0614318848"/>
			<point x="111.2866821289" y="250.9786224365" type="curve" smooth="yes"/>
			<point x="111.2866821289" y="281.1506652832"/>
			<point x="146.7557373047" y="310.7133178711"/>
			<point x="186.1970825195" y="310.7133178711" type="curve" smooth="yes"/>
			<point x="209.4186859131" y="310.7133178711"/>
			<point x="227.1330413818" y="296.9222717285"/>
			<point x="239" y="269" type="curve" smooth="yes"/>
			<point x="293" y="141"/>
			<point x="386" y="55"/>
			<point x="520" y="13" type="curve"/>
			<point x="521" y="233"/>
			<point x="523" y="452"/>
			<point x="524" y="672" type="curve"/>
			<point x="394" y="686"/>
			<point x="299" y="719"/>
			<point x="238" y="771" type="curve" smooth="yes"/>
			<point x="146.0882415771" y="849.6764526367"/>
			<point x="100.1323547363" y="932.1375732422"/>
			<point x="100.1323547363" y="1018.7807617188" type="curve" smooth="yes"/>
			<point x="100.1323547363" y="1049.9722900391"/>
			<point x="106.0882339478" y="1081.7059326172"/>
			<point x="118" y="1114" type="curve" smooth="yes"/>
			<point x="161.5051879883" y="1232.5729980469"/>
			<point x="275.5955810547" y="1306.7573242188"/>
			<point x="438.5451049805" y="1306.7573242188" type="curve" smooth="yes"/>
			<point x="466.6170349121" y="1306.7573242188"/>
			<point x="496.1390380859" y="1304.5556640625"/>
			<point x="527" y="1300" type="curve"/>
			<point x="527" y="1363"/>
			<point x="527" y="1424"/>
			<point x="592" y="1424" type="curve" smooth="yes"/>
			<point x="627" y="1424"/>
			<point x="657" y="1394"/>
			<point x="657" y="1359" type="curve" smooth="yes"/>
			<point x="657" y="1271" type="line"/>
			<point x="789" y="1232"/>
			<point x="909" y="1171"/>
			<point x="1020" y="1087" type="curve" smooth="yes"/>
			<point x="1039.9412841797" y="1072.1864013672"/>
			<point x="1049.8194580078" y="1056.0744628906"/>
		</contour>
		<contour>
			<point x="436.7353515625" y="1177.7338867188" type="curve" smooth="yes"/>
			<point x="336.110748291" y="1177.7338867188"/>
			<point x="226.807144165" y="1119.5815429688"/>
			<point x="226.807144165" y="1032.0065917969" type="curve" smooth="yes"/>
			<point x="226.807144165" y="1020.5640869141"/>
			<point x="228.8714294434" y="1008.9000244141"/>
			<point x="233" y="997" type="curve" smooth="yes"/>
			<point x="250" y="948"/>
			<point x="278" y="907"/>
			<point x="318" y="873" type="curve" smooth="yes"/>
			<point x="358" y="839"/>
			<point x="427" y="815"/>
			<point x="524" y="803" type="curve"/>
			<point x="526" y="1169" type="line"/>
			<point x="493.8225708008" y="1174.8226318359"/>
			<point x="464.0868835449" y="1177.7338867188"/>
		</contour>
		<contour>
			<point x="650" y="-7" type="curve"/>
			<point x="772" y="-7"/>
			<point x="878" y="33"/>
			<point x="965" y="115" type="curve" smooth="yes"/>
			<point x="1046.7971191406" y="192.2945556641"/>
			<point x="1087.484375" y="274.6574401855"/>
			<point x="1087.484375" y="362.5112915039" type="curve" smooth="yes"/>
			<point x="1087.484375" y="391.7283630371"/>
			<point x="1082.984375" y="421.5527648926"/>
			<point x="1074" y="452" type="curve" smooth="yes"/>
			<point x="1042" y="561"/>
			<point x="950" y="627"/>
			<point x="798" y="650" type="curve" smooth="yes"/>
			<point x="760" y="656"/>
			<point x="688" y="661"/>
			<point x="654" y="663" type="curve"/>
			<point x="653" y="440"/>
			<point x="651" y="216"/>
		</contour>
	</outline>
</glyph>
<glyph name="percent" format="2">
	<unicode hex="0025"/>
	<advance width="1237"/>
	<outline>
		<contour>
			<point x="220.6871185303" y="-54.377532959" type="curve" smooth="yes"/>
			<point x="189.3473052979" y="-54.377532959"/>
			<point x="149.305557251" y="-28.9656944275"/>
			<point x="149.305557251" y="1.620370388" type="curve" smooth="yes"/>
			<point x="149.305557251" y="14.114197731"/>
			<point x="154.203704834" y="28.2407398224"/>
			<point x="164" y="44" type="curve" smooth="yes"/>
			<point x="798" y="1067" type="line"/>
			<point x="652" y="997" type="line" smooth="yes"/>
			<point x="640" y="991"/>
			<point x="628" y="987"/>
			<point x="617" y="983" type="curve"/>
			<point x="612" y="916"/>
			<point x="590" y="866"/>
			<point x="551" y="833" type="curve" smooth="yes"/>
			<point x="487.2940979004" y="780.2150878906"/>
			<point x="421.379486084" y="753.9343261719"/>
			<point x="353.2562255859" y="753.9343261719" type="curve" smooth="yes"/>
			<point x="309.098815918" y="753.9343261719"/>
			<point x="264.0133972168" y="764.9765014648"/>
			<point x="218" y="787" type="curve" smooth="yes"/>
			<point x="139.5796813965" y="825.2047729492"/>
			<point x="99.9906234741" y="878.4390869141"/>
			<point x="99.9906234741" y="948.1754150391" type="curve" smooth="yes"/>
			<point x="99.9906234741" y="1063.4875488281"/>
			<point x="178.9875335693" y="1181.75"/>
			<point x="336" y="1301" type="curve" smooth="yes"/>
			<point x="349.7200622559" y="1311.3736572266"/>
			<point x="364.1120300293" y="1316.1483154297"/>
			<point x="377.7144165039" y="1316.1483154297" type="curve" smooth="yes"/>
			<point x="404.7604064941" y="1316.1483154297"/>
			<point x="428.6849060059" y="1297.2720947266"/>
			<point x="438" y="1266" type="curve"/>
			<point x="450.824798584" y="1275.2248535156"/>
			<point x="463.4471130371" y="1279.8430175781"/>
			<point x="475.8669433594" y="1279.8430175781" type="curve" smooth="yes"/>
			<point x="518.6471557617" y="1279.8430175781"/>
			<point x="559.0248413086" y="1225.0505371094"/>
			<point x="597" y="1115" type="curve"/>
			<point x="942" y="1280" type="line" smooth="yes"/>
			<point x="956.934387207" y="1287.2757568359"/>
			<point x="970.1091308594" y="1290.8854980469"/>
			<point x="981.4680175781" y="1290.8854980469" type="curve" smooth="yes"/>
			<point x="1014.2046508789" y="1290.8854980469"/>
			<point x="1033.3077392578" y="1250.7476806641"/>
			<point x="1033.3077392578" y="1218.3299560547" type="curve" smooth="yes"/>
			<point x="1033.3077392578" y="1206.7396240234"/>
			<point x="1030.5384521484" y="1196.2307128906"/>
			<point x="1025" y="1187" type="curve" smooth="yes"/>
			<point x="464" y="282" type="line"/>
			<point x="669" y="441" type="line" smooth="yes"/>
			<point x="683.3956298828" y="451.7967224121"/>
			<point x="697.1840820312" y="457.3316345215"/>
			<point x="710.5475463867" y="457.3316345215" type="curve" smooth="yes"/>
			<point x="726.8896484375" y="457.3316345215"/>
			<point x="742.5961303711" y="449.0542602539"/>
			<point x="758" y="432" type="curve"/>
			<point x="762.0414428711" y="433.6165771484"/>
			<point x="767.4620361328" y="434.4346313477"/>
			<point x="774.2032470703" y="434.4346313477" type="curve" smooth="yes"/>
			<point x="792.4825439453" y="434.4346313477"/>
			<point x="820.4713745117" y="428.4197387695"/>
			<point x="857" y="416" type="curve" smooth="yes"/>
			<point x="997" y="369"/>
			<point x="1083" y="303"/>
			<point x="1118" y="218" type="curve" smooth="yes"/>
			<point x="1130.9302978516" y="186.5979003906"/>
			<point x="1137.4458007812" y="157.106552124"/>
			<point x="1137.4458007812" y="129.5764160156" type="curve" smooth="yes"/>
			<point x="1137.4458007812" y="82.5872650146"/>
			<point x="1118.4643554688" y="41.3115539551"/>
			<point x="1080" y="6" type="curve" smooth="yes"/>
			<point x="1018.7493896484" y="-50.7135276794"/>
			<point x="923.7263183594" y="-90.3800048828"/>
			<point x="833.602722168" y="-90.3800048828" type="curve" smooth="yes"/>
			<point x="764.8161010742" y="-90.3800048828"/>
			<point x="698.8836669922" y="-67.2724151611"/>
			<point x="653" y="-11" type="curve" smooth="yes"/>
			<point x="612.9833374023" y="38"/>
			<point x="592.9749755859" y="99.0049972534"/>
			<point x="592.9749755859" y="170.3809814453" type="curve" smooth="yes"/>
			<point x="592.9749755859" y="186.4041595459"/>
			<point x="593.9833374023" y="202.9499969482"/>
			<point x="596" y="220" type="curve"/>
			<point x="259" y="-41" type="line" smooth="yes"/>
			<point x="247.1621856689" y="-49.8783569336"/>
			<point x="234.3512268066" y="-54.377532959"/>
		</contour>
		<contour>
			<point x="223.953125" y="970.596862793" type="curve" smooth="yes"/>
			<point x="223.953125" y="921.3558349609"/>
			<point x="293.7540283203" y="885.6268920898"/>
			<point x="348.4429626465" y="885.6268920898" type="curve" smooth="yes"/>
			<point x="359.7802429199" y="885.6268920898"/>
			<point x="370.9429931641" y="887.0731201172"/>
			<point x="382" y="890" type="curve" smooth="yes"/>
			<point x="449" y="908"/>
			<point x="484" y="942"/>
			<point x="487" y="995" type="curve"/>
			<point x="437" y="1029"/>
			<point x="411" y="1096"/>
			<point x="410" y="1194" type="curve"/>
			<point x="285.96875" y="1098.1875"/>
			<point x="223.953125" y="1023.908203125"/>
		</contour>
		<contour>
			<point x="719.1470336914" y="160.6572113037" type="curve" smooth="yes"/>
			<point x="719.1470336914" y="81.14453125"/>
			<point x="776.782043457" y="39.4009971619"/>
			<point x="844.3358154297" y="39.4009971619" type="curve" smooth="yes"/>
			<point x="901.7026977539" y="39.4009971619"/>
			<point x="946.0164794922" y="59.1532936096"/>
			<point x="977" y="88" type="curve" smooth="yes"/>
			<point x="998.3076171875" y="107.8381118774"/>
			<point x="1009.3580322266" y="126.0566635132"/>
			<point x="1009.3580322266" y="143.0523223877" type="curve" smooth="yes"/>
			<point x="1009.3580322266" y="149.1880493164"/>
			<point x="1007.9177856445" y="155.1643829346"/>
			<point x="1005" y="161" type="curve" smooth="yes"/>
			<point x="979" y="215"/>
			<point x="899" y="264"/>
			<point x="763" y="310" type="curve"/>
			<point x="759" y="311"/>
			<point x="755" y="314"/>
			<point x="751" y="316" type="curve"/>
			<point x="729.7647094727" y="252.2941131592"/>
			<point x="719.1470336914" y="200.4550170898"/>
		</contour>
	</outline>
</glyph>
<glyph name="ampersand" format="2">
	<unicode hex="0026"/>
	<advance width="1289"/>
	<outline>
		<contour>
			<point x="1115.0285644531" y="635.0267944336" type="curve" smooth="yes"/>
			<point x="1156.3344726562" y="635.0267944336"/>
			<point x="1190.0267333984" y="606.4769287109"/>
			<point x="1190.0267333984" y="575.1482543945" type="curve" smooth="yes"/>
			<point x="1190.0267333984" y="566.0315551758"/>
			<point x="1188.0178222656" y="555.9821166992"/>
			<point x="1184" y="545" type="curve" smooth="yes"/>
			<point x="1147" y="443"/>
			<point x="1084" y="351"/>
			<point x="994" y="267" type="curve"/>
			<point x="1059.4005126953" y="195.1515045166"/>
			<point x="1091.7100830078" y="146.2122192383"/>
			<point x="1091.7100830078" y="119.4005508423" type="curve" smooth="yes"/>
			<point x="1091.7100830078" y="90.7647171021"/>
			<point x="1068.9233398438" y="67.3374710083"/>
			<point x="1044" y="52" type="curve" smooth="yes"/>
			<point x="1036" y="47.0769233704"/>
			<point x="1028.1893310547" y="44.6153831482"/>
			<point x="1020.5680541992" y="44.6153831482" type="curve" smooth="yes"/>
			<point x="1003.4201049805" y="44.6153831482"/>
			<point x="987.2307739258" y="57.0769233704"/>
			<point x="972" y="82" type="curve" smooth="yes"/>
			<point x="950" y="118"/>
			<point x="924" y="151"/>
			<point x="893" y="184" type="curve"/>
			<point x="774" y="98"/>
			<point x="649" y="43"/>
			<point x="517" y="17" type="curve" smooth="yes"/>
			<point x="479.6956481934" y="9.652173996"/>
			<point x="444.7074584961" y="5.978260994"/>
			<point x="412.0354309082" y="5.978260994" type="curve" smooth="yes"/>
			<point x="268.1244812012" y="5.978260994"/>
			<point x="143.6335754395" y="84.4583053589"/>
			<point x="143.6335754395" y="231.6483764648" type="curve" smooth="yes"/>
			<point x="143.6335754395" y="347.243560791"/>
			<point x="206.7229614258" y="476.8852844238"/>
			<point x="268" y="543" type="curve" smooth="yes"/>
			<point x="306" y="584"/>
			<point x="326" y="606"/>
			<point x="327" y="607" type="curve"/>
			<point x="227" y="693"/>
			<point x="164" y="771"/>
			<point x="139" y="842" type="curve" smooth="yes"/>
			<point x="112.9583358765" y="915.4375"/>
			<point x="99.9375" y="981.2795410156"/>
			<point x="99.9375" y="1039.384765625" type="curve" smooth="yes"/>
			<point x="99.9375" y="1230.7042236328"/>
			<point x="235.8522644043" y="1328.7241210938"/>
			<point x="420.1428222656" y="1328.7241210938" type="curve" smooth="yes"/>
			<point x="619.5555419922" y="1328.7241210938"/>
			<point x="817.3342895508" y="1213.0224609375"/>
			<point x="817.3342895508" y="1021.8033447266" type="curve" smooth="yes"/>
			<point x="817.3342895508" y="922.8436889648"/>
			<point x="757.8895263672" y="823.7674560547"/>
			<point x="639" y="724" type="curve" smooth="yes"/>
			<point x="600" y="691"/>
			<point x="561" y="657"/>
			<point x="524" y="622" type="curve"/>
			<point x="552" y="603"/>
			<point x="608" y="565"/>
			<point x="691" y="511" type="curve" smooth="yes"/>
			<point x="774" y="457"/>
			<point x="843" y="405"/>
			<point x="900" y="357" type="curve"/>
			<point x="977" y="428"/>
			<point x="1031" y="506"/>
			<point x="1062" y="590" type="curve" smooth="yes"/>
			<point x="1072.9821777344" y="620.0178833008"/>
			<point x="1090.3967285156" y="635.0267944336"/>
		</contour>
		<contour>
			<point x="796" y="275" type="curve"/>
			<point x="743" y="318"/>
			<point x="677" y="365"/>
			<point x="600" y="415" type="curve" smooth="yes"/>
			<point x="523" y="465"/>
			<point x="466" y="503"/>
			<point x="431" y="528" type="curve"/>
			<point x="360" y="452"/>
			<point x="312" y="381"/>
			<point x="287" y="314" type="curve" smooth="yes"/>
			<point x="276.2289123535" y="284.9728088379"/>
			<point x="271.2236328125" y="259.9117431641"/>
			<point x="271.2236328125" y="238.5307617188" type="curve" smooth="yes"/>
			<point x="271.2236328125" y="167.1655578613"/>
			<point x="326.986541748" y="136.7999725342"/>
			<point x="410.2303161621" y="136.7999725342" type="curve" smooth="yes"/>
			<point x="438.6575622559" y="136.7999725342"/>
			<point x="470.2895507812" y="140.3411407471"/>
			<point x="504" y="147" type="curve" smooth="yes"/>
			<point x="602" y="166"/>
			<point x="699" y="209"/>
		</contour>
		<contour>
			<point x="424.4050292969" y="1199.2233886719" type="curve" smooth="yes"/>
			<point x="299.7478637695" y="1199.2233886719"/>
			<point x="229.944442749" y="1143.4927978516"/>
			<point x="229.944442749" y="1038.345703125" type="curve" smooth="yes"/>
			<point x="229.944442749" y="955.9612426758"/>
			<point x="251.6395111084" y="887.4714355469"/>
			<point x="291" y="836" type="curve" smooth="yes"/>
			<point x="330" y="785"/>
			<point x="373" y="740"/>
			<point x="419" y="701" type="curve"/>
			<point x="463" y="744"/>
			<point x="509" y="784"/>
			<point x="556" y="824" type="curve" smooth="yes"/>
			<point x="646.1973266602" y="899.1644287109"/>
			<point x="690.2587280273" y="962.5993652344"/>
			<point x="690.2587280273" y="1014.3048706055" type="curve" smooth="yes"/>
			<point x="690.2587280273" y="1021.0707397461"/>
			<point x="689.5042724609" y="1027.6357421875"/>
			<point x="688" y="1034" type="curve" smooth="yes"/>
			<point x="664.4321289062" y="1130.9907226562"/>
			<point x="548.0164794922" y="1199.2233886719"/>
		</contour>
	</outline>
</glyph>
<glyph name="quotesingle" format="2">
	<unicode hex="0027"/>
	<advance width="368"/>
	<outline>
		<contour>
			<point x="76.3419876099" y="1208.1335449219" type="curve" smooth="yes"/>
			<point x="76.3419876099" y="1288.5866699219"/>
			<point x="101.9710617065" y="1388.6304931641"/>
			<point x="169.3225708008" y="1388.6304931641" type="curve" smooth="yes"/>
			<point x="183.3058776855" y="1388.6304931641"/>
			<point x="198.5316925049" y="1384.0743408203"/>
			<point x="215" y="1375" type="curve" smooth="yes"/>
			<point x="255.038482666" y="1353.0611572266"/>
			<point x="275.2227172852" y="1304.9506835938"/>
			<point x="275.2227172852" y="1230.5037841797" type="curve" smooth="yes"/>
			<point x="275.2227172852" y="1169.2156982422"/>
			<point x="261.543182373" y="1090.0784912109"/>
			<point x="234" y="993" type="curve" smooth="yes"/>
			<point x="226.656036377" y="966.8881225586"/>
			<point x="203.997543335" y="946.7689208984"/>
			<point x="172.001159668" y="946.7689208984" type="curve" smooth="yes"/>
			<point x="133.3766784668" y="946.7689208984"/>
			<point x="114.9345321655" y="966.2619018555"/>
			<point x="105" y="1006" type="curve" smooth="yes"/>
			<point x="85.8484268188" y="1084.6767578125"/>
			<point x="76.3419876099" y="1152.1008300781"/>
		</contour>
	</outline>
</glyph>
<glyph name="parenleft" format="2">
	<unicode hex="0028"/>
	<advance width="721"/>
	<outline>
		<contour>
			<point x="621.9134521484" y="-296.2321166992" type="curve" smooth="yes"/>
			<point x="621.9134521484" y="-326.0426025391"/>
			<point x="582.5939331055" y="-363.9134216309"/>
			<point x="551.7678833008" y="-363.9134216309" type="curve" smooth="yes"/>
			<point x="535.7307739258" y="-363.9134216309"/>
			<point x="520.0944824219" y="-355.6559448242"/>
			<point x="505" y="-339" type="curve" smooth="yes"/>
			<point x="234.8146514893" y="-43.0827178955"/>
			<point x="99.8095016479" y="248.7666473389"/>
			<point x="99.8095016479" y="536.5480957031" type="curve" smooth="yes"/>
			<point x="99.8095016479" y="763.2225341797"/>
			<point x="183.5681762695" y="987.3731689453"/>
			<point x="351" y="1209" type="curve" smooth="yes"/>
			<point x="438" y="1325"/>
			<point x="494" y="1384"/>
			<point x="516" y="1385" type="curve" smooth="yes"/>
			<point x="556.0573120117" y="1388.6416015625"/>
			<point x="591.8838500977" y="1359.1212158203"/>
			<point x="591.8838500977" y="1324.5230712891" type="curve" smooth="yes"/>
			<point x="591.8838500977" y="1305.7727050781"/>
			<point x="581.8200683594" y="1285.0341796875"/>
			<point x="562" y="1262" type="curve" smooth="yes"/>
			<point x="408" y="1086"/>
			<point x="309" y="922"/>
			<point x="264" y="769" type="curve" smooth="yes"/>
			<point x="237.8435516357" y="680.0680541992"/>
			<point x="224.8635101318" y="597.8932495117"/>
			<point x="224.8635101318" y="522.082824707" type="curve" smooth="yes"/>
			<point x="224.8635101318" y="467.4677124023"/>
			<point x="231.6001434326" y="416.1557312012"/>
			<point x="245" y="368" type="curve" smooth="yes"/>
			<point x="306" y="148"/>
			<point x="425" y="-58"/>
			<point x="601" y="-251" type="curve" smooth="yes"/>
			<point x="614.9055175781" y="-266.3440551758"/>
			<point x="621.9134521484" y="-281.4581604004"/>
		</contour>
	</outline>
</glyph>
<glyph name="parenright" format="2">
	<unicode hex="0029"/>
	<advance width="721"/>
	<outline>
		<contour>
			<point x="100.0865707397" y="-296.2321166992" type="curve" smooth="yes"/>
			<point x="100.0865707397" y="-326.0426025391"/>
			<point x="139.406036377" y="-363.9134216309"/>
			<point x="170.2321166992" y="-363.9134216309" type="curve" smooth="yes"/>
			<point x="186.269241333" y="-363.9134216309"/>
			<point x="201.9055328369" y="-355.6559448242"/>
			<point x="217" y="-339" type="curve" smooth="yes"/>
			<point x="487.185333252" y="-43.0827178955"/>
			<point x="622.1904907227" y="248.7666473389"/>
			<point x="622.1904907227" y="536.5480957031" type="curve" smooth="yes"/>
			<point x="622.1904907227" y="763.2225341797"/>
			<point x="538.4318237305" y="987.3731689453"/>
			<point x="371" y="1209" type="curve" smooth="yes"/>
			<point x="284" y="1325"/>
			<point x="228" y="1384"/>
			<point x="206" y="1385" type="curve" smooth="yes"/>
			<point x="165.8725128174" y="1388.6479492188"/>
			<point x="129.5574493408" y="1360.1126708984"/>
			<point x="129.5574493408" y="1325.2648925781" type="curve" smooth="yes"/>
			<point x="129.5574493408" y="1306.3200683594"/>
			<point x="139.9181518555" y="1285.3383789062"/>
			<point x="160" y="1262" type="curve" smooth="yes"/>
			<point x="314" y="1086"/>
			<point x="413" y="922"/>
			<point x="458" y="769" type="curve" smooth="yes"/>
			<point x="484.156463623" y="680.0680541992"/>
			<point x="497.136505127" y="597.8932495117"/>
			<point x="497.136505127" y="522.082824707" type="curve" smooth="yes"/>
			<point x="497.136505127" y="467.4677124023"/>
			<point x="490.3998413086" y="416.1557312012"/>
			<point x="477" y="368" type="curve" smooth="yes"/>
			<point x="416" y="148"/>
			<point x="297" y="-58"/>
			<point x="121" y="-251" type="curve" smooth="yes"/>
			<point x="107.0944595337" y="-266.3440551758"/>
			<point x="100.0865707397" y="-281.4581604004"/>
		</contour>
	</outline>
</glyph>
<glyph name="asterisk" format="2">
	<unicode hex="002A"/>
	<advance width="1182"/>
	<outline>
		<contour>
			<point x="944.75" y="644.5" type="curve" smooth="yes"/>
			<point x="944.75" y="608.6544189453"/>
			<point x="916.9468383789" y="580"/>
			<point x="880" y="580" type="curve" smooth="yes"/>
			<point x="862" y="580"/>
			<point x="847" y="586"/>
			<point x="834" y="599" type="curve" smooth="yes"/>
			<point x="592" y="841" type="line"/>
			<point x="350" y="599" type="line" smooth="yes"/>
			<point x="337" y="586"/>
			<point x="322" y="580"/>
			<point x="304" y="580" type="curve" smooth="yes"/>
			<point x="268" y="580"/>
			<point x="239" y="608"/>
			<point x="239" y="644" type="curve" smooth="yes"/>
			<point x="239" y="662"/>
			<point x="245" y="678"/>
			<point x="258" y="691" type="curve" smooth="yes"/>
			<point x="486" y="919" type="line"/>
			<point x="137" y="1035" type="line" smooth="yes"/>
			<point x="109.48462677" y="1043.8049316406"/>
			<point x="93.4771118164" y="1070.7801513672"/>
			<point x="93.4771118164" y="1097.7603759766" type="curve" smooth="yes"/>
			<point x="93.4771118164" y="1132.8653564453"/>
			<point x="131.1336975098" y="1174.541015625"/>
			<point x="178" y="1158" type="curve" smooth="yes"/>
			<point x="524" y="1043" type="line"/>
			<point x="524" y="1353" type="line" smooth="yes"/>
			<point x="524" y="1394"/>
			<point x="553" y="1426"/>
			<point x="592" y="1426" type="curve" smooth="yes"/>
			<point x="628" y="1426"/>
			<point x="657" y="1397"/>
			<point x="657" y="1361" type="curve" smooth="yes"/>
			<point x="657" y="1051" type="line"/>
			<point x="1003" y="1166" type="line" smooth="yes"/>
			<point x="1009.867980957" y="1168.2028808594"/>
			<point x="1016.7359619141" y="1169.23046875"/>
			<point x="1023.427734375" y="1169.23046875" type="curve" smooth="yes"/>
			<point x="1058.5074462891" y="1169.23046875"/>
			<point x="1088.7435302734" y="1140.9938964844"/>
			<point x="1088.7435302734" y="1105.8376464844" type="curve" smooth="yes"/>
			<point x="1088.7435302734" y="1075.0552978516"/>
			<point x="1068.2352294922" y="1050.1280517578"/>
			<point x="1044" y="1043" type="curve" smooth="yes"/>
			<point x="691" y="925" type="line"/>
			<point x="926" y="691" type="line" smooth="yes"/>
			<point x="938.5" y="678.5"/>
			<point x="944.75" y="661.5"/>
		</contour>
	</outline>
</glyph>
<glyph name="plus" format="2">
	<unicode hex="002B"/>
	<advance width="1408"/>
	<outline>
		<contour>
			<point x="1243" y="701" type="line" smooth="yes"/>
			<point x="1278" y="701"/>
			<point x="1308" y="671"/>
			<point x="1308" y="636" type="curve" smooth="yes"/>
			<point x="1308" y="601"/>
			<point x="1278" y="571"/>
			<point x="1243" y="571" type="curve" smooth="yes"/>
			<point x="805" y="571" type="line"/>
			<point x="805" y="-8" type="line" smooth="yes"/>
			<point x="805" y="-43"/>
			<point x="775" y="-73"/>
			<point x="740" y="-73" type="curve" smooth="yes"/>
			<point x="705" y="-73"/>
			<point x="675" y="-43"/>
			<point x="675" y="-8" type="curve" smooth="yes"/>
			<point x="675" y="571" type="line"/>
			<point x="165" y="571" type="line" smooth="yes"/>
			<point x="130" y="571"/>
			<point x="100" y="601"/>
			<point x="100" y="636" type="curve" smooth="yes"/>
			<point x="100" y="671"/>
			<point x="130" y="701"/>
			<point x="165" y="701" type="curve" smooth="yes"/>
			<point x="675" y="701" type="line"/>
			<point x="675" y="1204" type="line" smooth="yes"/>
			<point x="675" y="1239"/>
			<point x="705" y="1269"/>
			<point x="740" y="1269" type="curve" smooth="yes"/>
			<point x="775" y="1269"/>
			<point x="805" y="1239"/>
			<point x="805" y="1204" type="curve" smooth="yes"/>
			<point x="805" y="701" type="line"/>
		</contour>
	</outline>
</glyph>
<glyph name="comma" format="2">
	<unicode hex="002C"/>
	<advance width="445"/>
	<outline>
		<contour>
			<point x="222.8049926758" y="158.859664917" type="curve" smooth="yes"/>
			<point x="313.9075317383" y="158.859664917"/>
			<point x="343.295135498" y="82.043510437"/>
			<point x="343.295135498" y="-3.0141649246" type="curve" smooth="yes"/>
			<point x="343.295135498" y="-115.8472747803"/>
			<point x="294.4234924316" y="-255.3199768066"/>
			<point x="267" y="-309" type="curve" smooth="yes"/>
			<point x="251" y="-340"/>
			<point x="240" y="-359"/>
			<point x="234" y="-364" type="curve"/>
			<point x="222.5661315918" y="-383.387878418"/>
			<point x="200.0112762451" y="-394.1260681152"/>
			<point x="177.2696075439" y="-394.1260681152" type="curve" smooth="yes"/>
			<point x="137.8127746582" y="-394.1260681152"/>
			<point x="98.3699951172" y="-357.1537475586"/>
			<point x="119" y="-303" type="curve" smooth="yes"/>
			<point x="131.3252716064" y="-266.7944946289"/>
			<point x="137.7164764404" y="-235.9296875"/>
			<point x="137.7164764404" y="-209.9484100342" type="curve" smooth="yes"/>
			<point x="137.7164764404" y="-202.2022094727"/>
			<point x="137.1483459473" y="-194.8901062012"/>
			<point x="136" y="-188" type="curve" smooth="yes"/>
			<point x="127" y="-133"/>
			<point x="119" y="-92"/>
			<point x="111" y="-67" type="curve" smooth="yes"/>
			<point x="103.3930587769" y="-42.3430137634"/>
			<point x="99.9144515991" y="-18.9933338165"/>
			<point x="99.9144515991" y="2.7422156334" type="curve" smooth="yes"/>
			<point x="99.9144515991" y="63.8692512512"/>
			<point x="127.4269638062" y="112.2300262451"/>
			<point x="168" y="141" type="curve" smooth="yes"/>
			<point x="184.5670776367" y="153.0487823486"/>
			<point x="202.8354187012" y="158.859664917"/>
		</contour>
	</outline>
</glyph>
<glyph name="hyphen" format="2">
	<unicode hex="002D"/>
	<advance width="783"/>
	<outline>
		<contour>
			<point x="172" y="425" type="line" smooth="yes"/>
			<point x="136" y="425"/>
			<point x="107" y="454"/>
			<point x="107" y="490" type="curve" smooth="yes"/>
			<point x="107" y="526"/>
			<point x="136" y="555"/>
			<point x="172" y="555" type="curve" smooth="yes"/>
			<point x="613" y="555" type="line" smooth="yes"/>
			<point x="649" y="555"/>
			<point x="678" y="526"/>
			<point x="678" y="490" type="curve" smooth="yes"/>
			<point x="678" y="454"/>
			<point x="649" y="425"/>
			<point x="613" y="425" type="curve" smooth="yes"/>
		</contour>
	</outline>
</glyph>
<glyph name="period" format="2">
	<unicode hex="002E"/>
	<advance width="422"/>
	<outline>
		<contour>
			<point x="321.0536499023" y="85.9456100464" type="curve" smooth="yes"/>
			<point x="321.0536499023" y="28.0194416046"/>
			<point x="275.5316467285" y="-21.1373176575"/>
			<point x="211.6103973389" y="-21.1373176575" type="curve" smooth="yes"/>
			<point x="138.8843536377" y="-21.1373176575"/>
			<point x="101.0135192871" y="33.3301506042"/>
			<point x="101.0135192871" y="102.056640625" type="curve" smooth="yes"/>
			<point x="101.0135192871" y="117.7849349976"/>
			<point x="102.996963501" y="134.2600402832"/>
			<point x="107" y="151" type="curve" smooth="yes"/>
			<point x="115.6470794678" y="186.5491027832"/>
			<point x="156.6030273438" y="266.4075317383"/>
			<point x="201.4866638184" y="266.4075317383" type="curve" smooth="yes"/>
			<point x="262.2261047363" y="266.4075317383"/>
			<point x="321.0536499023" y="156.0667419434"/>
		</contour>
	</outline>
</glyph>
<glyph name="zero" format="2">
	<unicode hex="0030"/>
	<advance width="1144"/>
	<outline>
		<contour>
			<point x="656" y="1225" type="curve"/>
			<point x="777" y="1203"/>
			<point x="876" y="1112"/>
			<point x="952" y="954" type="curve" smooth="yes"/>
			<point x="1016.1777954102" y="820.5777587891"/>
			<point x="1048.2667236328" y="690.7210083008"/>
			<point x="1048.2667236328" y="565.0317993164" type="curve" smooth="yes"/>
			<point x="1048.2667236328" y="400.5852050781"/>
			<point x="1002.4235839844" y="249.2909698486"/>
			<point x="947" y="183" type="curve" smooth="yes"/>
			<point x="855.5952758789" y="73.5152053833"/>
			<point x="743.1154174805" y="17.9927177429"/>
			<point x="606.1928710938" y="17.9927177429" type="curve" smooth="yes"/>
			<point x="414.6031494141" y="17.9927177429"/>
			<point x="271.5437011719" y="119.9999771118"/>
			<point x="178" y="325" type="curve" smooth="yes"/>
			<point x="125.6965713501" y="440.7534790039"/>
			<point x="99.8600463867" y="567.5348510742"/>
			<point x="99.8600463867" y="705.3440551758" type="curve" smooth="yes"/>
			<point x="99.8600463867" y="895.7275390625"/>
			<point x="141.279296875" y="1055.9036865234"/>
			<point x="214" y="1151" type="curve" smooth="yes"/>
			<point x="313.8218688965" y="1283.8065185547"/>
			<point x="432.4800720215" y="1349.5557861328"/>
			<point x="568.6665649414" y="1349.5557861328" type="curve" smooth="yes"/>
			<point x="630.4084472656" y="1349.5557861328"/>
			<point x="692.2249145508" y="1336.6801757812"/>
			<point x="692.2249145508" y="1276.4237060547" type="curve" smooth="yes"/>
			<point x="692.2249145508" y="1256.9774169922"/>
			<point x="680.2186279297" y="1239.7674560547"/>
		</contour>
		<contour>
			<point x="553.8799438477" y="1161.9366455078" type="curve" smooth="yes"/>
			<point x="553.8799438477" y="1188.4914550781"/>
			<point x="564.5897827148" y="1207.109375"/>
			<point x="585" y="1220" type="curve"/>
			<point x="577.629699707" y="1220.5083007812"/>
			<point x="570.3856201172" y="1220.7581787109"/>
			<point x="563.2666015625" y="1220.7581787109" type="curve" smooth="yes"/>
			<point x="329.1876831055" y="1220.7581787109"/>
			<point x="230.0341644287" y="955.8021850586"/>
			<point x="230.0341644287" y="701.8806762695" type="curve" smooth="yes"/>
			<point x="230.0341644287" y="584.5229492188"/>
			<point x="252.4382171631" y="478.5192260742"/>
			<point x="296" y="382" type="curve" smooth="yes"/>
			<point x="366.5562133789" y="225.9813232422"/>
			<point x="468.7136535645" y="146.9906311035"/>
			<point x="602.4722900391" y="146.9906311035" type="curve" smooth="yes"/>
			<point x="739.1776733398" y="146.9906311035"/>
			<point x="830.813659668" y="209.5224914551"/>
			<point x="879" y="333" type="curve" smooth="yes"/>
			<point x="904.4500732422" y="398.2157897949"/>
			<point x="917.2496337891" y="468.2106933594"/>
			<point x="917.2496337891" y="543.2827758789" type="curve" smooth="yes"/>
			<point x="917.2496337891" y="609.8000488281"/>
			<point x="907.2009887695" y="680.3033447266"/>
			<point x="887" y="755" type="curve" smooth="yes"/>
			<point x="844" y="914"/>
			<point x="779" y="1021"/>
			<point x="692" y="1074" type="curve" smooth="yes"/>
			<point x="667" y="1089"/>
			<point x="643" y="1098"/>
			<point x="622" y="1099" type="curve" smooth="yes"/>
			<point x="576.8815307617" y="1101.8798828125"/>
			<point x="553.8799438477" y="1122.2690429688"/>
		</contour>
	</outline>
</glyph>
<glyph name="one" format="2">
	<unicode hex="0031"/>
	<advance width="476"/>
	<outline>
		<contour>
			<point x="100.3375549316" y="1305.79296875" type="curve" smooth="yes"/>
			<point x="100.3375549316" y="1350.9915771484"/>
			<point x="140.8913269043" y="1374.0670166016"/>
			<point x="179.5327453613" y="1374.0670166016" type="curve" smooth="yes"/>
			<point x="214.4459228516" y="1374.0670166016"/>
			<point x="252.1385498047" y="1359.2218017578"/>
			<point x="274" y="1339" type="curve" smooth="yes"/>
			<point x="345" y="1274"/>
			<point x="356" y="1166"/>
			<point x="366" y="1030" type="curve" smooth="yes"/>
			<point x="372.9436950684" y="937.9959716797"/>
			<point x="376.4972839355" y="845.0502929688"/>
			<point x="376.4972839355" y="751.162902832" type="curve" smooth="yes"/>
			<point x="376.4972839355" y="628.7105102539"/>
			<point x="370.4524230957" y="504.6561889648"/>
			<point x="358" y="379" type="curve" smooth="yes"/>
			<point x="326" y="52" type="line" smooth="yes"/>
			<point x="322.2538146973" y="14.0698604584"/>
			<point x="291.7554931641" y="-4.1250872612"/>
			<point x="261.202545166" y="-4.1250872612" type="curve" smooth="yes"/>
			<point x="228.4554138184" y="-4.1250872612"/>
			<point x="195.6455688477" y="16.7771167755"/>
			<point x="195.6455688477" y="56.6850280762" type="curve" smooth="yes"/>
			<point x="195.6455688477" y="59.0563812256"/>
			<point x="195.7614135742" y="61.4948348999"/>
			<point x="196" y="64" type="curve" smooth="yes"/>
			<point x="228" y="392" type="line" smooth="yes"/>
			<point x="240.0576934814" y="515.4477539062"/>
			<point x="246.1811828613" y="636.9174804688"/>
			<point x="246.1811828613" y="756.5983886719" type="curve" smooth="yes"/>
			<point x="246.1811828613" y="886.9047241211"/>
			<point x="242.4858551025" y="1105.7854003906"/>
			<point x="208" y="1192" type="curve" smooth="yes"/>
			<point x="194" y="1227"/>
			<point x="185" y="1244"/>
			<point x="182" y="1243" type="curve" smooth="yes"/>
			<point x="175.7546844482" y="1241.2469482422"/>
			<point x="169.665435791" y="1240.4302978516"/>
			<point x="163.8098449707" y="1240.4302978516" type="curve" smooth="yes"/>
			<point x="127.6079559326" y="1240.4302978516"/>
			<point x="100.3375549316" y="1271.6462402344"/>
		</contour>
	</outline>
</glyph>
<glyph name="two" format="2">
	<unicode hex="0032"/>
	<advance width="1331"/>
	<outline>
		<contour>
			<point x="166.4601135254" y="1012.5004882812" type="curve" smooth="yes"/>
			<point x="135.151260376" y="1012.5004882812"/>
			<point x="95.5004653931" y="1049.9178466797"/>
			<point x="95.5004653931" y="1078.9846191406" type="curve" smooth="yes"/>
			<point x="95.5004653931" y="1093.0792236328"/>
			<point x="102.0334091187" y="1107.7178955078"/>
			<point x="115" y="1123" type="curve" smooth="yes"/>
			<point x="248" y="1280"/>
			<point x="380" y="1363"/>
			<point x="514" y="1374" type="curve" smooth="yes"/>
			<point x="531.5750732422" y="1375.4427490234"/>
			<point x="548.6684570312" y="1376.1629638672"/>
			<point x="565.2847290039" y="1376.1629638672" type="curve" smooth="yes"/>
			<point x="675.3580322266" y="1376.1629638672"/>
			<point x="764.4925537109" y="1344.556640625"/>
			<point x="834" y="1282" type="curve" smooth="yes"/>
			<point x="923.6063232422" y="1201.3542480469"/>
			<point x="966.7172241211" y="1116.2232666016"/>
			<point x="966.7172241211" y="994.5329589844" type="curve" smooth="yes"/>
			<point x="966.7172241211" y="916.8161010742"/>
			<point x="946.2684936523" y="844.9718017578"/>
			<point x="906" y="779" type="curve" smooth="yes"/>
			<point x="798" y="604"/>
			<point x="642" y="406"/>
			<point x="439" y="185" type="curve"/>
			<point x="489.669342041" y="195.1338653564"/>
			<point x="544.7631835938" y="200.1446228027"/>
			<point x="604.3939819336" y="200.1446228027" type="curve" smooth="yes"/>
			<point x="719.3966674805" y="200.1446228027"/>
			<point x="899.2007446289" y="165.1697387695"/>
			<point x="1007.2498779297" y="165.1697387695" type="curve" smooth="yes"/>
			<point x="1053.2225341797" y="165.1697387695"/>
			<point x="1090.1392822266" y="169.7130737305"/>
			<point x="1118" y="179" type="curve" smooth="yes"/>
			<point x="1137.4565429688" y="185.485534668"/>
			<point x="1154.4946289062" y="188.7112579346"/>
			<point x="1169.0799560547" y="188.7112579346" type="curve" smooth="yes"/>
			<point x="1207.3597412109" y="188.7112579346"/>
			<point x="1232.5267333984" y="162.302947998"/>
			<point x="1232.5267333984" y="120.5606613159" type="curve" smooth="yes"/>
			<point x="1232.5267333984" y="93.7544631958"/>
			<point x="1216.0178222656" y="74.75"/>
			<point x="1183" y="64" type="curve" smooth="yes"/>
			<point x="1117.0882568359" y="42.5588226318"/>
			<point x="1055.5908203125" y="31.8382358551"/>
			<point x="999.5093383789" y="31.8382358551" type="curve" smooth="yes"/>
			<point x="984.9697265625" y="31.8382358551"/>
			<point x="970.794128418" y="32.5588226318"/>
			<point x="957" y="34" type="curve" smooth="yes"/>
			<point x="890" y="41"/>
			<point x="796" y="54"/>
			<point x="674" y="73" type="curve" smooth="yes"/>
			<point x="648.1224975586" y="77.0301055908"/>
			<point x="621.6600341797" y="79.0356216431"/>
			<point x="594.6223144531" y="79.0356216431" type="curve" smooth="yes"/>
			<point x="494.1901550293" y="79.0356216431"/>
			<point x="385.8197021484" y="51.3643455505"/>
			<point x="270" y="-3" type="curve" smooth="yes"/>
			<point x="240.233001709" y="-17.5916671753"/>
			<point x="215.9166717529" y="-24.6886634827"/>
			<point x="197.4486694336" y="-24.6886634827" type="curve" smooth="yes"/>
			<point x="161.1206207275" y="-24.6886634827"/>
			<point x="139.1590881348" y="18.0756721497"/>
			<point x="139.1590881348" y="40.7417373657" type="curve" smooth="yes"/>
			<point x="139.1590881348" y="56.156337738"/>
			<point x="146.4393920898" y="70.9090881348"/>
			<point x="161" y="85" type="curve" smooth="yes"/>
			<point x="203" y="126" type="line" smooth="yes"/>
			<point x="440" y="358"/>
			<point x="639" y="599"/>
			<point x="798" y="849" type="curve" smooth="yes"/>
			<point x="825.4523925781" y="895.3983764648"/>
			<point x="838.2536621094" y="943.4412841797"/>
			<point x="838.2536621094" y="989.7760009766" type="curve" smooth="yes"/>
			<point x="838.2536621094" y="1063.2766113281"/>
			<point x="806.0412597656" y="1132.4788818359"/>
			<point x="749" y="1184" type="curve" smooth="yes"/>
			<point x="703.5714111328" y="1225.1428222656"/>
			<point x="641.9796142578" y="1245.7142333984"/>
			<point x="564.2244873047" y="1245.7142333984" type="curve" smooth="yes"/>
			<point x="551.2653198242" y="1245.7142333984"/>
			<point x="537.8571166992" y="1245.1428222656"/>
			<point x="524" y="1244" type="curve" smooth="yes"/>
			<point x="427" y="1236"/>
			<point x="324" y="1168"/>
			<point x="214" y="1039" type="curve" smooth="yes"/>
			<point x="198.966583252" y="1021.282043457"/>
			<point x="183.068359375" y="1012.5004882812"/>
		</contour>
	</outline>
</glyph>
<glyph name="three" format="2">
	<unicode hex="0033"/>
	<advance width="1181"/>
	<outline>
		<contour>
			<point x="736.7347412109" y="112.9861755371" type="curve" smooth="yes"/>
			<point x="870.3047485352" y="112.9861755371"/>
			<point x="951.0278930664" y="172.1017608643"/>
			<point x="951.0278930664" y="293.8903198242" type="curve" smooth="yes"/>
			<point x="951.0278930664" y="383.9580993652"/>
			<point x="893.0139160156" y="467.0428771973"/>
			<point x="835" y="502" type="curve" smooth="yes"/>
			<point x="803.2926635742" y="521.5122070312"/>
			<point x="768.4919433594" y="531.2683105469"/>
			<point x="730.8300170898" y="531.2683105469" type="curve" smooth="yes"/>
			<point x="691.2849731445" y="531.2683105469"/>
			<point x="648.5853881836" y="520.5122070312"/>
			<point x="603" y="499" type="curve" smooth="yes"/>
			<point x="592.9088134766" y="493.8833312988"/>
			<point x="583.0802001953" y="491.6149902344"/>
			<point x="573.8300170898" y="491.6149902344" type="curve" smooth="yes"/>
			<point x="537.9216308594" y="491.6149902344"/>
			<point x="510.729888916" y="525.7974243164"/>
			<point x="510.729888916" y="560.2353515625" type="curve" smooth="yes"/>
			<point x="510.729888916" y="579.3433837891"/>
			<point x="519.1012573242" y="598.530090332"/>
			<point x="539" y="612" type="curve" smooth="yes"/>
			<point x="587" y="643"/>
			<point x="630" y="677"/>
			<point x="667" y="712" type="curve" smooth="yes"/>
			<point x="768" y="807"/>
			<point x="826" y="905"/>
			<point x="843" y="1008" type="curve" smooth="yes"/>
			<point x="845.782409668" y="1025.2741699219"/>
			<point x="847.1401367188" y="1041.9165039062"/>
			<point x="847.1401367188" y="1057.8228759766" type="curve" smooth="yes"/>
			<point x="847.1401367188" y="1171.7818603516"/>
			<point x="777.4512329102" y="1247.9573974609"/>
			<point x="662.7132568359" y="1247.9573974609" type="curve" smooth="yes"/>
			<point x="655.3266601562" y="1247.9573974609"/>
			<point x="647.7534179688" y="1247.6416015625"/>
			<point x="640" y="1247" type="curve" smooth="yes"/>
			<point x="520" y="1236"/>
			<point x="386" y="1161"/>
			<point x="239" y="1020" type="curve" smooth="yes"/>
			<point x="226" y="1008"/>
			<point x="211" y="1002"/>
			<point x="193" y="1002" type="curve" smooth="yes"/>
			<point x="154.7054443359" y="1002"/>
			<point x="130.4030914307" y="1034.9493408203"/>
			<point x="130.4030914307" y="1068.4014892578" type="curve" smooth="yes"/>
			<point x="130.4030914307" y="1084.7414550781"/>
			<point x="136.2015380859" y="1101.2015380859"/>
			<point x="149" y="1114" type="curve" smooth="yes"/>
			<point x="318" y="1277"/>
			<point x="478" y="1364"/>
			<point x="629" y="1377" type="curve" smooth="yes"/>
			<point x="642.2954711914" y="1378.1363525391"/>
			<point x="655.2551879883" y="1378.7045898438"/>
			<point x="667.8791503906" y="1378.7045898438" type="curve" smooth="yes"/>
			<point x="766.3460693359" y="1378.7045898438"/>
			<point x="844.3863525391" y="1344.1363525391"/>
			<point x="902" y="1275" type="curve" smooth="yes"/>
			<point x="952.2976074219" y="1214.6428222656"/>
			<point x="977.4464111328" y="1142.9088134766"/>
			<point x="977.4464111328" y="1060.2613525391" type="curve" smooth="yes"/>
			<point x="977.4464111328" y="1036.1029052734"/>
			<point x="975.2976074219" y="1011.0119018555"/>
			<point x="971" y="985" type="curve" smooth="yes"/>
			<point x="952" y="870"/>
			<point x="894" y="760"/>
			<point x="795" y="656" type="curve"/>
			<point x="931" y="630"/>
			<point x="1022" y="528"/>
			<point x="1063" y="404" type="curve" smooth="yes"/>
			<point x="1075.7794189453" y="364.3839416504"/>
			<point x="1082.2077636719" y="326.0380859375"/>
			<point x="1082.2077636719" y="288.9624328613" type="curve" smooth="yes"/>
			<point x="1082.2077636719" y="239.0017852783"/>
			<point x="1070.5349121094" y="191.3476409912"/>
			<point x="1047" y="146" type="curve" smooth="yes"/>
			<point x="991.6432495117" y="38.5427703857"/>
			<point x="890.0989379883" y="-16.3329277039"/>
			<point x="736.9268188477" y="-16.3329277039" type="curve" smooth="yes"/>
			<point x="575.0531005859" y="-16.3329277039"/>
			<point x="373.6755065918" y="53.1800765991"/>
			<point x="132" y="193" type="curve" smooth="yes"/>
			<point x="110.893989563" y="204.8721313477"/>
			<point x="100.8085632324" y="226.4114532471"/>
			<point x="100.8085632324" y="248.096282959" type="curve" smooth="yes"/>
			<point x="100.8085632324" y="291.3780822754"/>
			<point x="149.3598480225" y="334.1840820312"/>
			<point x="198" y="305" type="curve" smooth="yes"/>
			<point x="418.9791564941" y="177.2609863281"/>
			<point x="599.0978393555" y="112.9861755371"/>
		</contour>
	</outline>
</glyph>
<glyph name="five" format="2">
	<unicode hex="0035"/>
	<advance width="1306"/>
	<outline>
		<contour>
			<point x="371.9745483398" y="1394.3035888672" type="curve" smooth="yes"/>
			<point x="494.7189331055" y="1394.3035888672"/>
			<point x="695.2068481445" y="1375.5870361328"/>
			<point x="797.2792358398" y="1375.5870361328" type="curve" smooth="yes"/>
			<point x="922.1146850586" y="1375.5870361328"/>
			<point x="1036.2705078125" y="1393.0902099609"/>
			<point x="1120" y="1421" type="curve" smooth="yes"/>
			<point x="1128.6783447266" y="1424.13671875"/>
			<point x="1136.8757324219" y="1425.5571289062"/>
			<point x="1144.5075683594" y="1425.5571289062" type="curve" smooth="yes"/>
			<point x="1182.1271972656" y="1425.5571289062"/>
			<point x="1206.0029296875" y="1391.0444335938"/>
			<point x="1206.0029296875" y="1357.4805908203" type="curve" smooth="yes"/>
			<point x="1206.0029296875" y="1332.7327880859"/>
			<point x="1193.0224609375" y="1308.5007324219"/>
			<point x="1163" y="1299" type="curve" smooth="yes"/>
			<point x="1059.6346435547" y="1263.4422607422"/>
			<point x="936.4389648438" y="1245.6634521484"/>
			<point x="794.5440063477" y="1245.6634521484" type="curve" smooth="yes"/>
			<point x="672.4021606445" y="1245.6634521484"/>
			<point x="586.9158325195" y="1255.1195068359"/>
			<point x="450" y="1265" type="curve" smooth="yes"/>
			<point x="419.1363525391" y="1267.2272949219"/>
			<point x="391.5123901367" y="1268.3409423828"/>
			<point x="367.128112793" y="1268.3409423828" type="curve" smooth="yes"/>
			<point x="314.8760375977" y="1268.3409423828"/>
			<point x="277.5" y="1263.2272949219"/>
			<point x="255" y="1253" type="curve"/>
			<point x="245.6244812012" y="1234.2490234375"/>
			<point x="227.9375" y="1090.8055419922"/>
			<point x="227.9375" y="1013.75" type="curve" smooth="yes"/>
			<point x="227.9375" y="942.2083129883"/>
			<point x="233.9583282471" y="858.625"/>
			<point x="246" y="763" type="curve"/>
			<point x="429.8501281738" y="843.5234985352"/>
			<point x="588.310546875" y="883.4234008789"/>
			<point x="721.3811645508" y="883.4234008789" type="curve" smooth="yes"/>
			<point x="959.756652832" y="883.4234008789"/>
			<point x="1117.0755615234" y="763.151550293"/>
			<point x="1117.0755615234" y="534.0848388672" type="curve" smooth="yes"/>
			<point x="1117.0755615234" y="472.5116882324"/>
			<point x="1102.7846679688" y="409.618560791"/>
			<point x="1074" y="345" type="curve" smooth="yes"/>
			<point x="990.9398193359" y="158.5384216309"/>
			<point x="794.5958862305" y="-0.097826086"/>
			<point x="536.8788452148" y="-0.097826086" type="curve" smooth="yes"/>
			<point x="392.8610534668" y="-0.097826086"/>
			<point x="267.383392334" y="43.4560508728"/>
			<point x="160" y="98" type="curve" smooth="yes"/>
			<point x="137.5286712646" y="108.9966125488"/>
			<point x="125.8011779785" y="132.7944030762"/>
			<point x="125.8011779785" y="156.6060638428" type="curve" smooth="yes"/>
			<point x="125.8011779785" y="197.3207397461"/>
			<point x="169.1191711426" y="238.9404144287"/>
			<point x="219" y="214" type="curve" smooth="yes"/>
			<point x="331.4735717773" y="156.9711456299"/>
			<point x="436.4187011719" y="128.383102417"/>
			<point x="533.9826049805" y="128.383102417" type="curve" smooth="yes"/>
			<point x="731.2221069336" y="128.383102417"/>
			<point x="890.6314086914" y="250.9382629395"/>
			<point x="953" y="393" type="curve" smooth="yes"/>
			<point x="975.8648071289" y="444.2913513184"/>
			<point x="986.7957763672" y="493.1004638672"/>
			<point x="986.7957763672" y="537.2443847656" type="curve" smooth="yes"/>
			<point x="986.7957763672" y="677.6081542969"/>
			<point x="878.8669433594" y="754.0089111328"/>
			<point x="719.1218261719" y="754.0089111328" type="curve" smooth="yes"/>
			<point x="589.2239990234" y="754.0089111328"/>
			<point x="424.3273925781" y="706.0059814453"/>
			<point x="224" y="610" type="curve" smooth="yes"/>
			<point x="213.9722900391" y="605.2041625977"/>
			<point x="204.2297210693" y="603.1170043945"/>
			<point x="195.0623168945" y="603.1170043945" type="curve" smooth="yes"/>
			<point x="162.1762390137" y="603.1170043945"/>
			<point x="136.6920318604" y="629.975769043"/>
			<point x="132" y="655" type="curve" smooth="yes"/>
			<point x="115.7334671021" y="735.5580444336"/>
			<point x="99.4669418335" y="913.9161376953"/>
			<point x="99.4669418335" y="1051.5762939453" type="curve" smooth="yes"/>
			<point x="99.4669418335" y="1138.4780273438"/>
			<point x="114.3069610596" y="1265.3969726562"/>
			<point x="132" y="1304" type="curve" smooth="yes"/>
			<point x="143" y="1328"/>
			<point x="163" y="1349"/>
			<point x="190" y="1366" type="curve" smooth="yes"/>
			<point x="221.1695404053" y="1384.9727783203"/>
			<point x="281.724029541" y="1394.3035888672"/>
		</contour>
	</outline>
</glyph>
<glyph name="six" format="2">
	<unicode hex="0036"/>
	<advance width="1177"/>
	<outline>
		<contour>
			<point x="617.3905639648" y="1340.0819091797" type="curve" smooth="yes"/>
			<point x="648.7317504883" y="1340.0819091797"/>
			<point x="675.1087646484" y="1309.1704101562"/>
			<point x="675.1087646484" y="1277.1341552734" type="curve" smooth="yes"/>
			<point x="675.1087646484" y="1255.9052734375"/>
			<point x="661.5579833984" y="1237.1938476562"/>
			<point x="635" y="1221" type="curve" smooth="yes"/>
			<point x="502" y="1139"/>
			<point x="392" y="1004"/>
			<point x="305" y="817" type="curve" smooth="yes"/>
			<point x="255.2238464355" y="708.9751586914"/>
			<point x="230.8600769043" y="620.1782836914"/>
			<point x="230.8600769043" y="525.5855712891" type="curve" smooth="yes"/>
			<point x="230.8600769043" y="279.1345825195"/>
			<point x="355.9526367188" y="155.9090881348"/>
			<point x="606.1377563477" y="155.9090881348" type="curve" smooth="yes"/>
			<point x="749.7797241211" y="155.9090881348"/>
			<point x="848.9622192383" y="185.6791992188"/>
			<point x="894" y="243" type="curve" smooth="yes"/>
			<point x="929.1140136719" y="287.3748779297"/>
			<point x="944.5739746094" y="332.9409179688"/>
			<point x="944.5739746094" y="376.2509155273" type="curve" smooth="yes"/>
			<point x="944.5739746094" y="477.4105224609"/>
			<point x="850.7186279297" y="586.0530395508"/>
			<point x="731.7124023438" y="586.0530395508" type="curve" smooth="yes"/>
			<point x="630.3504638672" y="586.0530395508"/>
			<point x="524.6481323242" y="520.4844970703"/>
			<point x="472" y="470" type="curve" smooth="yes"/>
			<point x="442.7767944336" y="441.9695739746"/>
			<point x="416.7547302246" y="428.1664733887"/>
			<point x="394.1459350586" y="428.1664733887" type="curve" smooth="yes"/>
			<point x="362.4714660645" y="428.1664733887"/>
			<point x="331.1111755371" y="464.2102050781"/>
			<point x="331.1111755371" y="492.2407836914" type="curve" smooth="yes"/>
			<point x="331.1111755371" y="508"/>
			<point x="339.118927002" y="523.6312255859"/>
			<point x="355" y="539" type="curve" smooth="yes"/>
			<point x="438" y="618"/>
			<point x="530" y="672"/>
			<point x="633" y="704" type="curve" smooth="yes"/>
			<point x="668.9625854492" y="715.1728515625"/>
			<point x="703.7060546875" y="720.7379760742"/>
			<point x="737.2730712891" y="720.7379760742" type="curve" smooth="yes"/>
			<point x="925.6408691406" y="720.7379760742"/>
			<point x="1076.2471923828" y="536.4830932617"/>
			<point x="1076.2471923828" y="373.5868530273" type="curve" smooth="yes"/>
			<point x="1076.2471923828" y="304.1647338867"/>
			<point x="1052.2109375" y="231.5808410645"/>
			<point x="997" y="162" type="curve" smooth="yes"/>
			<point x="925.5617675781" y="71.1714172363"/>
			<point x="794.4647827148" y="25.9304122925"/>
			<point x="608.4644775391" y="25.9304122925" type="curve" smooth="yes"/>
			<point x="364.9797973633" y="25.9304122925"/>
			<point x="205.8402099609" y="119.9536056519"/>
			<point x="132" y="308" type="curve" smooth="yes"/>
			<point x="107.9333343506" y="368.799987793"/>
			<point x="95.9000015259" y="432.006652832"/>
			<point x="95.9000015259" y="497.3659667969" type="curve" smooth="yes"/>
			<point x="95.9000015259" y="535.2055664062"/>
			<point x="99.9333343506" y="573.7666625977"/>
			<point x="108" y="613" type="curve" smooth="yes"/>
			<point x="159" y="856"/>
			<point x="254" y="1048"/>
			<point x="396" y="1190" type="curve" smooth="yes"/>
			<point x="496.1716003418" y="1290.1716308594"/>
			<point x="569.9684448242" y="1340.0819091797"/>
		</contour>
	</outline>
</glyph>
<glyph name="seven" format="2">
	<unicode hex="0037"/>
	<advance width="1200"/>
	<outline>
		<contour>
			<point x="968.4614257812" y="1052.5231933594" type="curve" smooth="yes"/>
			<point x="968.4614257812" y="1234.4674072266"/>
			<point x="907.651550293" y="1296.0046386719"/>
			<point x="723.9370117188" y="1296.0046386719" type="curve" smooth="yes"/>
			<point x="706.0489501953" y="1296.0046386719"/>
			<point x="687.0699462891" y="1295.3380126953"/>
			<point x="667" y="1294" type="curve" smooth="yes"/>
			<point x="547" y="1286"/>
			<point x="387" y="1243"/>
			<point x="186" y="1167" type="curve" smooth="yes"/>
			<point x="177.1495666504" y="1163.8010253906"/>
			<point x="168.7880554199" y="1162.3531494141"/>
			<point x="161.0051879883" y="1162.3531494141" type="curve" smooth="yes"/>
			<point x="123.0299377441" y="1162.3531494141"/>
			<point x="98.8310394287" y="1196.8251953125"/>
			<point x="98.8310394287" y="1230.5578613281" type="curve" smooth="yes"/>
			<point x="98.8310394287" y="1254.7459716797"/>
			<point x="111.2731628418" y="1278.5538330078"/>
			<point x="140" y="1289" type="curve" smooth="yes"/>
			<point x="389.0109863281" y="1382.6646728516"/>
			<point x="586.9921264648" y="1429.9385986328"/>
			<point x="733.9434204102" y="1429.9385986328" type="curve" smooth="yes"/>
			<point x="979.4885253906" y="1429.9385986328"/>
			<point x="1098.2564697266" y="1296.0206298828"/>
			<point x="1098.2564697266" y="1047.8254394531" type="curve" smooth="yes"/>
			<point x="1098.2564697266" y="1005.6716308594"/>
			<point x="1094.8376464844" y="960.0598144531"/>
			<point x="1088" y="911" type="curve" smooth="yes"/>
			<point x="1076" y="827"/>
			<point x="1045" y="687"/>
			<point x="994" y="490" type="curve" smooth="yes"/>
			<point x="943" y="293"/>
			<point x="913" y="152"/>
			<point x="904" y="65" type="curve" smooth="yes"/>
			<point x="900.1328125" y="30.1951313019"/>
			<point x="868.8475341797" y="7.4375844002"/>
			<point x="837.1875610352" y="7.4375844002" type="curve" smooth="yes"/>
			<point x="802.7416992188" y="7.4375844002"/>
			<point x="770.5423583984" y="39.1099281311"/>
			<point x="775" y="77" type="curve" smooth="yes"/>
			<point x="784" y="170"/>
			<point x="814" y="315"/>
			<point x="865" y="513" type="curve" smooth="yes"/>
			<point x="916" y="711"/>
			<point x="947" y="844"/>
			<point x="957" y="913" type="curve" smooth="yes"/>
			<point x="964.6505126953" y="965.0234375"/>
			<point x="968.4614257812" y="1011.5216064453"/>
		</contour>
	</outline>
</glyph>
<glyph name="eight" format="2">
	<unicode hex="0038"/>
	<advance width="1189"/>
	<outline>
		<contour>
			<point x="849.1235351562" y="996.5728759766" type="curve" smooth="yes"/>
			<point x="808.3327636719" y="996.5728759766"/>
			<point x="771.5096435547" y="1024.3038330078"/>
			<point x="771.5096435547" y="1051.0158691406" type="curve" smooth="yes"/>
			<point x="771.5096435547" y="1062.0230712891"/>
			<point x="777.9443969727" y="1075.3919677734"/>
			<point x="777.9443969727" y="1086.8928222656" type="curve" smooth="yes"/>
			<point x="777.9443969727" y="1112.2841796875"/>
			<point x="757.4094848633" y="1135.6531982422"/>
			<point x="718" y="1157" type="curve" smooth="yes"/>
			<point x="673.4285888672" y="1181.1428222656"/>
			<point x="597.8163452148" y="1193.2142333984"/>
			<point x="491.163269043" y="1193.2142333984" type="curve" smooth="yes"/>
			<point x="327.6096801758" y="1193.2142333984"/>
			<point x="231.3355102539" y="1148.5322265625"/>
			<point x="231.3355102539" y="1054.7547607422" type="curve" smooth="yes"/>
			<point x="231.3355102539" y="1006.9689331055"/>
			<point x="256.4629211426" y="948.6981811523"/>
			<point x="307" y="883" type="curve"/>
			<point x="380" y="824"/>
			<point x="454" y="773"/>
			<point x="528" y="729" type="curve"/>
			<point x="569" y="760"/>
			<point x="636" y="808"/>
			<point x="729" y="873" type="curve" smooth="yes"/>
			<point x="822" y="938"/>
			<point x="885" y="987"/>
			<point x="918" y="1022" type="curve" smooth="yes"/>
			<point x="935.6429443359" y="1040.7121582031"/>
			<point x="952.7141723633" y="1049.9918212891"/>
			<point x="969.6721801758" y="1049.9918212891" type="curve" smooth="yes"/>
			<point x="999.2958374023" y="1049.9918212891"/>
			<point x="1036.5882568359" y="1014.28515625"/>
			<point x="1036.5882568359" y="984.4455566406" type="curve" smooth="yes"/>
			<point x="1036.5882568359" y="966.8339233398"/>
			<point x="1027.0588378906" y="948.1176757812"/>
			<point x="1008" y="928" type="curve" smooth="yes"/>
			<point x="972" y="890"/>
			<point x="910" y="840"/>
			<point x="822" y="779" type="curve" smooth="yes"/>
			<point x="734" y="718"/>
			<point x="679" y="679"/>
			<point x="656" y="662" type="curve"/>
			<point x="671" y="655"/>
			<point x="715" y="634"/>
			<point x="787" y="602" type="curve" smooth="yes"/>
			<point x="859" y="570"/>
			<point x="919" y="526"/>
			<point x="967" y="472" type="curve" smooth="yes"/>
			<point x="1015" y="418"/>
			<point x="1050" y="369"/>
			<point x="1072" y="325" type="curve" smooth="yes"/>
			<point x="1084.6451416016" y="299.709777832"/>
			<point x="1090.6828613281" y="273.4284667969"/>
			<point x="1090.6828613281" y="246.3459014893" type="curve" smooth="yes"/>
			<point x="1090.6828613281" y="226.3101501465"/>
			<point x="1087.3782958984" y="205.8358917236"/>
			<point x="1081" y="185" type="curve" smooth="yes"/>
			<point x="1066" y="136"/>
			<point x="1026" y="92"/>
			<point x="960" y="51" type="curve" smooth="yes"/>
			<point x="892.4602050781" y="9.0434551239"/>
			<point x="785.640625" y="-12.039437294"/>
			<point x="646.3442382812" y="-12.039437294" type="curve" smooth="yes"/>
			<point x="515.5552978516" y="-12.039437294"/>
			<point x="415.0816040039" y="6.0248980522"/>
			<point x="344" y="44" type="curve" smooth="yes"/>
			<point x="230.093170166" y="105.2646331787"/>
			<point x="173.233215332" y="179.7097625732"/>
			<point x="173.233215332" y="267.5223388672" type="curve" smooth="yes"/>
			<point x="173.233215332" y="373.2095947266"/>
			<point x="255.597442627" y="498.2601928711"/>
			<point x="420" y="643" type="curve"/>
			<point x="302" y="718"/>
			<point x="231" y="771"/>
			<point x="206" y="802" type="curve" smooth="yes"/>
			<point x="144.3422393799" y="879.9129638672"/>
			<point x="99.3364562988" y="969.7651367188"/>
			<point x="99.3364562988" y="1054.8259277344" type="curve" smooth="yes"/>
			<point x="99.3364562988" y="1237.1945800781"/>
			<point x="301.3944091797" y="1324.0440673828"/>
			<point x="502.8607177734" y="1324.0440673828" type="curve" smooth="yes"/>
			<point x="621.4437866211" y="1324.0440673828"/>
			<point x="710.8235473633" y="1308.0294189453"/>
			<point x="771" y="1276" type="curve" smooth="yes"/>
			<point x="865.7368164062" y="1224.6842041016"/>
			<point x="913.1052856445" y="1165.2658691406"/>
			<point x="913.1052856445" y="1097.7451171875" type="curve" smooth="yes"/>
			<point x="913.1052856445" y="1049.9696044922"/>
			<point x="891.6165771484" y="996.5728759766"/>
		</contour>
		<contour>
			<point x="540" y="574" type="curve"/>
			<point x="409" y="467"/>
			<point x="332" y="373"/>
			<point x="310" y="292" type="curve" smooth="yes"/>
			<point x="307.8333435059" y="284.1666564941"/>
			<point x="306.75" y="276.4722290039"/>
			<point x="306.75" y="268.9259338379" type="curve" smooth="yes"/>
			<point x="306.75" y="231.194442749"/>
			<point x="333.8333435059" y="197.1666717529"/>
			<point x="388" y="168" type="curve" smooth="yes"/>
			<point x="451.1944580078" y="133.9722290039"/>
			<point x="536.1288452148" y="116.9583358765"/>
			<point x="644.6411743164" y="116.9583358765" type="curve" smooth="yes"/>
			<point x="759.0609741211" y="116.9583358765"/>
			<point x="843.4291992188" y="131.6497192383"/>
			<point x="888" y="159" type="curve" smooth="yes"/>
			<point x="934.8880615234" y="187.7722167969"/>
			<point x="962.5716552734" y="205.7344970703"/>
			<point x="962.5716552734" y="231.1246490479" type="curve" smooth="yes"/>
			<point x="962.5716552734" y="245.3975524902"/>
			<point x="955.2168579102" y="265.5153808594"/>
			<point x="941" y="290" type="curve" smooth="yes"/>
			<point x="892" y="375"/>
			<point x="825" y="439"/>
			<point x="741" y="480" type="curve" smooth="yes"/>
			<point x="680" y="511"/>
			<point x="606" y="541"/>
		</contour>
	</outline>
</glyph>
<glyph name="nine" format="2">
	<unicode hex="0039"/>
	<advance width="1114"/>
	<outline>
		<contour>
			<point x="370.4513244629" y="595.7045898438" type="curve" smooth="yes"/>
			<point x="193.3849182129" y="595.7045898438"/>
			<point x="102.7600631714" y="751.1748657227"/>
			<point x="102.7600631714" y="919.9545898438" type="curve" smooth="yes"/>
			<point x="102.7600631714" y="1125.0531005859"/>
			<point x="210.4992523193" y="1268.4528808594"/>
			<point x="362" y="1335" type="curve" smooth="yes"/>
			<point x="423.7546081543" y="1361.9475097656"/>
			<point x="491.2524414062" y="1375.4473876953"/>
			<point x="564.388671875" y="1375.4473876953" type="curve" smooth="yes"/>
			<point x="686.6624755859" y="1375.4473876953"/>
			<point x="824.6962280273" y="1337.7132568359"/>
			<point x="978" y="1262" type="curve" smooth="yes"/>
			<point x="1003.3327636719" y="1249.3336181641"/>
			<point x="1014.133605957" y="1227.2918701172"/>
			<point x="1014.133605957" y="1205.2624511719" type="curve" smooth="yes"/>
			<point x="1014.133605957" y="1171.5460205078"/>
			<point x="988.8324584961" y="1137.8586425781"/>
			<point x="951.6072387695" y="1137.8586425781" type="curve" smooth="yes"/>
			<point x="942.1072998047" y="1137.8586425781"/>
			<point x="931.8308105469" y="1140.0526123047"/>
			<point x="921" y="1145" type="curve" smooth="yes"/>
			<point x="785.2641601562" y="1211.5751953125"/>
			<point x="666.657409668" y="1244.7277832031"/>
			<point x="564.9097290039" y="1244.7277832031" type="curve" smooth="yes"/>
			<point x="409.1081848145" y="1244.7277832031"/>
			<point x="302.1975402832" y="1168.7799072266"/>
			<point x="258" y="1056" type="curve" smooth="yes"/>
			<point x="239.1643981934" y="1007.9367675781"/>
			<point x="229.6096038818" y="962.8264770508"/>
			<point x="229.6096038818" y="920.1212158203" type="curve" smooth="yes"/>
			<point x="229.6096038818" y="897.0758056641"/>
			<point x="232.3920593262" y="874.7307739258"/>
			<point x="238" y="853" type="curve" smooth="yes"/>
			<point x="261.3363037109" y="764.4281005859"/>
			<point x="307.7386779785" y="725.3637695312"/>
			<point x="368.404876709" y="725.3637695312" type="curve" smooth="yes"/>
			<point x="422.1231994629" y="725.3637695312"/>
			<point x="487.0252380371" y="755.9926147461"/>
			<point x="557" y="810" type="curve" smooth="yes"/>
			<point x="632" y="868"/>
			<point x="710" y="953"/>
			<point x="793" y="1065" type="curve" smooth="yes"/>
			<point x="805.8865966797" y="1082.1821289062"/>
			<point x="824.7203369141" y="1089.9096679688"/>
			<point x="843.5464477539" y="1089.9096679688" type="curve" smooth="yes"/>
			<point x="872.9302978516" y="1089.9096679688"/>
			<point x="902.2955322266" y="1071.0843505859"/>
			<point x="909" y="1040" type="curve" smooth="yes"/>
			<point x="930.6568603516" y="943.2352905273"/>
			<point x="941.4852905273" y="819.5056762695"/>
			<point x="941.4852905273" y="668.8111572266" type="curve" smooth="yes"/>
			<point x="941.4852905273" y="492.4664611816"/>
			<point x="926.6568603516" y="279.1960754395"/>
			<point x="897" y="29" type="curve" smooth="yes"/>
			<point x="892.8662719727" y="-8.2034387589"/>
			<point x="862.9956665039" y="-25.7877788544"/>
			<point x="832.8711547852" y="-25.7877788544" type="curve" smooth="yes"/>
			<point x="799.8162841797" y="-25.7877788544"/>
			<point x="766.4557495117" y="-4.6160492897"/>
			<point x="766.4557495117" y="35.0392227173" type="curve" smooth="yes"/>
			<point x="766.4557495117" y="37.9283828735"/>
			<point x="766.6328125" y="40.9156532288"/>
			<point x="767" y="44" type="curve" smooth="yes"/>
			<point x="795.216003418" y="281.7198486328"/>
			<point x="809.4995117188" y="488.5891723633"/>
			<point x="809.4995117188" y="664.2569580078" type="curve" smooth="yes"/>
			<point x="809.4995117188" y="737.6219482422"/>
			<point x="807.0081787109" y="805.5448608398"/>
			<point x="802" y="868" type="curve"/>
			<point x="700.0333251953" y="751.7222290039"/>
			<point x="534.5651855469" y="595.7045898438"/>
		</contour>
	</outline>
</glyph>
<glyph name="colon" format="2">
	<unicode hex="003A"/>
	<advance width="462"/>
	<outline>
		<contour>
			<point x="361.7925415039" y="170.9836273193" type="curve" smooth="yes"/>
			<point x="361.7925415039" y="112.5892715454"/>
			<point x="300.6572875977" y="73.8973236084"/>
			<point x="234.4011993408" y="73.8973236084" type="curve" smooth="yes"/>
			<point x="157.4374237061" y="73.8973236084"/>
			<point x="103.4731674194" y="116.3340911865"/>
			<point x="103.4731674194" y="183.3635406494" type="curve" smooth="yes"/>
			<point x="103.4731674194" y="197.5329284668"/>
			<point x="105.8846130371" y="212.8012695312"/>
			<point x="111" y="229" type="curve" smooth="yes"/>
			<point x="122.5310821533" y="265.5151062012"/>
			<point x="171.920501709" y="334.3482971191"/>
			<point x="221.9020080566" y="334.3482971191" type="curve" smooth="yes"/>
			<point x="287.3812561035" y="334.3482971191"/>
			<point x="361.7925415039" y="241.9527740479"/>
		</contour>
		<contour>
			<point x="369.7925415039" y="852.9836425781" type="curve" smooth="yes"/>
			<point x="369.7925415039" y="794.5892944336"/>
			<point x="308.6572875977" y="755.8973388672"/>
			<point x="242.4011993408" y="755.8973388672" type="curve" smooth="yes"/>
			<point x="165.4374237061" y="755.8973388672"/>
			<point x="111.4731674194" y="798.3341064453"/>
			<point x="111.4731674194" y="865.3635253906" type="curve" smooth="yes"/>
			<point x="111.4731674194" y="879.5329589844"/>
			<point x="113.8846130371" y="894.8012695312"/>
			<point x="119" y="911" type="curve" smooth="yes"/>
			<point x="130.5310821533" y="947.5150756836"/>
			<point x="179.920501709" y="1016.3482666016"/>
			<point x="229.9020080566" y="1016.3482666016" type="curve" smooth="yes"/>
			<point x="295.3812561035" y="1016.3482666016"/>
			<point x="369.7925415039" y="923.9527587891"/>
		</contour>
	</outline>
</glyph>
<glyph name="semicolon" format="2">
	<unicode hex="003B"/>
	<advance width="425"/>
	<outline>
		<contour>
			<point x="238.1824188232" y="430.7164611816" type="curve" smooth="yes"/>
			<point x="328.3031311035" y="430.7164611816"/>
			<point x="357.295135498" y="353.1305847168"/>
			<point x="357.295135498" y="268.9858398438" type="curve" smooth="yes"/>
			<point x="357.295135498" y="156.1527252197"/>
			<point x="308.4234924316" y="16.680021286"/>
			<point x="281" y="-37" type="curve" smooth="yes"/>
			<point x="265" y="-68"/>
			<point x="254" y="-87"/>
			<point x="248" y="-92" type="curve"/>
			<point x="236.4339447021" y="-111.6119995117"/>
			<point x="213.4882965088" y="-122.6260757446"/>
			<point x="190.4808349609" y="-122.6260757446" type="curve" smooth="yes"/>
			<point x="150.8092041016" y="-122.6260757446"/>
			<point x="112.3665847778" y="-85.162727356"/>
			<point x="133" y="-31" type="curve" smooth="yes"/>
			<point x="145.3252716064" y="5.2054920197"/>
			<point x="151.7164764404" y="36.0703125"/>
			<point x="151.7164764404" y="62.0515861511" type="curve" smooth="yes"/>
			<point x="151.7164764404" y="69.7977905273"/>
			<point x="151.1483459473" y="77.1098861694"/>
			<point x="150" y="84" type="curve" smooth="yes"/>
			<point x="141" y="139"/>
			<point x="133" y="180"/>
			<point x="125" y="205" type="curve" smooth="yes"/>
			<point x="117.3930587769" y="229.6569824219"/>
			<point x="113.9144515991" y="252.9378662109"/>
			<point x="113.9144515991" y="274.5718994141" type="curve" smooth="yes"/>
			<point x="113.9144515991" y="335.4134521484"/>
			<point x="141.4269561768" y="383.2300415039"/>
			<point x="182" y="412" type="curve" smooth="yes"/>
			<point x="198.9472503662" y="424.3252868652"/>
			<point x="217.6747283936" y="430.7164611816"/>
		</contour>
		<contour>
			<point x="335.0536499023" y="685.9456176758" type="curve" smooth="yes"/>
			<point x="335.0536499023" y="628.3903808594"/>
			<point x="288.9264526367" y="577.8626708984"/>
			<point x="225.6119537354" y="577.8626708984" type="curve" smooth="yes"/>
			<point x="153.1512145996" y="577.8626708984"/>
			<point x="115.9251251221" y="631.9865722656"/>
			<point x="115.9251251221" y="700.4057617188" type="curve" smooth="yes"/>
			<point x="115.9251251221" y="716.3302001953"/>
			<point x="117.9417114258" y="733.0289916992"/>
			<point x="122" y="750" type="curve" smooth="yes"/>
			<point x="130.6509552002" y="785.5650634766"/>
			<point x="170.7158203125" y="866.4030761719"/>
			<point x="215.5514373779" y="866.4030761719" type="curve" smooth="yes"/>
			<point x="276.2323303223" y="866.4030761719"/>
			<point x="335.0536499023" y="756.0167236328"/>
		</contour>
	</outline>
</glyph>
<glyph name="less" format="2">
	<unicode hex="003C"/>
	<advance width="1250"/>
	<outline>
		<contour>
			<point x="1060" y="967" type="curve" smooth="yes"/>
			<point x="1069.4237060547" y="970.6332397461"/>
			<point x="1078.2801513672" y="972.268371582"/>
			<point x="1086.4655761719" y="972.268371582" type="curve" smooth="yes"/>
			<point x="1123.4467773438" y="972.268371582"/>
			<point x="1146.7291259766" y="938.8921508789"/>
			<point x="1146.7291259766" y="905.6139526367" type="curve" smooth="yes"/>
			<point x="1146.7291259766" y="881.3834838867"/>
			<point x="1134.3858642578" y="857.2049560547"/>
			<point x="1106" y="846" type="curve" smooth="yes"/>
			<point x="954.9483032227" y="788.2948608398"/>
			<point x="384.9678344727" y="571.9838867188"/>
			<point x="307" y="533" type="curve" smooth="yes"/>
			<point x="276" y="518"/>
			<point x="253" y="503"/>
			<point x="238" y="490" type="curve"/>
			<point x="255" y="476"/>
			<point x="282" y="461"/>
			<point x="320" y="443" type="curve" smooth="yes"/>
			<point x="387" y="412"/>
			<point x="560" y="347"/>
			<point x="824" y="255" type="curve" smooth="yes"/>
			<point x="944" y="213"/>
			<point x="1039" y="180"/>
			<point x="1108" y="156" type="curve" smooth="yes"/>
			<point x="1134.0908203125" y="146.7594909668"/>
			<point x="1149.5452880859" y="119.791557312"/>
			<point x="1149.5452880859" y="92.9226303101" type="curve" smooth="yes"/>
			<point x="1149.5452880859" y="57.2415428162"/>
			<point x="1112.2316894531" y="15.9770708084"/>
			<point x="1064" y="33" type="curve" smooth="yes"/>
			<point x="995" y="57"/>
			<point x="897" y="92"/>
			<point x="777" y="134" type="curve" smooth="yes"/>
			<point x="463" y="244"/>
			<point x="339" y="286"/>
			<point x="217" y="348" type="curve" smooth="yes"/>
			<point x="169.1087188721" y="372.7713623047"/>
			<point x="98.7180480957" y="418.6784973145"/>
			<point x="98.7180480957" y="487.4103393555" type="curve" smooth="yes"/>
			<point x="98.7180480957" y="501.9180297852"/>
			<point x="101.8541793823" y="517.4426269531"/>
			<point x="109" y="534" type="curve" smooth="yes"/>
			<point x="134" y="593"/>
			<point x="191" y="620"/>
			<point x="248" y="649" type="curve" smooth="yes"/>
			<point x="312" y="681"/>
			<point x="464" y="742"/>
			<point x="703" y="832" type="curve" smooth="yes"/>
			<point x="852" y="888"/>
			<point x="971" y="933"/>
		</contour>
	</outline>
</glyph>
<glyph name="equal" format="2">
	<unicode hex="003D"/>
	<advance width="866"/>
	<outline>
		<contour>
			<point x="179" y="757" type="line" smooth="yes"/>
			<point x="141" y="757"/>
			<point x="104" y="782"/>
			<point x="104" y="819" type="curve" smooth="yes"/>
			<point x="104" y="856"/>
			<point x="141" y="882"/>
			<point x="179" y="882" type="curve" smooth="yes"/>
			<point x="691" y="882" type="line" smooth="yes"/>
			<point x="729" y="882"/>
			<point x="766" y="856"/>
			<point x="766" y="819" type="curve" smooth="yes"/>
			<point x="766" y="782"/>
			<point x="729" y="757"/>
			<point x="691" y="757" type="curve" smooth="yes"/>
		</contour>
		<contour>
			<point x="176" y="343" type="line" smooth="yes"/>
			<point x="137" y="343"/>
			<point x="100" y="370"/>
			<point x="100" y="408" type="curve" smooth="yes"/>
			<point x="100" y="446"/>
			<point x="137" y="473"/>
			<point x="176" y="473" type="curve" smooth="yes"/>
			<point x="690" y="473" type="line" smooth="yes"/>
			<point x="729" y="473"/>
			<point x="766" y="446"/>
			<point x="766" y="408" type="curve" smooth="yes"/>
			<point x="766" y="370"/>
			<point x="729" y="343"/>
			<point x="690" y="343" type="curve" smooth="yes"/>
		</contour>
	</outline>
</glyph>
<glyph name="greater" format="2">
	<unicode hex="003E"/>
	<advance width="1250"/>
	<outline>
		<contour>
			<point x="191" y="967" type="curve" smooth="yes"/>
			<point x="181.5762939453" y="970.6332397461"/>
			<point x="172.7069091797" y="972.268371582"/>
			<point x="164.4986724854" y="972.268371582" type="curve" smooth="yes"/>
			<point x="127.223739624" y="972.268371582"/>
			<point x="103.5833282471" y="938.5484619141"/>
			<point x="103.5833282471" y="905.1012573242" type="curve" smooth="yes"/>
			<point x="103.5833282471" y="881.0430297852"/>
			<point x="115.8143463135" y="857.1259155273"/>
			<point x="144" y="846" type="curve" smooth="yes"/>
			<point x="233" y="812"/>
			<point x="353" y="766"/>
			<point x="502" y="710" type="curve" smooth="yes"/>
			<point x="737" y="622"/>
			<point x="884" y="563"/>
			<point x="944" y="533" type="curve" smooth="yes"/>
			<point x="975" y="518"/>
			<point x="998" y="503"/>
			<point x="1013" y="490" type="curve"/>
			<point x="996" y="476"/>
			<point x="968" y="461"/>
			<point x="930" y="443" type="curve" smooth="yes"/>
			<point x="863" y="412"/>
			<point x="690" y="347"/>
			<point x="426" y="255" type="curve" smooth="yes"/>
			<point x="306" y="213"/>
			<point x="212" y="180"/>
			<point x="143" y="156" type="curve" smooth="yes"/>
			<point x="116.9091415405" y="146.7594909668"/>
			<point x="101.4547348022" y="119.791557312"/>
			<point x="101.4547348022" y="92.9226303101" type="curve" smooth="yes"/>
			<point x="101.4547348022" y="57.2415428162"/>
			<point x="138.768371582" y="15.9770708084"/>
			<point x="187" y="33" type="curve" smooth="yes"/>
			<point x="256" y="57"/>
			<point x="353" y="92"/>
			<point x="473" y="134" type="curve" smooth="yes"/>
			<point x="787" y="244"/>
			<point x="912" y="286"/>
			<point x="1034" y="348" type="curve" smooth="yes"/>
			<point x="1081.8912353516" y="372.7713623047"/>
			<point x="1152.2819824219" y="418.6784973145"/>
			<point x="1152.2819824219" y="487.4103393555" type="curve" smooth="yes"/>
			<point x="1152.2819824219" y="501.9180297852"/>
			<point x="1149.1458740234" y="517.4426269531"/>
			<point x="1142" y="534" type="curve" smooth="yes"/>
			<point x="1117" y="593"/>
			<point x="1060" y="620"/>
			<point x="1003" y="649" type="curve" smooth="yes"/>
			<point x="939" y="681"/>
			<point x="787" y="742"/>
			<point x="548" y="832" type="curve" smooth="yes"/>
			<point x="399" y="888"/>
			<point x="280" y="933"/>
		</contour>
	</outline>
</glyph>
<glyph name="question" format="2">
	<unicode hex="003F"/>
	<advance width="984"/>
	<outline>
		<contour>
			<point x="393.7992248535" y="1276.5582275391" type="curve" smooth="yes"/>
			<point x="298.7908935547" y="1276.5582275391"/>
			<point x="230.2799987793" y="1230.3670654297"/>
			<point x="230.2799987793" y="1129.2955322266" type="curve" smooth="yes"/>
			<point x="230.2799987793" y="1105.3696289062"/>
			<point x="233.5200042725" y="1078.2399902344"/>
			<point x="240" y="1048" type="curve" smooth="yes"/>
			<point x="241.1689147949" y="1042.6099853516"/>
			<point x="241.7179107666" y="1037.4604492188"/>
			<point x="241.7179107666" y="1032.5651855469" type="curve" smooth="yes"/>
			<point x="241.7179107666" y="993.8593139648"/>
			<point x="207.3964691162" y="971.0544433594"/>
			<point x="173.8149261475" y="971.0544433594" type="curve" smooth="yes"/>
			<point x="146.2416229248" y="971.0544433594"/>
			<point x="119.1671447754" y="986.4290771484"/>
			<point x="112" y="1021" type="curve" smooth="yes"/>
			<point x="103.9000015259" y="1059.6999511719"/>
			<point x="99.8499984741" y="1095.6099853516"/>
			<point x="99.8499984741" y="1128.7299804688" type="curve" smooth="yes"/>
			<point x="99.8499984741" y="1301.5969238281"/>
			<point x="226.5336151123" y="1406.3977050781"/>
			<point x="390.8226318359" y="1406.3977050781" type="curve" smooth="yes"/>
			<point x="445.8057861328" y="1406.3977050781"/>
			<point x="506.9166564941" y="1395.6157226562"/>
			<point x="574" y="1374" type="curve" smooth="yes"/>
			<point x="754" y="1316"/>
			<point x="856" y="1239"/>
			<point x="880" y="1142" type="curve" smooth="yes"/>
			<point x="882.7856445312" y="1130.9840087891"/>
			<point x="884.1764526367" y="1119.6793212891"/>
			<point x="884.1764526367" y="1108.0861816406" type="curve" smooth="yes"/>
			<point x="884.1764526367" y="1028.1209716797"/>
			<point x="818.0068359375" y="934.4255981445"/>
			<point x="687" y="827" type="curve" smooth="yes"/>
			<point x="621" y="773"/>
			<point x="575" y="726"/>
			<point x="547" y="685" type="curve" smooth="yes"/>
			<point x="518.6921386719" y="643.1362915039"/>
			<point x="506.4396057129" y="596.8215942383"/>
			<point x="506.4396057129" y="550.3023681641" type="curve" smooth="yes"/>
			<point x="506.4396057129" y="480.1448364258"/>
			<point x="534.3078613281" y="409.5220031738"/>
			<point x="577" y="353" type="curve" smooth="yes"/>
			<point x="586.5445556641" y="340.2739562988"/>
			<point x="590.6253051758" y="327.2326660156"/>
			<point x="590.6253051758" y="314.8724975586" type="curve" smooth="yes"/>
			<point x="590.6253051758" y="278.9747924805"/>
			<point x="556.2042236328" y="248.8221435547"/>
			<point x="521.2437133789" y="248.8221435547" type="curve" smooth="yes"/>
			<point x="503.9210205078" y="248.8221435547"/>
			<point x="486.4658813477" y="256.2250366211"/>
			<point x="473" y="274" type="curve" smooth="yes"/>
			<point x="409.6481628418" y="357.4635620117"/>
			<point x="376.9700012207" y="451.9531860352"/>
			<point x="376.9700012207" y="557.3782958984" type="curve" smooth="yes"/>
			<point x="376.9700012207" y="628.9196166992"/>
			<point x="400.9996032715" y="700.4993896484"/>
			<point x="450" y="774" type="curve" smooth="yes"/>
			<point x="477" y="814"/>
			<point x="524" y="861"/>
			<point x="591" y="916" type="curve" smooth="yes"/>
			<point x="658" y="971"/>
			<point x="708" y="1022"/>
			<point x="741" y="1067" type="curve"/>
			<point x="756" y="1084"/>
			<point x="761" y="1100"/>
			<point x="758" y="1114" type="curve" smooth="yes"/>
			<point x="743" y="1173"/>
			<point x="595" y="1231"/>
			<point x="529" y="1252" type="curve" smooth="yes"/>
			<point x="478.1751708984" y="1268.3951416016"/>
			<point x="433.0623474121" y="1276.5582275391"/>
		</contour>
		<contour>
			<point x="518" y="-131" type="curve" smooth="yes"/>
			<point x="455" y="-131"/>
			<point x="412" y="-64"/>
			<point x="412" y="2" type="curve" smooth="yes"/>
			<point x="412" y="68"/>
			<point x="455" y="135"/>
			<point x="518" y="135" type="curve" smooth="yes"/>
			<point x="581" y="135"/>
			<point x="623" y="68"/>
			<point x="623" y="2" type="curve" smooth="yes"/>
			<point x="623" y="-64"/>
			<point x="581" y="-131"/>
		</contour>
	</outline>
</glyph>
<glyph name="at" format="2">
	<unicode hex="0040"/>
	<advance width="1555"/>
	<outline>
		<contour>
			<point x="707.765625" y="-40.125" type="curve" smooth="yes"/>
			<point x="511.7406616211" y="-40.125"/>
			<point x="398.5843200684" y="86.6544418335"/>
			<point x="398.5843200684" y="285.0244445801" type="curve" smooth="yes"/>
			<point x="398.5843200684" y="421.9658813477"/>
			<point x="465.4075317383" y="533.0822753906"/>
			<point x="551" y="600" type="curve" smooth="yes"/>
			<point x="605.794128418" y="642.8823242188"/>
			<point x="675.092590332" y="664.3235473633"/>
			<point x="758.895324707" y="664.3235473633" type="curve" smooth="yes"/>
			<point x="920.7543945312" y="664.3235473633"/>
			<point x="989.1961669922" y="606.3301391602"/>
			<point x="1044" y="486" type="curve" smooth="yes"/>
			<point x="1055.7646484375" y="459.5294189453"/>
			<point x="1061.6470947266" y="430.6366882324"/>
			<point x="1061.6470947266" y="399.3218078613" type="curve" smooth="yes"/>
			<point x="1061.6470947266" y="348.401550293"/>
			<point x="1050.0297851562" y="340.4940490723"/>
			<point x="1054" y="273" type="curve" smooth="yes"/>
			<point x="1058" y="213"/>
			<point x="1092" y="117"/>
			<point x="1131" y="94" type="curve"/>
			<point x="1137.2724609375" y="88.7729644775"/>
			<point x="1144.7591552734" y="86.0959701538"/>
			<point x="1153.5025634766" y="86.0959701538" type="curve" smooth="yes"/>
			<point x="1169.8499755859" y="86.0959701538"/>
			<point x="1190.5903320312" y="95.4540786743"/>
			<point x="1216" y="115" type="curve" smooth="yes"/>
			<point x="1286.0811767578" y="167.560836792"/>
			<point x="1322.8977050781" y="282.0190124512"/>
			<point x="1322.8977050781" y="400.4492797852" type="curve" smooth="yes"/>
			<point x="1322.8977050781" y="464.528503418"/>
			<point x="1312.1193847656" y="529.7705688477"/>
			<point x="1290" y="587" type="curve" smooth="yes"/>
			<point x="1238" y="720"/>
			<point x="1127" y="806"/>
			<point x="957" y="845" type="curve" smooth="yes"/>
			<point x="879.7708129883" y="862.6458129883"/>
			<point x="808.4761352539" y="871.46875"/>
			<point x="743.1399536133" y="871.46875" type="curve" smooth="yes"/>
			<point x="523.3728027344" y="871.46875"/>
			<point x="371.0208435059" y="771.6458129883"/>
			<point x="287" y="572" type="curve" smooth="yes"/>
			<point x="260" y="507"/>
			<point x="247" y="435"/>
			<point x="230" y="356" type="curve" smooth="yes"/>
			<point x="228.875" y="351.5"/>
			<point x="228.3125" y="344.46875"/>
			<point x="228.3125" y="335.01171875" type="curve" smooth="yes"/>
			<point x="228.3125" y="162.1573181152"/>
			<point x="286.6853027344" y="25.0343418121"/>
			<point x="383" y="-78" type="curve" smooth="yes"/>
			<point x="470.6178894043" y="-171.8130950928"/>
			<point x="590.3500976562" y="-219.4128723145"/>
			<point x="742.1967163086" y="-219.4128723145" type="curve" smooth="yes"/>
			<point x="763.6157836914" y="-219.4128723145"/>
			<point x="786.0307006836" y="-216.7985839844"/>
			<point x="808.5020751953" y="-216.7985839844" type="curve" smooth="yes"/>
			<point x="848.8129882812" y="-216.7985839844"/>
			<point x="870.3271484375" y="-250.0920257568"/>
			<point x="870.3271484375" y="-283.0352478027" type="curve" smooth="yes"/>
			<point x="870.3271484375" y="-313.7549133301"/>
			<point x="851.6192626953" y="-344.1700439453"/>
			<point x="812" y="-347" type="curve" smooth="yes"/>
			<point x="789.3550415039" y="-348.7344970703"/>
			<point x="767.2486572266" y="-349.5776062012"/>
			<point x="745.6870727539" y="-349.5776062012" type="curve" smooth="yes"/>
			<point x="543.4915771484" y="-349.5776062012"/>
			<point x="389.2075195312" y="-275.4366149902"/>
			<point x="288" y="-167" type="curve" smooth="yes"/>
			<point x="182" y="-53"/>
			<point x="120" y="87"/>
			<point x="104" y="255" type="curve" smooth="yes"/>
			<point x="101.3446273804" y="281.111114502"/>
			<point x="100.0602874756" y="304.8719177246"/>
			<point x="100.0602874756" y="326.3690795898" type="curve" smooth="yes"/>
			<point x="100.0602874756" y="353.4463195801"/>
			<point x="102.0979309082" y="376.932220459"/>
			<point x="106" y="397" type="curve" smooth="yes"/>
			<point x="160.7812652588" y="759.7183837891"/>
			<point x="369.1943054199" y="999.1179199219"/>
			<point x="748.3939208984" y="999.1179199219" type="curve" smooth="yes"/>
			<point x="826.05078125" y="999.1179199219"/>
			<point x="910.8703613281" y="989.0776367188"/>
			<point x="1003" y="968" type="curve" smooth="yes"/>
			<point x="1207" y="921"/>
			<point x="1343" y="810"/>
			<point x="1411" y="634" type="curve" smooth="yes"/>
			<point x="1440.7058105469" y="557.7736816406"/>
			<point x="1455.6468505859" y="480.604888916"/>
			<point x="1455.6468505859" y="402.4936523438" type="curve" smooth="yes"/>
			<point x="1455.6468505859" y="341.2419433594"/>
			<point x="1446.4594726562" y="279.410736084"/>
			<point x="1428" y="217" type="curve" smooth="yes"/>
			<point x="1397.7364501953" y="113.1222610474"/>
			<point x="1296.5570068359" y="-43.6078567505"/>
			<point x="1160.5776367188" y="-43.6078567505" type="curve" smooth="yes"/>
			<point x="1058.2204589844" y="-43.6078567505"/>
			<point x="995.5904541016" y="27.0239200592"/>
			<point x="962" y="111" type="curve"/>
			<point x="905" y="24"/>
			<point x="840" y="-25"/>
			<point x="764" y="-36" type="curve" smooth="yes"/>
			<point x="745" y="-38.75"/>
			<point x="726.25" y="-40.125"/>
		</contour>
		<contour>
			<point x="764.9834594727" y="533.9397583008" type="curve" smooth="yes"/>
			<point x="614.639465332" y="533.9397583008"/>
			<point x="529.7952880859" y="431.104309082"/>
			<point x="529.7952880859" y="280.4730834961" type="curve" smooth="yes"/>
			<point x="529.7952880859" y="206.893447876"/>
			<point x="555.1801757812" y="140.0425415039"/>
			<point x="600" y="118" type="curve" smooth="yes"/>
			<point x="645.8333129883" y="97.1666641235"/>
			<point x="684.0277709961" y="86.75"/>
			<point x="714.5833129883" y="86.75" type="curve" smooth="yes"/>
			<point x="720.6944580078" y="86.75"/>
			<point x="726.5" y="87.1666641235"/>
			<point x="732" y="88" type="curve" smooth="yes"/>
			<point x="806" y="99"/>
			<point x="871" y="183"/>
			<point x="925" y="338" type="curve" smooth="yes"/>
			<point x="928.7117919922" y="348.3929748535"/>
			<point x="930.7366943359" y="369.8692016602"/>
			<point x="930.7366943359" y="395.1393737793" type="curve" smooth="yes"/>
			<point x="930.7366943359" y="436.3155212402"/>
			<point x="902.2478637695" y="480.9190063477"/>
			<point x="883" y="502" type="curve" smooth="yes"/>
			<point x="864.1260375977" y="523.7776489258"/>
			<point x="812.7418212891" y="533.9397583008"/>
		</contour>
	</outline>
</glyph>
<glyph name="A" format="2">
	<unicode hex="0041"/>
	<advance width="1370"/>
	<outline>
		<contour>
			<point x="163.1315460205" y="-39.417591095" type="curve" smooth="yes"/>
			<point x="132.7486114502" y="-39.417591095"/>
			<point x="97.544128418" y="-7.9263625145"/>
			<point x="100" y="24" type="curve" smooth="yes"/>
			<point x="124" y="348"/>
			<point x="176" y="637"/>
			<point x="255" y="893" type="curve" smooth="yes"/>
			<point x="334" y="1149"/>
			<point x="429" y="1319"/>
			<point x="539" y="1402" type="curve" smooth="yes"/>
			<point x="584.0975341797" y="1435.8231201172"/>
			<point x="628.1639404297" y="1452.7347412109"/>
			<point x="671.235168457" y="1452.7347412109" type="curve" smooth="yes"/>
			<point x="792.435546875" y="1452.7347412109"/>
			<point x="905.7561035156" y="1318.8231201172"/>
			<point x="1012" y="1051" type="curve" smooth="yes"/>
			<point x="1104" y="817"/>
			<point x="1185" y="508"/>
			<point x="1254" y="125" type="curve" smooth="yes"/>
			<point x="1270" y="37" type="line" smooth="yes"/>
			<point x="1270.5479736328" y="33.2552185059"/>
			<point x="1270.8103027344" y="29.6334857941"/>
			<point x="1270.8103027344" y="26.1392784119" type="curve" smooth="yes"/>
			<point x="1270.8103027344" y="-13.7423286438"/>
			<point x="1236.6411132812" y="-37.011089325"/>
			<point x="1203.1398925781" y="-37.011089325" type="curve" smooth="yes"/>
			<point x="1175.3040771484" y="-37.011089325"/>
			<point x="1147.9294433594" y="-20.9467449188"/>
			<point x="1141" y="15" type="curve" smooth="yes"/>
			<point x="1126" y="102" type="line" smooth="yes"/>
			<point x="1095" y="274"/>
			<point x="1062" y="431"/>
			<point x="1026" y="572" type="curve"/>
			<point x="787" y="572"/>
			<point x="548" y="572"/>
			<point x="309" y="572" type="curve"/>
			<point x="269" y="375"/>
			<point x="243" y="191"/>
			<point x="230" y="20" type="curve" smooth="yes"/>
			<point x="227.3639221191" y="-14.2690162659"/>
			<point x="195.6292877197" y="-39.417591095"/>
		</contour>
		<contour>
			<point x="338" y="702" type="curve"/>
			<point x="992" y="702" type="line"/>
			<point x="917" y="968"/>
			<point x="839" y="1152"/>
			<point x="760" y="1252" type="curve" smooth="yes"/>
			<point x="740" y="1278"/>
			<point x="722" y="1294"/>
			<point x="704" y="1304" type="curve" smooth="yes"/>
			<point x="686" y="1314"/>
			<point x="674" y="1318"/>
			<point x="666" y="1317" type="curve" smooth="yes"/>
			<point x="624" y="1312"/>
			<point x="582" y="1279"/>
			<point x="540" y="1216" type="curve" smooth="yes"/>
			<point x="459" y="1095"/>
			<point x="392" y="923"/>
		</contour>
	</outline>
</glyph>
<glyph name="B" format="2">
	<unicode hex="0042"/>
	<advance width="1155"/>
	<outline>
		<contour>
			<point x="257" y="654" type="curve"/>
			<point x="247" y="657"/>
			<point x="239" y="660"/>
			<point x="233" y="663" type="curve"/>
			<point x="236" y="116" type="line"/>
			<point x="316.6742858887" y="101.9696884155"/>
			<point x="392.7348937988" y="95.6288146973"/>
			<point x="464.181854248" y="95.6288146973" type="curve" smooth="yes"/>
			<point x="634.9989013672" y="95.6288146973"/>
			<point x="767.0093383789" y="132.8203277588"/>
			<point x="852" y="204" type="curve" smooth="yes"/>
			<point x="903.3260498047" y="247.0476379395"/>
			<point x="925.8687133789" y="294.0358581543"/>
			<point x="925.8687133789" y="340.425994873" type="curve" smooth="yes"/>
			<point x="925.8687133789" y="406.1110839844"/>
			<point x="880.6739501953" y="470.597076416"/>
			<point x="808" y="521" type="curve" smooth="yes"/>
			<point x="685" y="606"/>
			<point x="502" y="650"/>
		</contour>
		<contour>
			<point x="233" y="775" type="line"/>
			<point x="242" y="780"/>
			<point x="260" y="784"/>
			<point x="289" y="786" type="curve" smooth="yes"/>
			<point x="318" y="788"/>
			<point x="353" y="791"/>
			<point x="395" y="797" type="curve" smooth="yes"/>
			<point x="596" y="824"/>
			<point x="731" y="877"/>
			<point x="801" y="956" type="curve" smooth="yes"/>
			<point x="827.0990600586" y="986.0139160156"/>
			<point x="840.4263305664" y="1016.4534912109"/>
			<point x="840.4263305664" y="1047.5965576172" type="curve" smooth="yes"/>
			<point x="840.4263305664" y="1064.1842041016"/>
			<point x="836.6455078125" y="1080.9713134766"/>
			<point x="829" y="1098" type="curve" smooth="yes"/>
			<point x="764.7978515625" y="1244.3809814453"/>
			<point x="516.7102050781" y="1315.8435058594"/>
			<point x="297.9328308105" y="1315.8435058594" type="curve" smooth="yes"/>
			<point x="275.7384033203" y="1315.8435058594"/>
			<point x="253.0932617188" y="1315.2298583984"/>
			<point x="230" y="1314" type="curve"/>
		</contour>
		<contour>
			<point x="671" y="728" type="curve"/>
			<point x="856.1338500977" y="670.8599243164"/>
			<point x="1055.0200195312" y="542.3303833008"/>
			<point x="1055.0200195312" y="340.5419921875" type="curve" smooth="yes"/>
			<point x="1055.0200195312" y="250.1565551758"/>
			<point x="1015.5241699219" y="170.7984466553"/>
			<point x="935" y="104" type="curve" smooth="yes"/>
			<point x="825.9268188477" y="11.8702383041"/>
			<point x="668.7819824219" y="-34.4821434021"/>
			<point x="463.6862792969" y="-34.4821434021" type="curve" smooth="yes"/>
			<point x="367.6938781738" y="-34.4821434021"/>
			<point x="266.0357055664" y="-23.321428299"/>
			<point x="158" y="-1" type="curve" smooth="yes"/>
			<point x="131" y="5"/>
			<point x="107" y="31"/>
			<point x="106" y="61" type="curve" smooth="yes"/>
			<point x="100" y="1373" type="line" smooth="yes"/>
			<point x="100" y="1407"/>
			<point x="128" y="1435"/>
			<point x="159" y="1438" type="curve" smooth="yes"/>
			<point x="203.1456451416" y="1442.2722167969"/>
			<point x="247.4253692627" y="1444.4158935547"/>
			<point x="291.2793884277" y="1444.4158935547" type="curve" smooth="yes"/>
			<point x="586.1727294922" y="1444.4158935547"/>
			<point x="861.8164672852" y="1347.4832763672"/>
			<point x="948" y="1149" type="curve" smooth="yes"/>
			<point x="963.9398193359" y="1111.4028320312"/>
			<point x="971.0541381836" y="1075.9970703125"/>
			<point x="971.0541381836" y="1042.83984375" type="curve" smooth="yes"/>
			<point x="971.0541381836" y="884.623046875"/>
			<point x="809.0657958984" y="777.6044921875"/>
		</contour>
	</outline>
</glyph>
<glyph name="C" format="2">
	<unicode hex="0043"/>
	<advance width="1370"/>
	<outline>
		<contour>
			<point x="814.2373046875" y="-18.6302375793" type="curve" smooth="yes"/>
			<point x="406.9059753418" y="-18.6302375793"/>
			<point x="100.8023986816" y="195.7905578613"/>
			<point x="100.8023986816" y="592.3614501953" type="curve" smooth="yes"/>
			<point x="100.8023986816" y="918.1198730469"/>
			<point x="313.5281677246" y="1182.5207519531"/>
			<point x="533" y="1312" type="curve" smooth="yes"/>
			<point x="674.9694824219" y="1395.4694824219"/>
			<point x="829.1540527344" y="1437.2042236328"/>
			<point x="996.2799072266" y="1437.2042236328" type="curve" smooth="yes"/>
			<point x="1063.4158935547" y="1437.2042236328"/>
			<point x="1132.6402587891" y="1430.4694824219"/>
			<point x="1204" y="1417" type="curve" smooth="yes"/>
			<point x="1238.5667724609" y="1410.5186767578"/>
			<point x="1254.2772216797" y="1382.9406738281"/>
			<point x="1254.2772216797" y="1354.9976806641" type="curve" smooth="yes"/>
			<point x="1254.2772216797" y="1322.0617675781"/>
			<point x="1232.4508056641" y="1288.6188964844"/>
			<point x="1193.9498291016" y="1288.6188964844" type="curve" smooth="yes"/>
			<point x="1189.5181884766" y="1288.6188964844"/>
			<point x="1184.8656005859" y="1289.0620117188"/>
			<point x="1180" y="1290" type="curve" smooth="yes"/>
			<point x="1117.8443603516" y="1301.7436523438"/>
			<point x="1057.5756835938" y="1307.5803222656"/>
			<point x="999.1940917969" y="1307.5803222656" type="curve" smooth="yes"/>
			<point x="853.7515869141" y="1307.5803222656"/>
			<point x="720.0202026367" y="1271.3568115234"/>
			<point x="598" y="1200" type="curve" smooth="yes"/>
			<point x="414.4190368652" y="1092.0654296875"/>
			<point x="229.9870452881" y="864.9855957031"/>
			<point x="229.9870452881" y="594.9147949219" type="curve" smooth="yes"/>
			<point x="229.9870452881" y="268.4169311523"/>
			<point x="482.4144897461" y="110.8817367554"/>
			<point x="816.3157958984" y="110.8817367554" type="curve" smooth="yes"/>
			<point x="926.9020996094" y="110.8817367554"/>
			<point x="1051.4437255859" y="127.2148513794"/>
			<point x="1190" y="160" type="curve" smooth="yes"/>
			<point x="1195.6892089844" y="161.3345184326"/>
			<point x="1201.13671875" y="161.9586334229"/>
			<point x="1206.3197021484" y="161.9586334229" type="curve" smooth="yes"/>
			<point x="1244.7596435547" y="161.9586334229"/>
			<point x="1268.6446533203" y="127.6276397705"/>
			<point x="1268.6446533203" y="94.1652069092" type="curve" smooth="yes"/>
			<point x="1268.6446533203" y="67.9034423828"/>
			<point x="1253.9331054688" y="42.1766548157"/>
			<point x="1220" y="34" type="curve" smooth="yes"/>
			<point x="1071.126953125" y="-1.0511336327"/>
			<point x="935.8905029297" y="-18.6302375793"/>
		</contour>
	</outline>
</glyph>
<glyph name="D" format="2">
	<unicode hex="0044"/>
	<advance width="1093"/>
	<outline>
		<contour>
			<point x="106" y="53" type="curve"/>
			<point x="100" y="1366" type="line" smooth="yes"/>
			<point x="100" y="1398"/>
			<point x="124" y="1424"/>
			<point x="151" y="1430" type="curve" smooth="yes"/>
			<point x="199.9760437012" y="1440.5743408203"/>
			<point x="248.1002960205" y="1445.8830566406"/>
			<point x="295.3296508789" y="1445.8830566406" type="curve" smooth="yes"/>
			<point x="417.823425293" y="1445.8830566406"/>
			<point x="534.2974853516" y="1410.1727294922"/>
			<point x="644" y="1338" type="curve" smooth="yes"/>
			<point x="819.5014648438" y="1222.4470214844"/>
			<point x="993.4932861328" y="977.815246582"/>
			<point x="993.4932861328" y="693.2969360352" type="curve" smooth="yes"/>
			<point x="993.4932861328" y="650.3382568359"/>
			<point x="989.5267333984" y="606.4702758789"/>
			<point x="981" y="562" type="curve" smooth="yes"/>
			<point x="914" y="208"/>
			<point x="590" y="21"/>
			<point x="176" y="-10" type="curve" smooth="yes"/>
			<point x="174.3808898926" y="-10.1312799454"/>
			<point x="172.775177002" y="-10.1955366135"/>
			<point x="171.1845397949" y="-10.1955366135" type="curve" smooth="yes"/>
			<point x="136.4261169434" y="-10.1955366135"/>
			<point x="108.8687210083" y="20.4878368378"/>
		</contour>
		<contour>
			<point x="230" y="1312" type="curve"/>
			<point x="236" y="127" type="line"/>
			<point x="542" y="164"/>
			<point x="800" y="309"/>
			<point x="851" y="575" type="curve" smooth="yes"/>
			<point x="858.5855102539" y="614.6885375977"/>
			<point x="862.1160888672" y="653.5881347656"/>
			<point x="862.1160888672" y="691.4700927734" type="curve" smooth="yes"/>
			<point x="862.1160888672" y="933.2509155273"/>
			<point x="718.2952270508" y="1133.5773925781"/>
			<point x="567" y="1233" type="curve" smooth="yes"/>
			<point x="482.4717407227" y="1287.984375"/>
			<point x="391.2085876465" y="1316.029296875"/>
			<point x="294.3159790039" y="1316.029296875" type="curve" smooth="yes"/>
			<point x="273.1423034668" y="1316.029296875"/>
			<point x="251.699798584" y="1314.6900634766"/>
		</contour>
	</outline>
</glyph>
<glyph name="E" format="2">
	<unicode hex="0045"/>
	<advance width="1298"/>
	<outline>
		<contour>
			<point x="491.6403198242" y="1303.2498779297" type="curve" smooth="yes"/>
			<point x="407.6997070312" y="1303.2498779297"/>
			<point x="307.0938720703" y="1300.5714111328"/>
			<point x="244" y="1297" type="curve"/>
			<point x="248" y="1105"/>
			<point x="250" y="932"/>
			<point x="250" y="779" type="curve"/>
			<point x="975" y="774" type="line" smooth="yes"/>
			<point x="1016.3757324219" y="773.5015258789"/>
			<point x="1037.1256103516" y="740.9458007812"/>
			<point x="1037.1256103516" y="708.5419311523" type="curve" smooth="yes"/>
			<point x="1037.1256103516" y="676.1924438477"/>
			<point x="1016.4453735352" y="643.9942626953"/>
			<point x="974.9617919922" y="643.9942626953" type="curve" smooth="yes"/>
			<point x="974.6424560547" y="643.9942626953"/>
			<point x="974.3218383789" y="643.9961547852"/>
			<point x="974" y="644" type="curve" smooth="yes"/>
			<point x="249" y="649" type="line"/>
			<point x="247" y="471"/>
			<point x="243" y="330"/>
			<point x="238" y="225" type="curve" smooth="yes"/>
			<point x="233" y="129" type="line"/>
			<point x="662" y="130"/>
			<point x="938" y="135"/>
			<point x="1059" y="146" type="curve" smooth="yes"/>
			<point x="1061.1744384766" y="146.1833953857"/>
			<point x="1063.3002929688" y="146.2727508545"/>
			<point x="1065.3768310547" y="146.2727508545" type="curve" smooth="yes"/>
			<point x="1105.6467285156" y="146.2727508545"/>
			<point x="1127.4208984375" y="112.6683273315"/>
			<point x="1127.4208984375" y="79.5559921265" type="curve" smooth="yes"/>
			<point x="1127.4208984375" y="49.2013320923"/>
			<point x="1109.1225585938" y="19.2602119446"/>
			<point x="1070" y="16" type="curve" smooth="yes"/>
			<point x="939" y="4"/>
			<point x="637" y="-1"/>
			<point x="165" y="-1" type="curve" smooth="yes"/>
			<point x="132" y="-1"/>
			<point x="98" y="32"/>
			<point x="100" y="67" type="curve" smooth="yes"/>
			<point x="108" y="231" type="line" smooth="yes"/>
			<point x="115.9772720337" y="392.8246459961"/>
			<point x="120.0584106445" y="584.5196533203"/>
			<point x="120.0584106445" y="805.7150268555" type="curve" smooth="yes"/>
			<point x="120.0584106445" y="973.1279907227"/>
			<point x="112.9748764038" y="1157.8820800781"/>
			<point x="112.9748764038" y="1358.708984375" type="curve" smooth="yes"/>
			<point x="112.9748764038" y="1391.9993896484"/>
			<point x="141.5540313721" y="1421.0335693359"/>
			<point x="174" y="1423" type="curve" smooth="yes"/>
			<point x="246" y="1428" type="line" smooth="yes"/>
			<point x="316.091217041" y="1432.3038330078"/>
			<point x="389.5846252441" y="1434.3395996094"/>
			<point x="466.2478027344" y="1434.3395996094" type="curve" smooth="yes"/>
			<point x="514.2736206055" y="1434.3395996094"/>
			<point x="563.5433959961" y="1433.5406494141"/>
			<point x="614" y="1432" type="curve" smooth="yes"/>
			<point x="869" y="1424"/>
			<point x="1050" y="1397"/>
			<point x="1160" y="1348" type="curve" smooth="yes"/>
			<point x="1186.0693359375" y="1336.3745117188"/>
			<point x="1197.2458496094" y="1313.8276367188"/>
			<point x="1197.2458496094" y="1291.0710449219" type="curve" smooth="yes"/>
			<point x="1197.2458496094" y="1257.4537353516"/>
			<point x="1172.85546875" y="1223.37890625"/>
			<point x="1136.0554199219" y="1223.37890625" type="curve" smooth="yes"/>
			<point x="1127.0541992188" y="1223.37890625"/>
			<point x="1117.3106689453" y="1225.4174804688"/>
			<point x="1107" y="1230" type="curve" smooth="yes"/>
			<point x="995.548828125" y="1279.1141357422"/>
			<point x="790.4289550781" y="1303.2498779297"/>
		</contour>
	</outline>
</glyph>
<glyph name="F" format="2">
	<unicode hex="0046"/>
	<advance width="1285"/>
	<outline>
		<contour>
			<point x="251" y="1303" type="curve"/>
			<point x="272" y="1148"/>
			<point x="286" y="985"/>
			<point x="290" y="812" type="curve"/>
			<point x="291" y="812" type="line"/>
			<point x="1018" y="807" type="line" smooth="yes"/>
			<point x="1059.3757324219" y="806.5015258789"/>
			<point x="1080.1256103516" y="773.9458007812"/>
			<point x="1080.1256103516" y="741.5419311523" type="curve" smooth="yes"/>
			<point x="1080.1256103516" y="709.1924438477"/>
			<point x="1059.4454345703" y="676.9942626953"/>
			<point x="1017.9617919922" y="676.9942626953" type="curve" smooth="yes"/>
			<point x="1017.6424560547" y="676.9942626953"/>
			<point x="1017.3218383789" y="676.9961547852"/>
			<point x="1017" y="677" type="curve" smooth="yes"/>
			<point x="291" y="682" type="line"/>
			<point x="290" y="500"/>
			<point x="267" y="185"/>
			<point x="242" y="47" type="curve" smooth="yes"/>
			<point x="229" y="-23" type="line" smooth="yes"/>
			<point x="222.9362182617" y="-55.1380729675"/>
			<point x="193.3399353027" y="-74.7745132446"/>
			<point x="163.6222229004" y="-74.7745132446" type="curve" smooth="yes"/>
			<point x="128.4398040771" y="-74.7745132446"/>
			<point x="93.8127365112" y="-40.7278289795"/>
			<point x="101" y="0" type="curve" smooth="yes"/>
			<point x="114" y="70" type="line" smooth="yes"/>
			<point x="146.0360107422" y="247.6113891602"/>
			<point x="160.5378112793" y="462.7326660156"/>
			<point x="160.5378112793" y="680.2297973633" type="curve" smooth="yes"/>
			<point x="160.5378112793" y="924.3945922852"/>
			<point x="142.2618103027" y="1171.5535888672"/>
			<point x="110" y="1372" type="curve" smooth="yes"/>
			<point x="109.4586868286" y="1375.5572509766"/>
			<point x="109.1984329224" y="1379.0546875"/>
			<point x="109.1984329224" y="1382.4770507812" type="curve" smooth="yes"/>
			<point x="109.1984329224" y="1419.5882568359"/>
			<point x="139.8009643555" y="1447.8732910156"/>
			<point x="174.4713592529" y="1447.8732910156" type="curve" smooth="yes"/>
			<point x="177.9489135742" y="1447.8732910156"/>
			<point x="181.467376709" y="1447.5887451172"/>
			<point x="185" y="1447" type="curve" smooth="yes"/>
			<point x="260" y="1434" type="line" smooth="yes"/>
			<point x="418.8194274902" y="1406.3792724609"/>
			<point x="603.7247924805" y="1387.75"/>
			<point x="786.21875" y="1387.75" type="curve" smooth="yes"/>
			<point x="932.9375" y="1387.75"/>
			<point x="1033.25" y="1403.5"/>
			<point x="1088" y="1435" type="curve" smooth="yes"/>
			<point x="1098.4389648438" y="1440.9650878906"/>
			<point x="1109.4226074219" y="1443.6624755859"/>
			<point x="1120.0999755859" y="1443.6624755859" type="curve" smooth="yes"/>
			<point x="1154.2752685547" y="1443.6624755859"/>
			<point x="1185.3132324219" y="1416.029296875"/>
			<point x="1185.3132324219" y="1379.4689941406" type="curve" smooth="yes"/>
			<point x="1185.3132324219" y="1373.8352050781"/>
			<point x="1184.576171875" y="1367.9893798828"/>
			<point x="1183" y="1362" type="curve" smooth="yes"/>
			<point x="1170" y="1313"/>
			<point x="1082" y="1279"/>
			<point x="919" y="1262" type="curve" smooth="yes"/>
			<point x="883.3134155273" y="1258.2966308594"/>
			<point x="841.3928833008" y="1256.4068603516"/>
			<point x="793.2766113281" y="1256.4068603516" type="curve" smooth="yes"/>
			<point x="662.9854736328" y="1256.4068603516"/>
			<point x="390.7319641113" y="1280.6429443359"/>
		</contour>
	</outline>
</glyph>
<glyph name="G" format="2">
	<unicode hex="0047"/>
	<advance width="1851"/>
	<outline>
		<contour>
			<point x="1623" y="1255" type="curve" smooth="yes"/>
			<point x="1637.1678466797" y="1242.1813964844"/>
			<point x="1643.4841308594" y="1225.4938964844"/>
			<point x="1643.4841308594" y="1208.8911132812" type="curve" smooth="yes"/>
			<point x="1643.4841308594" y="1156.4272460938"/>
			<point x="1578.5753173828" y="1118.7766113281"/>
			<point x="1535" y="1159" type="curve" smooth="yes"/>
			<point x="1421.5816650391" y="1262.8336181641"/>
			<point x="1192.6937255859" y="1322.6484375"/>
			<point x="955.8503417969" y="1322.6484375" type="curve" smooth="yes"/>
			<point x="896.165222168" y="1322.6484375"/>
			<point x="835.9749145508" y="1318.8498535156"/>
			<point x="777" y="1311" type="curve"/>
			<point x="561" y="1267"/>
			<point x="407" y="1179"/>
			<point x="315" y="1046" type="curve" smooth="yes"/>
			<point x="254.8608093262" y="959.1718139648"/>
			<point x="229.5452880859" y="866.7718505859"/>
			<point x="229.5452880859" y="775.5144042969" type="curve" smooth="yes"/>
			<point x="229.5452880859" y="610.3248901367"/>
			<point x="312.4950256348" y="448.8788757324"/>
			<point x="422" y="331" type="curve" smooth="yes"/>
			<point x="550.4323730469" y="193.0541381836"/>
			<point x="748.0018310547" y="92.1909408569"/>
			<point x="996.2719726562" y="92.1909408569" type="curve" smooth="yes"/>
			<point x="1061.1608886719" y="92.1909408569"/>
			<point x="1129.5133056641" y="99.0810470581"/>
			<point x="1201" y="114" type="curve" smooth="yes"/>
			<point x="1358" y="154"/>
			<point x="1536" y="268"/>
			<point x="1595" y="392" type="curve" smooth="yes"/>
			<point x="1612.0385742188" y="428.1217041016"/>
			<point x="1620.7160644531" y="466.1014099121"/>
			<point x="1620.7160644531" y="505.6225280762" type="curve" smooth="yes"/>
			<point x="1620.7160644531" y="624.5584716797"/>
			<point x="1551.2290039062" y="642.4166870117"/>
			<point x="1434" y="670" type="curve" smooth="yes"/>
			<point x="1384.0870361328" y="681.7442016602"/>
			<point x="1322.3210449219" y="687.0231323242"/>
			<point x="1249.0974121094" y="687.0231323242" type="curve" smooth="yes"/>
			<point x="1136.251953125" y="687.0231323242"/>
			<point x="976.9569702148" y="674.098449707"/>
			<point x="913" y="664" type="curve" smooth="yes"/>
			<point x="871" y="658" type="line" smooth="yes"/>
			<point x="867.3366699219" y="657.4639282227"/>
			<point x="863.7930908203" y="657.2072143555"/>
			<point x="860.3733520508" y="657.2072143555" type="curve" smooth="yes"/>
			<point x="820.7596435547" y="657.2072143555"/>
			<point x="797.7651367188" y="691.6501464844"/>
			<point x="797.7651367188" y="725.194152832" type="curve" smooth="yes"/>
			<point x="797.7651367188" y="753.5729370117"/>
			<point x="814.2232666016" y="781.3083496094"/>
			<point x="851" y="787" type="curve" smooth="yes"/>
			<point x="893" y="793" type="line" smooth="yes"/>
			<point x="960.4307250977" y="802.9487915039"/>
			<point x="1120.5141601562" y="817.9428710938"/>
			<point x="1241.8442382812" y="817.9428710938" type="curve" smooth="yes"/>
			<point x="1414.7883300781" y="817.9428710938"/>
			<point x="1565.7532958984" y="787.7171630859"/>
			<point x="1659" y="718" type="curve" smooth="yes"/>
			<point x="1722.6854248047" y="670.2359619141"/>
			<point x="1751.0888671875" y="602.6773071289"/>
			<point x="1751.0888671875" y="501.9789428711" type="curve" smooth="yes"/>
			<point x="1751.0888671875" y="363.3864135742"/>
			<point x="1677.2008056641" y="239.7769165039"/>
			<point x="1530" y="130" type="curve" smooth="yes"/>
			<point x="1440" y="63"/>
			<point x="1340" y="16"/>
			<point x="1230" y="-12" type="curve" smooth="yes"/>
			<point x="1149.947265625" y="-28.6343212128"/>
			<point x="1071.7861328125" y="-37.1621780396"/>
			<point x="995.3760375977" y="-37.1621780396" type="curve" smooth="yes"/>
			<point x="924.7934570312" y="-37.1621780396"/>
			<point x="855.7050170898" y="-29.8854999542"/>
			<point x="788" y="-15" type="curve" smooth="yes"/>
			<point x="601" y="26"/>
			<point x="448" y="112"/>
			<point x="327" y="242" type="curve" smooth="yes"/>
			<point x="195.583190918" y="383.5257873535"/>
			<point x="100.4923095703" y="577.344909668"/>
			<point x="100.4923095703" y="776.2940673828" type="curve" smooth="yes"/>
			<point x="100.4923095703" y="892.2318115234"/>
			<point x="132.7849884033" y="1009.9116821289"/>
			<point x="209" y="1120" type="curve" smooth="yes"/>
			<point x="321" y="1282"/>
			<point x="502" y="1388"/>
			<point x="753" y="1439" type="curve"/>
			<point x="754" y="1439"/>
			<point x="756" y="1440"/>
			<point x="757" y="1440" type="curve"/>
			<point x="822.4627075195" y="1448.6641845703"/>
			<point x="888.5556030273" y="1452.8427734375"/>
			<point x="953.8154907227" y="1452.8427734375" type="curve" smooth="yes"/>
			<point x="1227.5024414062" y="1452.8427734375"/>
			<point x="1486.5388183594" y="1379.3492431641"/>
		</contour>
	</outline>
</glyph>
<glyph name="H" format="2">
	<unicode hex="0048"/>
	<advance width="1110"/>
	<outline>
		<contour>
			<point x="934.0832519531" y="1450.9188232422" type="curve" smooth="yes"/>
			<point x="965.966796875" y="1450.9188232422"/>
			<point x="998" y="1420.5673828125"/>
			<point x="998" y="1387" type="curve" smooth="yes"/>
			<point x="1011" y="33" type="line" smooth="yes"/>
			<point x="1011.5045166016" y="-8.8727045059"/>
			<point x="978.6680908203" y="-30.1300525665"/>
			<point x="945.8743286133" y="-30.1300525665" type="curve" smooth="yes"/>
			<point x="913.6643676758" y="-30.1300525665"/>
			<point x="881.4954833984" y="-9.6228055954"/>
			<point x="881" y="32" type="curve" smooth="yes"/>
			<point x="875" y="632" type="line"/>
			<point x="237" y="640" type="line"/>
			<point x="243" y="21" type="line" smooth="yes"/>
			<point x="243.5074768066" y="-21.1210632324"/>
			<point x="210.2774047852" y="-42.6390304565"/>
			<point x="177.2908172607" y="-42.6390304565" type="curve" smooth="yes"/>
			<point x="145.2769927979" y="-42.6390304565"/>
			<point x="113.492515564" y="-22.3714542389"/>
			<point x="113" y="19" type="curve" smooth="yes"/>
			<point x="100" y="1373" type="line" smooth="yes"/>
			<point x="99.4955062866" y="1414.8726806641"/>
			<point x="132.3319091797" y="1436.1300048828"/>
			<point x="165.1256713867" y="1436.1300048828" type="curve" smooth="yes"/>
			<point x="197.335647583" y="1436.1300048828"/>
			<point x="229.504486084" y="1415.6228027344"/>
			<point x="230" y="1374" type="curve" smooth="yes"/>
			<point x="236" y="770" type="line"/>
			<point x="874" y="762" type="line"/>
			<point x="872" y="970"/>
			<point x="870" y="1178"/>
			<point x="868" y="1386" type="curve" smooth="yes"/>
			<point x="868" y="1420.8946533203"/>
			<point x="899.6586303711" y="1450.9188232422"/>
		</contour>
	</outline>
</glyph>
<glyph name="I" format="2">
	<unicode hex="0049"/>
	<advance width="342"/>
	<outline>
		<contour>
			<point x="166.5852966309" y="1455.7022705078" type="curve" smooth="yes"/>
			<point x="198.8845825195" y="1455.7022705078"/>
			<point x="230" y="1424.8143310547"/>
			<point x="230" y="1391" type="curve" smooth="yes"/>
			<point x="243" y="38" type="line" smooth="yes"/>
			<point x="243.5074768066" y="-4.1210627556"/>
			<point x="210.2774047852" y="-25.6390323639"/>
			<point x="177.2908172607" y="-25.6390323639" type="curve" smooth="yes"/>
			<point x="145.2769927979" y="-25.6390323639"/>
			<point x="113.492515564" y="-5.3714547157"/>
			<point x="113" y="36" type="curve" smooth="yes"/>
			<point x="100" y="1390" type="line" smooth="yes"/>
			<point x="100" y="1425.0642089844"/>
			<point x="131.9670562744" y="1455.7022705078"/>
		</contour>
	</outline>
</glyph>
<glyph name="J" format="2">
	<unicode hex="004A"/>
	<advance width="993"/>
	<outline>
		<contour>
			<point x="893.4802246094" y="545.7033691406" type="curve" smooth="yes"/>
			<point x="893.4802246094" y="193.8070983887"/>
			<point x="790.0213012695" y="-23.4226779938"/>
			<point x="465.7569274902" y="-23.4226779938" type="curve" smooth="yes"/>
			<point x="373.9069824219" y="-23.4226779938"/>
			<point x="267.2821960449" y="-4.9288721085"/>
			<point x="146" y="32" type="curve" smooth="yes"/>
			<point x="115.1639709473" y="41.2508087158"/>
			<point x="102.0080108643" y="65.3588180542"/>
			<point x="102.0080108643" y="90.1217727661" type="curve" smooth="yes"/>
			<point x="102.0080108643" y="123.9819869995"/>
			<point x="126.6058425903" y="159.0667724609"/>
			<point x="164.2352294922" y="159.0667724609" type="curve" smooth="yes"/>
			<point x="170.4819946289" y="159.0667724609"/>
			<point x="177.087890625" y="158.0998840332"/>
			<point x="184" y="156" type="curve" smooth="yes"/>
			<point x="293.5442810059" y="122.4923400879"/>
			<point x="386.8487243652" y="105.7781448364"/>
			<point x="463.9925842285" y="105.7781448364" type="curve" smooth="yes"/>
			<point x="566.4262084961" y="105.7781448364"/>
			<point x="640.3668212891" y="135.2472991943"/>
			<point x="686" y="194" type="curve" smooth="yes"/>
			<point x="738.1470947266" y="261.0462341309"/>
			<point x="763.4131469727" y="378.3859558105"/>
			<point x="763.4131469727" y="546.0191650391" type="curve" smooth="yes"/>
			<point x="763.4131469727" y="691.3582763672"/>
			<point x="704.9942626953" y="1222.2016601562"/>
			<point x="704.9942626953" y="1372.9504394531" type="curve" smooth="yes"/>
			<point x="704.9942626953" y="1414.4447021484"/>
			<point x="737.9716186523" y="1435.6390380859"/>
			<point x="770.7091674805" y="1435.6390380859" type="curve" smooth="yes"/>
			<point x="802.7230224609" y="1435.6390380859"/>
			<point x="834.5075073242" y="1415.3714599609"/>
			<point x="835" y="1374" type="curve" smooth="yes"/>
			<point x="837.3673706055" y="1223.6700439453"/>
			<point x="893.4802246094" y="692.3096313477"/>
		</contour>
	</outline>
</glyph>
<glyph name="K" format="2">
	<unicode hex="004B"/>
	<advance width="1211"/>
	<outline>
		<contour>
			<point x="1111.0125732422" y="50.1584777832" type="curve" smooth="yes"/>
			<point x="1111.0125732422" y="11.2018194199"/>
			<point x="1078.5344238281" y="-11.5320358276"/>
			<point x="1046.3488769531" y="-11.5320358276" type="curve" smooth="yes"/>
			<point x="1020.3107299805" y="-11.5320358276"/>
			<point x="994.5156860352" y="2.7273697853"/>
			<point x="986" y="32" type="curve" smooth="yes"/>
			<point x="974" y="72"/>
			<point x="920" y="139"/>
			<point x="824" y="231" type="curve" smooth="yes"/>
			<point x="672" y="377"/>
			<point x="480" y="536"/>
			<point x="246" y="708" type="curve"/>
			<point x="237" y="327"/>
			<point x="231" y="102"/>
			<point x="230" y="33" type="curve" smooth="yes"/>
			<point x="229.504486084" y="-8.1272554398"/>
			<point x="197.0901794434" y="-28.6300525665"/>
			<point x="164.7541656494" y="-28.6300525665" type="curve" smooth="yes"/>
			<point x="132.3263702393" y="-28.6300525665"/>
			<point x="99.9773330688" y="-8.0107164383"/>
			<point x="99.9773330688" y="33.105255127" type="curve" smooth="yes"/>
			<point x="99.9773330688" y="138.6407012939"/>
			<point x="112.951965332" y="583.9950561523"/>
			<point x="132" y="1379" type="curve" smooth="yes"/>
			<point x="132.6870117188" y="1413.3509521484"/>
			<point x="164.9976196289" y="1442.0378417969"/>
			<point x="199.0991363525" y="1442.0378417969" type="curve" smooth="yes"/>
			<point x="232.1774749756" y="1442.0378417969"/>
			<point x="262" y="1411.5148925781"/>
			<point x="262" y="1376" type="curve"/>
			<point x="257" y="1178"/>
			<point x="253" y="1000"/>
			<point x="249" y="845" type="curve"/>
			<point x="286" y="874" type="line" smooth="yes"/>
			<point x="467" y="1013"/>
			<point x="609" y="1131"/>
			<point x="713" y="1227" type="curve" smooth="yes"/>
			<point x="817" y="1323"/>
			<point x="877" y="1382"/>
			<point x="891" y="1404" type="curve" smooth="yes"/>
			<point x="905.7861328125" y="1427.2353515625"/>
			<point x="928.0086669922" y="1446.0089111328"/>
			<point x="953.8279418945" y="1446.0089111328" type="curve" smooth="yes"/>
			<point x="989.1049194336" y="1446.0089111328"/>
			<point x="1017.1865234375" y="1414.0129394531"/>
			<point x="1017.1865234375" y="1379.6414794922" type="curve" smooth="yes"/>
			<point x="1017.1865234375" y="1368.0656738281"/>
			<point x="1014.0855102539" y="1356.1343994141"/>
			<point x="1007" y="1345" type="curve" smooth="yes"/>
			<point x="957" y="1267"/>
			<point x="794" y="1116"/>
			<point x="519" y="893" type="curve" smooth="yes"/>
			<point x="461" y="846"/>
			<point x="412" y="807"/>
			<point x="372" y="776" type="curve"/>
			<point x="588" y="615"/>
			<point x="772" y="462"/>
			<point x="922" y="317" type="curve" smooth="yes"/>
			<point x="1047.8116455078" y="195.3820648193"/>
			<point x="1111.0125732422" y="106.8282470703"/>
		</contour>
	</outline>
</glyph>
<glyph name="L" format="2">
	<unicode hex="004C"/>
	<advance width="1267"/>
	<outline>
		<contour>
			<point x="167.4884338379" y="1449.8427734375" type="curve" smooth="yes"/>
			<point x="199.3650970459" y="1449.8427734375"/>
			<point x="230" y="1420.5833740234"/>
			<point x="230" y="1387" type="curve" smooth="yes"/>
			<point x="245" y="817"/>
			<point x="262" y="392"/>
			<point x="284" y="116" type="curve"/>
			<point x="287.4708557129" y="115.8979187012"/>
			<point x="291.0876159668" y="115.8479385376"/>
			<point x="294.8502807617" y="115.8479385376" type="curve" smooth="yes"/>
			<point x="398.1501464844" y="115.8479385376"/>
			<point x="519.2759399414" y="137.4315032959"/>
			<point x="631" y="148" type="curve" smooth="yes"/>
			<point x="694.6666870117" y="154.3333282471"/>
			<point x="755.2222290039" y="157.555557251"/>
			<point x="812.6666870117" y="157.555557251" type="curve" smooth="yes"/>
			<point x="927.5555419922" y="157.555557251"/>
			<point x="1030" y="144.6666717529"/>
			<point x="1120" y="118" type="curve" smooth="yes"/>
			<point x="1148.3604736328" y="109.4918441772"/>
			<point x="1165.4605712891" y="81.3583145142"/>
			<point x="1165.4605712891" y="53.4905014038" type="curve" smooth="yes"/>
			<point x="1165.4605712891" y="18.2471618652"/>
			<point x="1128.7509765625" y="-20.1620559692"/>
			<point x="1084" y="-7" type="curve" smooth="yes"/>
			<point x="1004.9146118164" y="16.2604141235"/>
			<point x="913.0207519531" y="28.0373840332"/>
			<point x="808.905456543" y="28.0373840332" type="curve" smooth="yes"/>
			<point x="686.4326782227" y="28.0373840332"/>
			<point x="547.6184082031" y="9.6145734787"/>
			<point x="437" y="-4" type="curve" smooth="yes"/>
			<point x="381.8384094238" y="-10.5789060593"/>
			<point x="342.043182373" y="-15.8772792816"/>
			<point x="306.3385009766" y="-15.8772792816" type="curve" smooth="yes"/>
			<point x="271.4902954102" y="-15.8772792816"/>
			<point x="240.5386962891" y="-10.8300485611"/>
			<point x="203" y="3" type="curve" smooth="yes"/>
			<point x="176" y="13"/>
			<point x="160" y="37"/>
			<point x="157" y="74" type="curve" smooth="yes"/>
			<point x="134.1744995117" y="348.8984375"/>
			<point x="99.9887695312" y="789.7728271484"/>
			<point x="99.9887695312" y="1384.1235351562" type="curve" smooth="yes"/>
			<point x="99.9887695312" y="1419.0913085938"/>
			<point x="132.5973815918" y="1449.8427734375"/>
		</contour>
	</outline>
</glyph>
<glyph name="M" format="2">
	<unicode hex="004D"/>
	<advance width="1497"/>
	<outline>
		<contour>
			<point x="1325.8842773438" y="1449.6141357422" type="curve" smooth="yes"/>
			<point x="1364.6746826172" y="1449.6141357422"/>
			<point x="1389" y="1413.5666503906"/>
			<point x="1389" y="1384" type="curve" smooth="yes"/>
			<point x="1398" y="12" type="line" smooth="yes"/>
			<point x="1398.5014648438" y="-29.6242485046"/>
			<point x="1366.056640625" y="-50.6255607605"/>
			<point x="1333.4581298828" y="-50.6255607605" type="curve" smooth="yes"/>
			<point x="1301.0541992188" y="-50.6255607605"/>
			<point x="1268.4985351562" y="-29.8742542267"/>
			<point x="1268" y="12" type="curve" smooth="yes"/>
			<point x="1261" y="1142" type="line"/>
			<point x="1138" y="937"/>
			<point x="1047" y="797"/>
			<point x="987" y="722" type="curve" smooth="yes"/>
			<point x="927" y="647"/>
			<point x="880" y="601"/>
			<point x="847" y="584" type="curve" smooth="yes"/>
			<point x="831.98046875" y="575.6913452148"/>
			<point x="816.450378418" y="571.5696411133"/>
			<point x="800.3444213867" y="571.5696411133" type="curve" smooth="yes"/>
			<point x="766.0504760742" y="571.5696411133"/>
			<point x="729.1457519531" y="590.2564697266"/>
			<point x="689" y="627" type="curve" smooth="yes"/>
			<point x="544" y="761"/>
			<point x="398" y="967"/>
			<point x="281" y="1121" type="curve" smooth="yes"/>
			<point x="233" y="1187" type="line"/>
			<point x="247" y="27" type="line" smooth="yes"/>
			<point x="247.5074768066" y="-15.1210622787"/>
			<point x="214.2774047852" y="-36.6390304565"/>
			<point x="181.2908172607" y="-36.6390304565" type="curve" smooth="yes"/>
			<point x="149.2769927979" y="-36.6390304565"/>
			<point x="117.492515564" y="-16.3714542389"/>
			<point x="117" y="25" type="curve" smooth="yes"/>
			<point x="100" y="1387" type="line" smooth="yes"/>
			<point x="99.3503646851" y="1427.2774658203"/>
			<point x="132.0408935547" y="1451.9399414062"/>
			<point x="165.720199585" y="1451.9399414062" type="curve" smooth="yes"/>
			<point x="183.8842010498" y="1451.9399414062"/>
			<point x="202.3358154297" y="1444.7663574219"/>
			<point x="216" y="1429" type="curve"/>
			<point x="386" y="1198" type="line" smooth="yes"/>
			<point x="594" y="923"/>
			<point x="732" y="761"/>
			<point x="801" y="710" type="curve"/>
			<point x="850" y="750"/>
			<point x="906" y="820"/>
			<point x="970" y="920" type="curve" smooth="yes"/>
			<point x="1082" y="1095"/>
			<point x="1168" y="1237"/>
			<point x="1228" y="1345" type="curve" smooth="yes"/>
			<point x="1267" y="1416" type="line" smooth="yes"/>
			<point x="1276.6555175781" y="1433.0828857422"/>
			<point x="1300.6541748047" y="1449.6141357422"/>
		</contour>
	</outline>
</glyph>
<glyph name="N" format="2">
	<unicode hex="004E"/>
	<advance width="1264"/>
	<outline>
		<contour>
			<point x="200.9043121338" y="-33.0246315002" type="curve" smooth="yes"/>
			<point x="168.9432830811" y="-33.0246315002"/>
			<point x="138" y="-3.7622175217"/>
			<point x="138" y="30" type="curve" smooth="yes"/>
			<point x="100" y="1369" type="line" smooth="yes"/>
			<point x="98.7245101929" y="1409.1779785156"/>
			<point x="132.4269714355" y="1434.7141113281"/>
			<point x="166.3498840332" y="1434.7141113281" type="curve" smooth="yes"/>
			<point x="185.6188049316" y="1434.7141113281"/>
			<point x="204.9588775635" y="1426.4749755859"/>
			<point x="218" y="1408" type="curve" smooth="yes"/>
			<point x="1027" y="243" type="line"/>
			<point x="991" y="1396" type="line" smooth="yes"/>
			<point x="989.4595947266" y="1438.6173095703"/>
			<point x="1022.9836425781" y="1460.6704101562"/>
			<point x="1056.3758544922" y="1460.6704101562" type="curve" smooth="yes"/>
			<point x="1088.0173339844" y="1460.6704101562"/>
			<point x="1119.5404052734" y="1440.8692626953"/>
			<point x="1121" y="1400" type="curve" smooth="yes"/>
			<point x="1164" y="28" type="line" smooth="yes"/>
			<point x="1165.2639160156" y="-13.0773773193"/>
			<point x="1131.7823486328" y="-37.7804603577"/>
			<point x="1098.1325683594" y="-37.7804603577" type="curve" smooth="yes"/>
			<point x="1078.5355224609" y="-37.7804603577"/>
			<point x="1058.8814697266" y="-29.4020175934"/>
			<point x="1046" y="-11" type="curve" smooth="yes"/>
			<point x="236" y="1155" type="line"/>
			<point x="268" y="34" type="line" smooth="yes"/>
			<point x="268.7059631348" y="-2.004253149"/>
			<point x="236.0199584961" y="-33.0246315002"/>
		</contour>
	</outline>
</glyph>
<glyph name="O" format="2">
	<unicode hex="004F"/>
	<advance width="1702"/>
	<outline>
		<contour>
			<point x="809.3377112747" y="1282.3607905654"/>
			<point x="579.2941176471" y="1248.5882352941"/>
			<point x="444" y="1138" type="curve" smooth="yes"/>
			<point x="329" y="1044"/>
			<point x="260" y="925"/>
			<point x="237" y="779" type="curve" smooth="yes"/>
			<point x="232.7627258301" y="751.6342773438"/>
			<point x="230.8009338379" y="724.4867553711"/>
			<point x="230.8009338379" y="697.8435668945" type="curve" smooth="yes"/>
			<point x="230.8009338379" y="573.5794067383"/>
			<point x="273.4759521484" y="460.2867736816"/>
			<point x="327" y="387" type="curve" smooth="yes"/>
			<point x="433.1817932129" y="240.8938293457"/>
			<point x="614.4071655273" y="130.144744873"/>
			<point x="845.5454711914" y="130.144744873" type="curve" smooth="yes"/>
			<point x="886.5092163086" y="130.144744873"/>
			<point x="929.0407104492" y="133.6232757568"/>
			<point x="973" y="141" type="curve" smooth="yes"/>
			<point x="1242.0546875" y="185.5198364258"/>
			<point x="1471.7687988281" y="381.7819213867"/>
			<point x="1471.7687988281" y="671.7676391602" type="curve" smooth="yes"/>
			<point x="1471.7687988281" y="1042.2782640185"/>
			<point x="1081.6374862107" y="1286.0909244686"/>
			<point x="856" y="1283" type="curve" smooth="yes"/>
		</contour>
		<contour>
			<point x="1601.0852050781" y="677.7203369141" type="curve" smooth="yes"/>
			<point x="1601.0852050781" y="274.9063110352"/>
			<point x="1263.37109375" y="1.1761052608"/>
			<point x="849.6856689453" y="1.1761052608" type="curve" smooth="yes"/>
			<point x="755.7608642578" y="1.1761052608"/>
			<point x="659.0191650391" y="16.6146011353"/>
			<point x="564" y="51" type="curve" smooth="yes"/>
			<point x="354" y="127"/>
			<point x="177" y="297"/>
			<point x="120" y="539" type="curve" smooth="yes"/>
			<point x="106.8968353271" y="594.2204589844"/>
			<point x="100.3148880005" y="648.6622924805"/>
			<point x="100.3148880005" y="702.2951049805" type="curve" smooth="yes"/>
			<point x="100.3148880005" y="927.5396728516"/>
			<point x="228.2743530273" y="1130.5994873047"/>
			<point x="368" y="1244" type="curve" smooth="yes"/>
			<point x="501" y="1353"/>
			<point x="711" y="1412"/>
			<point x="863" y="1413" type="curve" smooth="yes"/>
			<point x="1063.9956502451" y="1414.3223398042"/>
			<point x="1328" y="1266"/>
			<point x="1451" y="1107" type="curve" smooth="yes"/>
			<point x="1548.4401855469" y="980.2745361328"/>
			<point x="1601.0852050781" y="829.7340087891"/>
		</contour>
	</outline>
</glyph>
<glyph name="P" format="2">
	<unicode hex="0050"/>
	<advance width="983"/>
	<outline>
		<contour>
			<point x="231" y="757" type="line"/>
			<point x="250.0766601562" y="756.2213745117"/>
			<point x="268.6796875" y="755.8311157227"/>
			<point x="286.8108825684" y="755.8311157227" type="curve" smooth="yes"/>
			<point x="454.965637207" y="755.8311157227"/>
			<point x="582.5383300781" y="789.3970947266"/>
			<point x="671" y="858" type="curve" smooth="yes"/>
			<point x="727.8532104492" y="902.0153808594"/>
			<point x="754.014831543" y="952.3372802734"/>
			<point x="754.014831543" y="1002.7008056641" type="curve" smooth="yes"/>
			<point x="754.014831543" y="1062.1828613281"/>
			<point x="717.522277832" y="1121.7229003906"/>
			<point x="652" y="1171" type="curve" smooth="yes"/>
			<point x="554" y="1244"/>
			<point x="413" y="1288"/>
			<point x="230" y="1302" type="curve"/>
		</contour>
		<contour>
			<point x="232" y="627" type="curve"/>
			<point x="233" y="18" type="line" smooth="yes"/>
			<point x="233" y="-23.6242485046"/>
			<point x="200.3050994873" y="-44.6255607605"/>
			<point x="167.7080993652" y="-44.6255607605" type="curve" smooth="yes"/>
			<point x="135.3056793213" y="-44.6255607605"/>
			<point x="103" y="-23.8742542267"/>
			<point x="103" y="18" type="curve" smooth="yes"/>
			<point x="100" y="1371" type="line" smooth="yes"/>
			<point x="100" y="1405.4493408203"/>
			<point x="131.0009918213" y="1436.0235595703"/>
			<point x="165.3503417969" y="1436.0235595703" type="curve" smooth="yes"/>
			<point x="165.8994140625" y="1436.0235595703"/>
			<point x="166.4493408203" y="1436.0157470703"/>
			<point x="167" y="1436" type="curve" smooth="yes"/>
			<point x="411" y="1428"/>
			<point x="599" y="1374"/>
			<point x="730" y="1275" type="curve" smooth="yes"/>
			<point x="832.2026367188" y="1198.3480224609"/>
			<point x="884.1406860352" y="1110.0455322266"/>
			<point x="884.1406860352" y="1002.6628417969" type="curve" smooth="yes"/>
			<point x="884.1406860352" y="906.6977539062"/>
			<point x="839.1544189453" y="824.7797851562"/>
			<point x="751" y="756" type="curve" smooth="yes"/>
			<point x="639.5576782227" y="669.2211303711"/>
			<point x="486.3947753906" y="625.8317260742"/>
			<point x="289.2246704102" y="625.8317260742" type="curve" smooth="yes"/>
			<point x="270.5454101562" y="625.8317260742"/>
			<point x="251.4711608887" y="626.2211303711"/>
		</contour>
	</outline>
</glyph>
<glyph name="Q" format="2">
	<unicode hex="0051"/>
	<advance width="1796"/>
	<outline>
		<contour>
			<point x="1193" y="1182" type="curve" smooth="yes"/>
			<point x="1093.7175292969" y="1267.7438964844"/>
			<point x="924.6318359375" y="1351.7408447266"/>
			<point x="773.6022338867" y="1351.7408447266" type="curve" smooth="yes"/>
			<point x="701.4965209961" y="1351.7408447266"/>
			<point x="631.6585083008" y="1335.4938964844"/>
			<point x="564" y="1303" type="curve" smooth="yes"/>
			<point x="434" y="1241"/>
			<point x="338" y="1141"/>
			<point x="278" y="1006" type="curve" smooth="yes"/>
			<point x="246.7219696045" y="935.8478393555"/>
			<point x="231.2167816162" y="862.7008666992"/>
			<point x="231.2167816162" y="786.5590820312" type="curve" smooth="yes"/>
			<point x="231.2167816162" y="692.2960205078"/>
			<point x="254.9804534912" y="593.4429931641"/>
			<point x="302" y="490" type="curve" smooth="yes"/>
			<point x="385" y="308"/>
			<point x="563" y="112"/>
			<point x="812" y="112" type="curve" smooth="yes"/>
			<point x="1014" y="112"/>
			<point x="1175" y="203"/>
			<point x="1294" y="386" type="curve" smooth="yes"/>
			<point x="1367.0893554688" y="498.6793518066"/>
			<point x="1408.1579589844" y="631.7299194336"/>
			<point x="1408.1579589844" y="784.5864257812" type="curve" smooth="yes"/>
			<point x="1408.1579589844" y="927.2034912109"/>
			<point x="1336.130859375" y="1060.2900390625"/>
		</contour>
		<contour>
			<point x="507" y="1420" type="curve" smooth="yes"/>
			<point x="593.9826049805" y="1461.4420166016"/>
			<point x="683.2465209961" y="1482.3518066406"/>
			<point x="774.7917480469" y="1482.3518066406" type="curve" smooth="yes"/>
			<point x="1044.9149169922" y="1482.3518066406"/>
			<point x="1285.8615722656" y="1308.6368408203"/>
			<point x="1413" y="1137" type="curve" smooth="yes"/>
			<point x="1496.0421142578" y="1025.4122314453"/>
			<point x="1537.8361816406" y="900.776550293"/>
			<point x="1537.8361816406" y="763.0930786133" type="curve" smooth="yes"/>
			<point x="1537.8361816406" y="688.5530395508"/>
			<point x="1525.5863037109" y="610.188659668"/>
			<point x="1501" y="528" type="curve" smooth="yes"/>
			<point x="1455" y="375"/>
			<point x="1371" y="246"/>
			<point x="1250" y="140" type="curve" smooth="yes"/>
			<point x="1129" y="34"/>
			<point x="983" y="-18"/>
			<point x="812" y="-18" type="curve" smooth="yes"/>
			<point x="608" y="-18"/>
			<point x="434" y="75"/>
			<point x="288" y="263" type="curve" smooth="yes"/>
			<point x="207" y="367"/>
			<point x="150" y="492"/>
			<point x="117" y="636" type="curve" smooth="yes"/>
			<point x="105.5738296509" y="685.8596801758"/>
			<point x="99.9022521973" y="735.3596801758"/>
			<point x="99.9022521973" y="784.5" type="curve" smooth="yes"/>
			<point x="99.9022521973" y="877.2821655273"/>
			<point x="120.1211090088" y="968.7821655273"/>
			<point x="160" y="1059" type="curve" smooth="yes"/>
			<point x="233" y="1224"/>
			<point x="348" y="1344"/>
		</contour>
		<contour>
			<point x="1556.8533935547" y="114.0064086914" type="curve" smooth="yes"/>
			<point x="1582.4975585938" y="114.0064086914"/>
			<point x="1607.4530029297" y="117.3570632935"/>
			<point x="1632.2913818359" y="117.3570632935" type="curve" smooth="yes"/>
			<point x="1672.2395019531" y="117.3570632935"/>
			<point x="1693.9744873047" y="84.1138305664"/>
			<point x="1693.9744873047" y="51.2815971375" type="curve" smooth="yes"/>
			<point x="1693.9744873047" y="21.3208656311"/>
			<point x="1675.8751220703" y="-8.2976112366"/>
			<point x="1637" y="-12" type="curve" smooth="yes"/>
			<point x="1608.1639404297" y="-14.678276062"/>
			<point x="1579.6466064453" y="-15.9697408676"/>
			<point x="1551.5100097656" y="-15.9697408676" type="curve" smooth="yes"/>
			<point x="1264.4820556641" y="-15.9697408676"/>
			<point x="1017.0729370117" y="118.4267578125"/>
			<point x="875" y="286" type="curve" smooth="yes"/>
			<point x="791.8222045898" y="383.335723877"/>
			<point x="750.9261474609" y="497.1143798828"/>
			<point x="750.9261474609" y="627.3358764648" type="curve" smooth="yes"/>
			<point x="750.9261474609" y="644.2789306641"/>
			<point x="751.6184692383" y="661.5003051758"/>
			<point x="753" y="679" type="curve" smooth="yes"/>
			<point x="755.6361083984" y="713.2690429688"/>
			<point x="787.3707275391" y="738.4176025391"/>
			<point x="819.8684692383" y="738.4176025391" type="curve" smooth="yes"/>
			<point x="854.8334960938" y="738.4176025391"/>
			<point x="884.1166381836" y="706.0999145508"/>
			<point x="882" y="668" type="curve" smooth="yes"/>
			<point x="881.0401611328" y="655.5961303711"/>
			<point x="880.5600585938" y="643.3503417969"/>
			<point x="880.5600585938" y="631.2617797852" type="curve" smooth="yes"/>
			<point x="880.5600585938" y="331.6533813477"/>
			<point x="1214.716796875" y="114.0064086914"/>
		</contour>
	</outline>
</glyph>
<glyph name="R" format="2">
	<unicode hex="0052"/>
	<advance width="1372"/>
	<outline>
		<contour>
			<point x="174.8704528809" y="-37.9707221985" type="curve" smooth="yes"/>
			<point x="141.4387359619" y="-37.9707221985"/>
			<point x="109.974357605" y="-6.4615273476"/>
			<point x="112" y="30" type="curve" smooth="yes"/>
			<point x="115.3954315186" y="95.3620529175"/>
			<point x="117.1696014404" y="195.1308135986"/>
			<point x="117.1696014404" y="329.1534118652" type="curve" smooth="yes"/>
			<point x="117.1696014404" y="510.9023742676"/>
			<point x="113.9068527222" y="755.6450195312"/>
			<point x="107" y="1063" type="curve" smooth="yes"/>
			<point x="100" y="1371" type="line" smooth="yes"/>
			<point x="99" y="1404"/>
			<point x="127" y="1433"/>
			<point x="156" y="1437" type="curve" smooth="yes"/>
			<point x="292.0283203125" y="1455.0531005859"/>
			<point x="413.0740356445" y="1464.1166992188"/>
			<point x="519.1371459961" y="1464.1166992188" type="curve" smooth="yes"/>
			<point x="665.701171875" y="1464.1166992188"/>
			<point x="783.655456543" y="1446.8095703125"/>
			<point x="873" y="1412" type="curve" smooth="yes"/>
			<point x="1048.4931640625" y="1343.6392822266"/>
			<point x="1138.1597900391" y="1205.1186523438"/>
			<point x="1138.1597900391" y="994.9328613281" type="curve" smooth="yes"/>
			<point x="1138.1597900391" y="737.3171386719"/>
			<point x="975.1239624023" y="581.0236206055"/>
			<point x="650" y="527" type="curve" smooth="yes"/>
			<point x="612" y="521"/>
			<point x="569" y="516"/>
			<point x="519" y="513" type="curve"/>
			<point x="1240" y="85" type="line" smooth="yes"/>
			<point x="1260.5234375" y="72.7733001709"/>
			<point x="1270.3687744141" y="51.39402771"/>
			<point x="1270.3687744141" y="30.0211315155" type="curve" smooth="yes"/>
			<point x="1270.3687744141" y="-10.5760526657"/>
			<point x="1222.8856201172" y="-56.3313369751"/>
			<point x="1174" y="-27" type="curve" smooth="yes"/>
			<point x="253" y="519" type="line"/>
			<point x="251" y="520"/>
			<point x="249" y="522"/>
			<point x="246" y="524" type="curve"/>
			<point x="246.6332550049" y="448.9599304199"/>
			<point x="246.9657440186" y="380.8371887207"/>
			<point x="246.9657440186" y="319.7270202637" type="curve" smooth="yes"/>
			<point x="246.9657440186" y="187.8321685791"/>
			<point x="245.4168701172" y="88.604019165"/>
			<point x="242" y="23" type="curve" smooth="yes"/>
			<point x="239.9800720215" y="-11.338804245"/>
			<point x="208.0392913818" y="-37.9707221985"/>
		</contour>
		<contour>
			<point x="245" y="626" type="curve"/>
			<point x="258" y="636"/>
			<point x="271" y="640"/>
			<point x="287" y="640" type="curve" smooth="yes"/>
			<point x="312.2470397949" y="639.37109375"/>
			<point x="336.8078918457" y="639.0569458008"/>
			<point x="360.6804199219" y="639.0569458008" type="curve" smooth="yes"/>
			<point x="602.5097045898" y="639.0569458008"/>
			<point x="773.7034912109" y="671.2893066406"/>
			<point x="872" y="735" type="curve" smooth="yes"/>
			<point x="962.1513061523" y="793.162109375"/>
			<point x="1008.1378173828" y="881.3938598633"/>
			<point x="1008.1378173828" y="996.0516357422" type="curve" smooth="yes"/>
			<point x="1008.1378173828" y="1076.4083251953"/>
			<point x="992.0816650391" y="1140.3587646484"/>
			<point x="962" y="1186" type="curve" smooth="yes"/>
			<point x="895.4271240234" y="1286.2250976562"/>
			<point x="746.9694213867" y="1336.1419677734"/>
			<point x="517.018371582" y="1336.1419677734" type="curve" smooth="yes"/>
			<point x="432.6441040039" y="1336.1419677734"/>
			<point x="337.2982177734" y="1329.4215087891"/>
			<point x="231" y="1316" type="curve"/>
			<point x="237" y="1065" type="line" smooth="yes"/>
			<point x="241" y="900"/>
			<point x="243" y="754"/>
		</contour>
	</outline>
</glyph>
<glyph name="S" format="2">
	<unicode hex="0053"/>
	<advance width="1372"/>
	<outline>
		<contour>
			<point x="791.9886474609" y="634.751953125" type="curve" smooth="yes"/>
			<point x="733.3650512695" y="634.751953125"/>
			<point x="668.8870239258" y="628.6049804688"/>
			<point x="617.2311401367" y="628.6049804688" type="curve" smooth="yes"/>
			<point x="441.0032043457" y="628.6049804688"/>
			<point x="328.1974487305" y="664.7633056641"/>
			<point x="228" y="756" type="curve" smooth="yes"/>
			<point x="160.6807556152" y="817.1993408203"/>
			<point x="100.3840560913" y="914.6817626953"/>
			<point x="100.3840560913" y="1031.8830566406" type="curve" smooth="yes"/>
			<point x="100.3840560913" y="1067.8878173828"/>
			<point x="106.0745239258" y="1105.7535400391"/>
			<point x="119" y="1145" type="curve" smooth="yes"/>
			<point x="175.4457092285" y="1313.3468017578"/>
			<point x="346.6269836426" y="1414.0291748047"/>
			<point x="564.5661621094" y="1414.0291748047" type="curve" smooth="yes"/>
			<point x="849.6273803711" y="1414.0291748047"/>
			<point x="1075.6529541016" y="1306.3310546875"/>
			<point x="1228" y="1161" type="curve" smooth="yes"/>
			<point x="1241.5021972656" y="1148.1563720703"/>
			<point x="1247.5212402344" y="1131.7337646484"/>
			<point x="1247.5212402344" y="1115.4467773438" type="curve" smooth="yes"/>
			<point x="1247.5212402344" y="1082.2777099609"/>
			<point x="1222.5578613281" y="1049.6706542969"/>
			<point x="1185" y="1049" type="curve" smooth="yes"/>
			<point x="1167" y="1049"/>
			<point x="1151" y="1055"/>
			<point x="1138" y="1067" type="curve" smooth="yes"/>
			<point x="1009.5571289062" y="1190.3861083984"/>
			<point x="812.4628295898" y="1284.0491943359"/>
			<point x="571.8202514648" y="1284.0491943359" type="curve" smooth="yes"/>
			<point x="408.7633056641" y="1284.0491943359"/>
			<point x="282.328125" y="1224.984375"/>
			<point x="242" y="1104" type="curve" smooth="yes"/>
			<point x="233.7705841064" y="1078.8546142578"/>
			<point x="230.1396636963" y="1054.7020263672"/>
			<point x="230.1396636963" y="1031.7691650391" type="curve" smooth="yes"/>
			<point x="230.1396636963" y="954.3814086914"/>
			<point x="271.4870910645" y="890.8844604492"/>
			<point x="317" y="850" type="curve" smooth="yes"/>
			<point x="387.7680358887" y="786.6812133789"/>
			<point x="475.6095581055" y="758.5480957031"/>
			<point x="617.176574707" y="758.5480957031" type="curve" smooth="yes"/>
			<point x="666.5102539062" y="758.5480957031"/>
			<point x="731.8724365234" y="764.8522949219"/>
			<point x="789.1117553711" y="764.8522949219" type="curve" smooth="yes"/>
			<point x="910.7623901367" y="764.8522949219"/>
			<point x="1005.5227050781" y="747.5681762695"/>
			<point x="1072" y="713" type="curve" smooth="yes"/>
			<point x="1171.6760253906" y="661.8618164062"/>
			<point x="1273.6059570312" y="549.8721923828"/>
			<point x="1273.6059570312" y="410.8906860352" type="curve" smooth="yes"/>
			<point x="1273.6059570312" y="389.5240783691"/>
			<point x="1271.1967773438" y="367.5195007324"/>
			<point x="1266" y="345" type="curve" smooth="yes"/>
			<point x="1236" y="214"/>
			<point x="1154" y="118"/>
			<point x="1021" y="57" type="curve" smooth="yes"/>
			<point x="936.6600341797" y="18.0738735199"/>
			<point x="847.0588378906" y="-1.1225218773"/>
			<point x="752.7297363281" y="-1.1225218773" type="curve" smooth="yes"/>
			<point x="730.7411499023" y="-1.1225218773"/>
			<point x="708.4956665039" y="-0.0794294253"/>
			<point x="686" y="2" type="curve" smooth="yes"/>
			<point x="468" y="23"/>
			<point x="288" y="96"/>
			<point x="143" y="223" type="curve" smooth="yes"/>
			<point x="127.454246521" y="236.8184509277"/>
			<point x="120.9810256958" y="253.072479248"/>
			<point x="120.9810256958" y="268.9073486328" type="curve" smooth="yes"/>
			<point x="120.9810256958" y="303.9486083984"/>
			<point x="152.6804199219" y="336.9372253418"/>
			<point x="187.9112091064" y="336.9372253418" type="curve" smooth="yes"/>
			<point x="201.2786254883" y="336.9372253418"/>
			<point x="215.1544342041" y="332.188079834"/>
			<point x="228" y="321" type="curve" smooth="yes"/>
			<point x="352" y="213"/>
			<point x="509" y="149"/>
			<point x="699" y="131" type="curve" smooth="yes"/>
			<point x="716.2800292969" y="129.3800048828"/>
			<point x="733.3980102539" y="128.5700073242"/>
			<point x="750.3715209961" y="128.5700073242" type="curve" smooth="yes"/>
			<point x="827.6951904297" y="128.5700073242"/>
			<point x="902.0200195312" y="145.3800048828"/>
			<point x="975" y="179" type="curve" smooth="yes"/>
			<point x="1064" y="220"/>
			<point x="1118" y="283"/>
			<point x="1138" y="369" type="curve" smooth="yes"/>
			<point x="1141.2492675781" y="383.0366821289"/>
			<point x="1142.7585449219" y="396.6510620117"/>
			<point x="1142.7585449219" y="409.8014221191" type="curve" smooth="yes"/>
			<point x="1142.7585449219" y="497.8316345215"/>
			<point x="1075.1223144531" y="565.0687866211"/>
			<point x="1009" y="599" type="curve" smooth="yes"/>
			<point x="963.5255737305" y="622.6116943359"/>
			<point x="890.5196533203" y="634.751953125"/>
		</contour>
	</outline>
</glyph>
<glyph name="T" format="2">
	<unicode hex="0054"/>
	<advance width="1389"/>
	<outline>
		<contour>
			<point x="710" y="-26" type="curve" smooth="yes"/>
			<point x="675" y="-26"/>
			<point x="645" y="4"/>
			<point x="645" y="39" type="curve" smooth="yes"/>
			<point x="645" y="464.3333435059"/>
			<point x="645" y="889.6666870117"/>
			<point x="645" y="1315" type="curve"/>
			<point x="165" y="1317" type="line" smooth="yes"/>
			<point x="123.3757553101" y="1317"/>
			<point x="102.3744354248" y="1349.6949462891"/>
			<point x="102.3744354248" y="1382.2918701172" type="curve" smooth="yes"/>
			<point x="102.3744354248" y="1414.6943359375"/>
			<point x="123.1257476807" y="1447"/>
			<point x="165" y="1447" type="curve" smooth="yes"/>
			<point x="1225" y="1443" type="line" smooth="yes"/>
			<point x="1266.3757324219" y="1443"/>
			<point x="1287.1256103516" y="1410.6943359375"/>
			<point x="1287.1256103516" y="1378.2918701172" type="curve" smooth="yes"/>
			<point x="1287.1256103516" y="1345.6949462891"/>
			<point x="1266.1257324219" y="1313"/>
			<point x="1224" y="1313" type="curve" smooth="yes"/>
			<point x="1074" y="1314"/>
			<point x="925" y="1313"/>
			<point x="775" y="1314" type="curve"/>
			<point x="775" y="39" type="line" smooth="yes"/>
			<point x="775" y="4"/>
			<point x="745" y="-26"/>
		</contour>
	</outline>
</glyph>
<glyph name="V" format="2">
	<unicode hex="0056"/>
	<advance width="1246"/>
	<outline>
		<contour>
			<point x="101" y="1351" type="curve" smooth="yes"/>
			<point x="100.5442886353" y="1354.3557128906"/>
			<point x="100.3254241943" y="1357.6101074219"/>
			<point x="100.3254241943" y="1360.7598876953" type="curve" smooth="yes"/>
			<point x="100.3254241943" y="1400.1275634766"/>
			<point x="134.5150909424" y="1423.1434326172"/>
			<point x="167.7705535889" y="1423.1434326172" type="curve" smooth="yes"/>
			<point x="196.0791015625" y="1423.1434326172"/>
			<point x="223.710723877" y="1406.4656982422"/>
			<point x="229" y="1369" type="curve" smooth="yes"/>
			<point x="277" y="1029"/>
			<point x="330" y="748"/>
			<point x="387" y="526" type="curve" smooth="yes"/>
			<point x="444" y="304"/>
			<point x="499" y="179"/>
			<point x="552" y="150" type="curve" smooth="yes"/>
			<point x="562" y="145"/>
			<point x="572" y="146"/>
			<point x="581" y="155" type="curve" smooth="yes"/>
			<point x="703" y="273"/>
			<point x="849" y="675"/>
			<point x="1019" y="1359" type="curve" smooth="yes"/>
			<point x="1026.5364990234" y="1388.5662841797"/>
			<point x="1054.9105224609" y="1406.3695068359"/>
			<point x="1083.2740478516" y="1406.3695068359" type="curve" smooth="yes"/>
			<point x="1118.8795166016" y="1406.3695068359"/>
			<point x="1155.2418212891" y="1370.5278320312"/>
			<point x="1145" y="1327" type="curve" smooth="yes"/>
			<point x="981" y="670"/>
			<point x="838" y="264"/>
			<point x="713" y="108" type="curve" smooth="yes"/>
			<point x="666.9724121094" y="50.7003707886"/>
			<point x="615.6506958008" y="21.6361408234"/>
			<point x="558.2060546875" y="21.6361408234" type="curve" smooth="yes"/>
			<point x="429.3671875" y="21.6361408234"/>
			<point x="334.7813415527" y="179.9355773926"/>
			<point x="257" y="485" type="curve" smooth="yes"/>
			<point x="205" y="690"/>
			<point x="153" y="978"/>
		</contour>
	</outline>
</glyph>
<glyph name="W" format="2">
	<unicode hex="0057"/>
	<advance width="1840"/>
	<outline>
		<contour>
			<point x="99.9886016846" y="1360.1630859375" type="curve" smooth="yes"/>
			<point x="99.9886016846" y="1395.6696777344"/>
			<point x="131.8571929932" y="1426.0246582031"/>
			<point x="166.3042144775" y="1426.0246582031" type="curve" smooth="yes"/>
			<point x="198.9823303223" y="1426.0246582031"/>
			<point x="228.1622772217" y="1396.0789794922"/>
			<point x="230" y="1363" type="curve" smooth="yes"/>
			<point x="238" y="1096"/>
			<point x="254" y="869"/>
			<point x="279" y="682" type="curve" smooth="yes"/>
			<point x="322" y="362"/>
			<point x="383" y="173"/>
			<point x="463" y="117" type="curve" smooth="yes"/>
			<point x="486" y="100"/>
			<point x="495" y="105"/>
			<point x="518" y="123" type="curve" smooth="yes"/>
			<point x="556" y="153"/>
			<point x="594" y="207"/>
			<point x="634" y="282" type="curve" smooth="yes"/>
			<point x="674" y="357"/>
			<point x="709" y="451"/>
			<point x="742" y="562" type="curve" smooth="yes"/>
			<point x="815" y="810"/>
			<point x="855" y="1080"/>
			<point x="863" y="1372" type="curve" smooth="yes"/>
			<point x="863.996887207" y="1412.8726806641"/>
			<point x="895.5531005859" y="1432.8756103516"/>
			<point x="927.3280639648" y="1432.8756103516" type="curve" smooth="yes"/>
			<point x="959.3009643555" y="1432.8756103516"/>
			<point x="991.4953613281" y="1412.6226806641"/>
			<point x="993" y="1373" type="curve" smooth="yes"/>
			<point x="1012" y="912"/>
			<point x="1072" y="561"/>
			<point x="1174" y="319" type="curve" smooth="yes"/>
			<point x="1203" y="250"/>
			<point x="1232" y="197"/>
			<point x="1262" y="159" type="curve" smooth="yes"/>
			<point x="1292" y="121"/>
			<point x="1316" y="98"/>
			<point x="1335" y="92" type="curve" smooth="yes"/>
			<point x="1354" y="86"/>
			<point x="1370" y="83"/>
			<point x="1383" y="84" type="curve" smooth="yes"/>
			<point x="1409" y="86"/>
			<point x="1437" y="108"/>
			<point x="1467" y="152" type="curve" smooth="yes"/>
			<point x="1574.9840087891" y="307.7587890625"/>
			<point x="1612.2980957031" y="588.5820922852"/>
			<point x="1612.2980957031" y="881.227722168" type="curve" smooth="yes"/>
			<point x="1612.2980957031" y="1035.7456054688"/>
			<point x="1601.8953857422" y="1193.5595703125"/>
			<point x="1586" y="1338" type="curve" smooth="yes"/>
			<point x="1585.6970214844" y="1340.7944335938"/>
			<point x="1585.5504150391" y="1343.5118408203"/>
			<point x="1585.5504150391" y="1346.1510009766" type="curve" smooth="yes"/>
			<point x="1585.5504150391" y="1386.0808105469"/>
			<point x="1619.1058349609" y="1408.0946044922"/>
			<point x="1652.11328125" y="1408.0946044922" type="curve" smooth="yes"/>
			<point x="1681.7209472656" y="1408.0946044922"/>
			<point x="1710.8875732422" y="1390.3822021484"/>
			<point x="1715" y="1352" type="curve" smooth="yes"/>
			<point x="1731.3215332031" y="1202.1682128906"/>
			<point x="1741.5693359375" y="1042.5330810547"/>
			<point x="1741.5693359375" y="886.2777099609" type="curve" smooth="yes"/>
			<point x="1741.5693359375" y="563.8549194336"/>
			<point x="1697.9366455078" y="255.8222198486"/>
			<point x="1574" y="78" type="curve" smooth="yes"/>
			<point x="1531.4709472656" y="17.0149269104"/>
			<point x="1464.4736328125" y="-46.545753479"/>
			<point x="1373.5246582031" y="-46.545753479" type="curve" smooth="yes"/>
			<point x="1351.1324462891" y="-46.545753479"/>
			<point x="1327.2883300781" y="-42.6928520203"/>
			<point x="1302" y="-34" type="curve" smooth="yes"/>
			<point x="1251" y="-16"/>
			<point x="1205" y="18"/>
			<point x="1166" y="69" type="curve" smooth="yes"/>
			<point x="1127" y="120"/>
			<point x="1084" y="198"/>
			<point x="1039" y="305" type="curve" smooth="yes"/>
			<point x="994" y="412"/>
			<point x="955" y="560"/>
			<point x="923" y="749" type="curve"/>
			<point x="877" y="531"/>
			<point x="819" y="354"/>
			<point x="747" y="218" type="curve" smooth="yes"/>
			<point x="662.8993530273" y="57.8431167603"/>
			<point x="576.6594238281" y="-22.6264400482"/>
			<point x="488.2802734375" y="-22.6264400482" type="curve" smooth="yes"/>
			<point x="455.8089599609" y="-22.6264400482"/>
			<point x="423.0488586426" y="-11.7638921738"/>
			<point x="390" y="10" type="curve" smooth="yes"/>
			<point x="335" y="48"/>
			<point x="288" y="118"/>
			<point x="249" y="218" type="curve" smooth="yes"/>
			<point x="169.0399017334" y="424.1621704102"/>
			<point x="99.9886016846" y="818.9910888672"/>
		</contour>
	</outline>
</glyph>
<glyph name="X" format="2">
	<unicode hex="0058"/>
	<advance width="1421"/>
	<outline>
		<contour>
			<point x="1308" y="89" type="curve" smooth="yes"/>
			<point x="1317.9393310547" y="76.193611145"/>
			<point x="1322.1791992188" y="62.9488067627"/>
			<point x="1322.1791992188" y="50.3619537354" type="curve" smooth="yes"/>
			<point x="1322.1791992188" y="14.6038675308"/>
			<point x="1287.9599609375" y="-15.8440589905"/>
			<point x="1252.9853515625" y="-15.8440589905" type="curve" smooth="yes"/>
			<point x="1235.8623046875" y="-15.8440589905"/>
			<point x="1218.5582275391" y="-8.5459938049"/>
			<point x="1205" y="9" type="curve" smooth="yes"/>
			<point x="1043" y="219"/>
			<point x="881" y="430"/>
			<point x="719" y="640" type="curve"/>
			<point x="216" y="-11" type="line" smooth="yes"/>
			<point x="202.5204315186" y="-28.4441566467"/>
			<point x="185.4082641602" y="-35.6891403198"/>
			<point x="168.4670410156" y="-35.6891403198" type="curve" smooth="yes"/>
			<point x="133.4663085938" y="-35.6891403198"/>
			<point x="99.1951980591" y="-4.7646737099"/>
			<point x="99.1951980591" y="31.0326099396" type="curve" smooth="yes"/>
			<point x="99.1951980591" y="43.4644355774"/>
			<point x="103.3285064697" y="56.4839553833"/>
			<point x="113" y="69" type="curve" smooth="yes"/>
			<point x="636" y="746" type="line"/>
			<point x="478" y="950"/>
			<point x="322" y="1155"/>
			<point x="164" y="1359" type="curve" smooth="yes"/>
			<point x="154.0607147217" y="1371.8063964844"/>
			<point x="149.82081604" y="1385.0146484375"/>
			<point x="149.82081604" y="1397.5423583984" type="curve" smooth="yes"/>
			<point x="149.82081604" y="1433.0079345703"/>
			<point x="183.8007659912" y="1463.0196533203"/>
			<point x="218.6473236084" y="1463.0196533203" type="curve" smooth="yes"/>
			<point x="235.8899536133" y="1463.0196533203"/>
			<point x="253.3447570801" y="1455.6715087891"/>
			<point x="267" y="1438" type="curve" smooth="yes"/>
			<point x="418" y="1243"/>
			<point x="568" y="1048"/>
			<point x="719" y="853" type="curve"/>
			<point x="1155" y="1418" type="line" smooth="yes"/>
			<point x="1168.5758056641" y="1435.5686035156"/>
			<point x="1185.8361816406" y="1442.8629150391"/>
			<point x="1202.8956298828" y="1442.8629150391" type="curve" smooth="yes"/>
			<point x="1237.7700195312" y="1442.8629150391"/>
			<point x="1271.8048095703" y="1412.3795166016"/>
			<point x="1271.8048095703" y="1376.8731689453" type="curve" smooth="yes"/>
			<point x="1271.8048095703" y="1364.4996337891"/>
			<point x="1267.6715087891" y="1351.5159912109"/>
			<point x="1258" y="1339" type="curve" smooth="yes"/>
			<point x="801" y="746" type="line"/>
			<point x="970" y="527"/>
			<point x="1139" y="308"/>
		</contour>
	</outline>
</glyph>
<glyph name="Y" format="2">
	<unicode hex="0059"/>
	<advance width="1272"/>
	<outline>
		<contour>
			<point x="444.9489746094" y="-79.2558441162" type="curve" smooth="yes"/>
			<point x="409.2766418457" y="-79.2558441162"/>
			<point x="379.7441711426" y="-49.4957199097"/>
			<point x="379.7441711426" y="-13.9489765167" type="curve" smooth="yes"/>
			<point x="379.7441711426" y="-5.2917752266"/>
			<point x="381.6399536133" y="3.7954394817"/>
			<point x="386" y="13" type="curve" smooth="yes"/>
			<point x="483" y="225"/>
			<point x="581" y="438"/>
			<point x="678" y="650" type="curve"/>
			<point x="115" y="1334" type="line" smooth="yes"/>
			<point x="104.171661377" y="1347.0340576172"/>
			<point x="99.5759048462" y="1360.7518310547"/>
			<point x="99.5759048462" y="1373.8306884766" type="curve" smooth="yes"/>
			<point x="99.5759048462" y="1409.1274414062"/>
			<point x="133.0481109619" y="1439.7717285156"/>
			<point x="167.8196105957" y="1439.7717285156" type="curve" smooth="yes"/>
			<point x="184.4166259766" y="1439.7717285156"/>
			<point x="201.309677124" y="1432.7900390625"/>
			<point x="215" y="1416" type="curve" smooth="yes"/>
			<point x="738" y="782" type="line"/>
			<point x="841" y="1008"/>
			<point x="945" y="1233"/>
			<point x="1048" y="1459" type="curve" smooth="yes"/>
			<point x="1057.0932617188" y="1478.7021484375"/>
			<point x="1079.9678955078" y="1497.255859375"/>
			<point x="1107.0510253906" y="1497.255859375" type="curve" smooth="yes"/>
			<point x="1142.7233886719" y="1497.255859375"/>
			<point x="1172.255859375" y="1467.4957275391"/>
			<point x="1172.255859375" y="1431.9489746094" type="curve" smooth="yes"/>
			<point x="1172.255859375" y="1423.2917480469"/>
			<point x="1170.3601074219" y="1414.2045898438"/>
			<point x="1166" y="1405" type="curve" smooth="yes"/>
			<point x="504" y="-41" type="line" smooth="yes"/>
			<point x="494.9067077637" y="-60.7021446228"/>
			<point x="472.0320739746" y="-79.2558441162"/>
		</contour>
	</outline>
</glyph>
<glyph name="Z" format="2">
	<unicode hex="005A"/>
	<advance width="1473"/>
	<outline>
		<contour>
			<point x="739.2778320312" y="1455.5086669922" type="curve" smooth="yes"/>
			<point x="1017.1254882812" y="1455.5086669922"/>
			<point x="1185.5729980469" y="1385.3813476562"/>
			<point x="1185.5729980469" y="1207.8896484375" type="curve" smooth="yes"/>
			<point x="1185.5729980469" y="1077.8482666016"/>
			<point x="1088.3006591797" y="917.4703979492"/>
			<point x="892" y="725" type="curve" smooth="yes"/>
			<point x="801" y="636"/>
			<point x="683" y="528"/>
			<point x="539" y="403" type="curve" smooth="yes"/>
			<point x="395" y="278"/>
			<point x="303" y="193"/>
			<point x="262" y="148" type="curve"/>
			<point x="644.5" y="137.7727203369"/>
			<point x="920.5433959961" y="132.6590881348"/>
			<point x="1090.4471435547" y="132.6590881348" type="curve" smooth="yes"/>
			<point x="1169.7355957031" y="132.6590881348"/>
			<point x="1225.9090576172" y="133.7727203369"/>
			<point x="1259" y="136" type="curve"/>
			<point x="1272.5682373047" y="145.950012207"/>
			<point x="1285.7272949219" y="150.786239624"/>
			<point x="1298.7547607422" y="150.786239624" type="curve" smooth="yes"/>
			<point x="1331.6574707031" y="150.786239624"/>
			<point x="1373.4239501953" y="111.7391967773"/>
			<point x="1373.4239501953" y="81.5250473022" type="curve" smooth="yes"/>
			<point x="1373.4239501953" y="71.8199462891"/>
			<point x="1370.2825927734" y="61.9782600403"/>
			<point x="1364" y="52" type="curve" smooth="yes"/>
			<point x="1338" y="12"/>
			<point x="1327" y="15"/>
			<point x="1287" y="7" type="curve" smooth="yes"/>
			<point x="1270.2142333984" y="3.4285714626"/>
			<point x="1213.7602539062" y="1.6428571939"/>
			<point x="1117.7288818359" y="1.6428571939" type="curve" smooth="yes"/>
			<point x="944.8724365234" y="1.6428571939"/>
			<point x="643.7857055664" y="7.4285712242"/>
			<point x="215" y="19" type="curve" smooth="yes"/>
			<point x="166" y="20"/>
			<point x="132" y="39"/>
			<point x="111" y="75" type="curve" smooth="yes"/>
			<point x="103.8478088379" y="87.2609024048"/>
			<point x="100.2914657593" y="100.2177734375"/>
			<point x="100.2914657593" y="113.9891281128" type="curve" smooth="yes"/>
			<point x="100.2914657593" y="140.6527252197"/>
			<point x="113.6232223511" y="170.3696136475"/>
			<point x="140" y="204" type="curve" smooth="yes"/>
			<point x="180" y="255"/>
			<point x="278" y="348"/>
			<point x="434" y="483" type="curve" smooth="yes"/>
			<point x="590" y="618"/>
			<point x="709" y="727"/>
			<point x="792" y="809" type="curve" smooth="yes"/>
			<point x="875" y="891"/>
			<point x="942" y="969"/>
			<point x="989" y="1044" type="curve" smooth="yes"/>
			<point x="1031.9671630859" y="1111.8074951172"/>
			<point x="1053.2994384766" y="1166.5439453125"/>
			<point x="1053.2994384766" y="1207.6042480469" type="curve" smooth="yes"/>
			<point x="1053.2994384766" y="1227.7036132812"/>
			<point x="1048.1877441406" y="1244.5258789062"/>
			<point x="1038" y="1258" type="curve" smooth="yes"/>
			<point x="996.6484375" y="1313.1353759766"/>
			<point x="856.3740844727" y="1327.0529785156"/>
			<point x="712.1129150391" y="1327.0529785156" type="curve" smooth="yes"/>
			<point x="554.1867675781" y="1327.0529785156"/>
			<point x="390.2695007324" y="1310.2648925781"/>
			<point x="250.2603912354" y="1310.2648925781" type="curve" smooth="yes"/>
			<point x="230.8385314941" y="1310.2648925781"/>
			<point x="212.7422027588" y="1310.5147705078"/>
			<point x="196" y="1311" type="curve" smooth="yes"/>
			<point x="155.1211700439" y="1311.9849853516"/>
			<point x="134.8609619141" y="1344.0192871094"/>
			<point x="134.8609619141" y="1376.0404052734" type="curve" smooth="yes"/>
			<point x="134.8609619141" y="1408.5383300781"/>
			<point x="155.7291259766" y="1441.0228271484"/>
			<point x="197.0907897949" y="1441.0228271484" type="curve" smooth="yes"/>
			<point x="207.8542022705" y="1441.0228271484"/>
			<point x="218.8242340088" y="1440.7054443359"/>
			<point x="230.6209259033" y="1440.7054443359" type="curve" smooth="yes"/>
			<point x="369.9663391113" y="1440.7054443359"/>
			<point x="587.8554077148" y="1455.5086669922"/>
		</contour>
	</outline>
</glyph>
<glyph name="bracketleft" format="2">
	<unicode hex="005B"/>
	<advance width="868"/>
	<outline>
		<contour>
			<point x="704" y="15" type="line" smooth="yes"/>
			<point x="740" y="15"/>
			<point x="769" y="-14"/>
			<point x="769" y="-50" type="curve" smooth="yes"/>
			<point x="769" y="-86"/>
			<point x="739" y="-115"/>
			<point x="704" y="-115" type="curve" smooth="yes"/>
			<point x="177" y="-125" type="line"/>
			<point x="175" y="-125" type="line" smooth="yes"/>
			<point x="140" y="-125"/>
			<point x="110" y="-95"/>
			<point x="110" y="-60" type="curve" smooth="yes"/>
			<point x="100" y="1358" type="line"/>
			<point x="100" y="1359" type="line" smooth="yes"/>
			<point x="100" y="1396"/>
			<point x="128" y="1423"/>
			<point x="164" y="1424" type="curve" smooth="yes"/>
			<point x="693" y="1434" type="line"/>
			<point x="695" y="1434" type="line" smooth="yes"/>
			<point x="731" y="1434"/>
			<point x="760" y="1405"/>
			<point x="760" y="1369" type="curve" smooth="yes"/>
			<point x="760" y="1334"/>
			<point x="731" y="1304"/>
			<point x="696" y="1304" type="curve" smooth="yes"/>
			<point x="230" y="1295" type="line"/>
			<point x="240" y="7" type="line"/>
			<point x="702" y="15" type="line"/>
		</contour>
	</outline>
</glyph>
<glyph name="backslash" format="2">
	<unicode hex="005C"/>
	<advance width="959"/>
	<outline>
		<contour>
			<point x="106" y="1423" type="line" smooth="yes"/>
			<point x="101.6770095825" y="1433.1281738281"/>
			<point x="99.7491607666" y="1442.6918945312"/>
			<point x="99.7491607666" y="1451.5366210938" type="curve" smooth="yes"/>
			<point x="99.7491607666" y="1488.9417724609"/>
			<point x="134.2291564941" y="1513.4879150391"/>
			<point x="167.8428192139" y="1513.4879150391" type="curve" smooth="yes"/>
			<point x="190.631439209" y="1513.4879150391"/>
			<point x="213.0218811035" y="1502.2058105469"/>
			<point x="224" y="1476" type="curve" smooth="yes"/>
			<point x="854" y="-12" type="line" smooth="yes"/>
			<point x="857.7278442383" y="-20.8113117218"/>
			<point x="859.4458618164" y="-29.7374763489"/>
			<point x="859.4458618164" y="-38.3795318604" type="curve" smooth="yes"/>
			<point x="859.4458618164" y="-72.9153594971"/>
			<point x="832.009765625" y="-102.9140167236"/>
			<point x="795.7680664062" y="-102.9140167236" type="curve" smooth="yes"/>
			<point x="765.4588623047" y="-102.9140167236"/>
			<point x="743.364074707" y="-86.7413482666"/>
			<point x="734" y="-64" type="curve" smooth="yes"/>
		</contour>
	</outline>
</glyph>
<glyph name="bracketright" format="2">
	<unicode hex="005D"/>
	<advance width="868"/>
	<outline>
		<contour>
			<point x="165" y="15" type="line" smooth="yes"/>
			<point x="129" y="15"/>
			<point x="100" y="-14"/>
			<point x="100" y="-50" type="curve" smooth="yes"/>
			<point x="100" y="-86"/>
			<point x="130" y="-115"/>
			<point x="165" y="-115" type="curve" smooth="yes"/>
			<point x="692" y="-125" type="line"/>
			<point x="693" y="-125" type="line" smooth="yes"/>
			<point x="728" y="-125"/>
			<point x="758" y="-95"/>
			<point x="758" y="-60" type="curve" smooth="yes"/>
			<point x="768" y="1358" type="line"/>
			<point x="769" y="1359" type="line"/>
			<point x="769" y="1396"/>
			<point x="741" y="1423"/>
			<point x="705" y="1424" type="curve" smooth="yes"/>
			<point x="175" y="1434" type="line"/>
			<point x="173" y="1434" type="line" smooth="yes"/>
			<point x="137" y="1434"/>
			<point x="108" y="1405"/>
			<point x="108" y="1369" type="curve" smooth="yes"/>
			<point x="108" y="1334"/>
			<point x="138" y="1304"/>
			<point x="173" y="1304" type="curve" smooth="yes"/>
			<point x="638" y="1295" type="line"/>
			<point x="629" y="7" type="line"/>
			<point x="167" y="15" type="line"/>
		</contour>
	</outline>
</glyph>
<glyph name="asciicircum" format="2">
	<unicode hex="005E"/>
	<advance width="1142"/>
	<outline>
		<contour>
			<point x="104" y="293" type="curve" smooth="yes"/>
			<point x="100.3919830322" y="283.6416931152"/>
			<point x="98.7671432495" y="274.8427734375"/>
			<point x="98.7671432495" y="266.7049560547" type="curve" smooth="yes"/>
			<point x="98.7671432495" y="229.6247711182"/>
			<point x="132.5019989014" y="206.2708892822"/>
			<point x="166.071762085" y="206.2708892822" type="curve" smooth="yes"/>
			<point x="190.4770355225" y="206.2708892822"/>
			<point x="214.7950592041" y="218.614151001"/>
			<point x="226" y="247" type="curve" smooth="yes"/>
			<point x="260" y="336"/>
			<point x="305" y="455"/>
			<point x="361" y="604" type="curve" smooth="yes"/>
			<point x="449" y="839"/>
			<point x="509" y="986"/>
			<point x="539" y="1046" type="curve" smooth="yes"/>
			<point x="554" y="1077"/>
			<point x="568" y="1100"/>
			<point x="581" y="1115" type="curve"/>
			<point x="595" y="1098"/>
			<point x="611" y="1071"/>
			<point x="629" y="1033" type="curve" smooth="yes"/>
			<point x="660" y="966"/>
			<point x="724" y="793"/>
			<point x="816" y="529" type="curve" smooth="yes"/>
			<point x="858" y="409"/>
			<point x="892" y="314"/>
			<point x="916" y="245" type="curve" smooth="yes"/>
			<point x="925.2405395508" y="218.9091339111"/>
			<point x="951.9129638672" y="203.4547271729"/>
			<point x="978.5122070312" y="203.4547271729" type="curve" smooth="yes"/>
			<point x="1013.9143066406" y="203.4547271729"/>
			<point x="1054.9470214844" y="240.983505249"/>
			<point x="1038" y="289" type="curve" smooth="yes"/>
			<point x="1014" y="358"/>
			<point x="980" y="456"/>
			<point x="938" y="576" type="curve" smooth="yes"/>
			<point x="828" y="890"/>
			<point x="785" y="1014"/>
			<point x="723" y="1136" type="curve" smooth="yes"/>
			<point x="698.2286376953" y="1183.8912353516"/>
			<point x="653.0032958984" y="1254.2819824219"/>
			<point x="584.5090942383" y="1254.2819824219" type="curve" smooth="yes"/>
			<point x="570.051574707" y="1254.2819824219"/>
			<point x="554.5573730469" y="1251.1458740234"/>
			<point x="538" y="1244" type="curve" smooth="yes"/>
			<point x="479" y="1219"/>
			<point x="452" y="1162"/>
			<point x="423" y="1105" type="curve" smooth="yes"/>
			<point x="391" y="1041"/>
			<point x="330" y="889"/>
			<point x="240" y="650" type="curve" smooth="yes"/>
			<point x="184" y="501"/>
			<point x="138" y="382"/>
		</contour>
	</outline>
</glyph>
<glyph name="underscore" format="2">
	<unicode hex="005F"/>
	<advance width="783"/>
	<outline>
		<contour>
			<point x="147" y="-225" type="line" smooth="yes"/>
			<point x="111" y="-225"/>
			<point x="82" y="-196"/>
			<point x="82" y="-160" type="curve" smooth="yes"/>
			<point x="82" y="-124"/>
			<point x="111" y="-95"/>
			<point x="147" y="-95" type="curve" smooth="yes"/>
			<point x="628" y="-95" type="line" smooth="yes"/>
			<point x="664" y="-95"/>
			<point x="693" y="-124"/>
			<point x="693" y="-160" type="curve" smooth="yes"/>
			<point x="693" y="-196"/>
			<point x="664" y="-225"/>
			<point x="628" y="-225" type="curve" smooth="yes"/>
		</contour>
	</outline>
</glyph>
<glyph name="grave" format="2">
	<unicode hex="0060"/>
	<advance width="215"/>
	<outline>
		<contour>
			<point x="-0.8787509799" y="1367.7779541016" type="curve" smooth="yes"/>
			<point x="-0.8787509799" y="1406.5286865234"/>
			<point x="32.8551216125" y="1433.5042724609"/>
			<point x="65.3877182007" y="1433.5042724609" type="curve" smooth="yes"/>
			<point x="87.5100097656" y="1433.5042724609"/>
			<point x="109.6420288086" y="1422.75"/>
			<point x="122" y="1401" type="curve"/>
			<point x="195" y="1235" type="line"/>
			<point x="208.6273651123" y="1212.2877197266"/>
			<point x="215.3767700195" y="1193.6512451172"/>
			<point x="215.3767700195" y="1178.8334960938" type="curve" smooth="yes"/>
			<point x="215.3767700195" y="1155.6058349609"/>
			<point x="191.9236907959" y="1137.3299560547"/>
			<point x="168.4221954346" y="1137.3299560547" type="curve" smooth="yes"/>
			<point x="151.8224029541" y="1137.3299560547"/>
			<point x="137.5399932861" y="1148.2199707031"/>
			<point x="125" y="1170" type="curve"/>
			<point x="9" y="1335" type="line"/>
			<point x="2.3699479103" y="1345.7100830078"/>
			<point x="-0.8787509799" y="1356.6802978516"/>
		</contour>
	</outline>
</glyph>
<glyph name="a" format="2">
	<unicode hex="0061"/>
	<advance width="1095"/>
	<outline>
		<contour>
			<point x="985" y="695" type="curve"/>
			<point x="986.7857055664" y="687.8571166992"/>
			<point x="987.6785888672" y="680.0765380859"/>
			<point x="987.6785888672" y="671.6126098633" type="curve" smooth="yes"/>
			<point x="987.6785888672" y="656.3775634766"/>
			<point x="984.7857055664" y="638.9285888672"/>
			<point x="979" y="619" type="curve"/>
			<point x="968.9970703125" y="513.5526123047"/>
			<point x="964.0317993164" y="419.5702209473"/>
			<point x="964.0317993164" y="336.9080505371" type="curve" smooth="yes"/>
			<point x="964.0317993164" y="221.2388305664"/>
			<point x="973.7540283203" y="127.7350616455"/>
			<point x="993" y="56" type="curve" smooth="yes"/>
			<point x="994.7669067383" y="49.4944801331"/>
			<point x="995.5856323242" y="43.2921333313"/>
			<point x="995.5856323242" y="37.4287109375" type="curve" smooth="yes"/>
			<point x="995.5856323242" y="-0.4118904173"/>
			<point x="961.4866333008" y="-24.1364879608"/>
			<point x="928.1024169922" y="-24.1364879608" type="curve" smooth="yes"/>
			<point x="902.2518920898" y="-24.1364879608"/>
			<point x="876.8298950195" y="-9.9113712311"/>
			<point x="868" y="23" type="curve" smooth="yes"/>
			<point x="847" y="100"/>
			<point x="836" y="198"/>
			<point x="835" y="315" type="curve"/>
			<point x="771" y="212"/>
			<point x="703" y="132"/>
			<point x="631" y="74" type="curve" smooth="yes"/>
			<point x="587" y="39"/>
			<point x="542" y="19"/>
			<point x="495" y="14" type="curve"/>
			<point x="466.2737426758" y="5.5360159874"/>
			<point x="438.731628418" y="1.7427121401"/>
			<point x="412.6266784668" y="1.7427121401" type="curve" smooth="yes"/>
			<point x="336.9518127441" y="1.7427121401"/>
			<point x="273.3544616699" y="33.6196098328"/>
			<point x="228" y="76" type="curve" smooth="yes"/>
			<point x="147.1411895752" y="152.2382965088"/>
			<point x="100.3849487305" y="274.5332336426"/>
			<point x="100.3849487305" y="433.4873962402" type="curve" smooth="yes"/>
			<point x="100.3849487305" y="534.5841064453"/>
			<point x="123.7430038452" y="632.1155395508"/>
			<point x="171" y="725" type="curve" smooth="yes"/>
			<point x="240" y="861"/>
			<point x="346" y="952"/>
			<point x="487" y="997" type="curve" smooth="yes"/>
			<point x="541.3384399414" y="1014.9667358398"/>
			<point x="593.1804199219" y="1023.9080200195"/>
			<point x="642.5260620117" y="1023.9080200195" type="curve" smooth="yes"/>
			<point x="705.7869262695" y="1023.9080200195"/>
			<point x="764.9448852539" y="1009.212890625"/>
			<point x="820" y="980" type="curve" smooth="yes"/>
			<point x="918" y="928"/>
			<point x="972" y="833"/>
		</contour>
		<contour>
			<point x="855" y="686" type="curve"/>
			<point x="842.6056518555" y="813.8168945312"/>
			<point x="769.6032714844" y="894.2275390625"/>
			<point x="646.684387207" y="894.2275390625" type="curve" smooth="yes"/>
			<point x="610.9262084961" y="894.2275390625"/>
			<point x="570.9436645508" y="887.4225463867"/>
			<point x="527" y="873" type="curve" smooth="yes"/>
			<point x="420" y="839"/>
			<point x="342" y="774"/>
			<point x="292" y="676" type="curve" smooth="yes"/>
			<point x="250.3333282471" y="594.3333129883"/>
			<point x="229.5" y="512.6666870117"/>
			<point x="229.5" y="431" type="curve" smooth="yes"/>
			<point x="229.5" y="316.3638000488"/>
			<point x="263.8532104492" y="219.7877197266"/>
			<point x="312" y="175" type="curve" smooth="yes"/>
			<point x="342.0164489746" y="147.0777282715"/>
			<point x="375.9311218262" y="133.2866821289"/>
			<point x="413.7440795898" y="133.2866821289" type="curve" smooth="yes"/>
			<point x="439.5153808594" y="133.2866821289"/>
			<point x="461.1779785156" y="141.3798217773"/>
			<point x="490" y="144" type="curve" smooth="yes"/>
			<point x="501" y="145"/>
			<point x="523" y="158"/>
			<point x="557" y="185" type="curve" smooth="yes"/>
			<point x="657" y="264"/>
			<point x="789" y="460"/>
			<point x="851" y="645" type="curve"/>
			<point x="852" y="658"/>
			<point x="854" y="672"/>
		</contour>
	</outline>
</glyph>
<glyph name="b" format="2">
	<unicode hex="0062"/>
	<advance width="1199"/>
	<outline>
		<contour>
			<point x="99.0370407104" y="93.1744689941" type="curve" smooth="yes"/>
			<point x="99.0370407104" y="187.0219421387"/>
			<point x="120.0476989746" y="322.1470031738"/>
			<point x="120.0476989746" y="424.1180419922" type="curve" smooth="yes"/>
			<point x="120.0476989746" y="426.8043823242"/>
			<point x="120.0320892334" y="429.4330749512"/>
			<point x="120" y="432" type="curve" smooth="yes"/>
			<point x="120" y="474"/>
			<point x="122" y="502"/>
			<point x="127" y="516" type="curve"/>
			<point x="131" y="635"/>
			<point x="134" y="840"/>
			<point x="138" y="1132" type="curve" smooth="yes"/>
			<point x="141" y="1377" type="line" smooth="yes"/>
			<point x="141" y="1413"/>
			<point x="171" y="1441"/>
			<point x="207" y="1441" type="curve" smooth="yes"/>
			<point x="242" y="1441"/>
			<point x="271" y="1410"/>
			<point x="271" y="1375" type="curve"/>
			<point x="268" y="1131" type="line" smooth="yes"/>
			<point x="266" y="992"/>
			<point x="265" y="881"/>
			<point x="263" y="798" type="curve"/>
			<point x="398" y="934"/>
			<point x="530" y="1006"/>
			<point x="658" y="1014" type="curve" smooth="yes"/>
			<point x="667.6672363281" y="1014.6041870117"/>
			<point x="677.1862182617" y="1014.9060668945"/>
			<point x="686.5577392578" y="1014.9060668945" type="curve" smooth="yes"/>
			<point x="801.270324707" y="1014.9060668945"/>
			<point x="893.8909912109" y="969.6740112305"/>
			<point x="966" y="880" type="curve" smooth="yes"/>
			<point x="1049.1811523438" y="776.1668701172"/>
			<point x="1098.7952880859" y="632.1848144531"/>
			<point x="1098.7952880859" y="488.265411377" type="curve" smooth="yes"/>
			<point x="1098.7952880859" y="381.3070678711"/>
			<point x="1071.3924560547" y="274.3833312988"/>
			<point x="1010" y="184" type="curve" smooth="yes"/>
			<point x="921.6800537109" y="54.0580291748"/>
			<point x="785.801574707" y="-18.3332824707"/>
			<point x="602.9011230469" y="-18.3332824707" type="curve" smooth="yes"/>
			<point x="455.7113037109" y="-18.3332824707"/>
			<point x="335.4822998047" y="56.8134841919"/>
			<point x="244" y="208" type="curve"/>
			<point x="241" y="150"/>
			<point x="238" y="103"/>
			<point x="234" y="69" type="curve" smooth="yes"/>
			<point x="230.1221008301" y="33.3232955933"/>
			<point x="205.1908111572" y="1.2557430267"/>
			<point x="170.4028930664" y="1.2557430267" type="curve" smooth="yes"/>
			<point x="118.9815673828" y="1.2557430267"/>
			<point x="99.0370407104" y="43.5926475525"/>
		</contour>
		<contour>
			<point x="601.6723632812" y="111.8383636475" type="curve" smooth="yes"/>
			<point x="827.8341674805" y="111.8383636475"/>
			<point x="968.4383544922" y="267.2912902832"/>
			<point x="968.4383544922" y="493.6467895508" type="curve" smooth="yes"/>
			<point x="968.4383544922" y="687.9423217773"/>
			<point x="859.2562866211" y="885.3921508789"/>
			<point x="683.6280517578" y="885.3921508789" type="curve" smooth="yes"/>
			<point x="679.1287231445" y="885.3921508789"/>
			<point x="674.5858154297" y="885.2625732422"/>
			<point x="670" y="885" type="curve" smooth="yes"/>
			<point x="544" y="876"/>
			<point x="407" y="780"/>
			<point x="259" y="597" type="curve"/>
			<point x="258" y="566"/>
			<point x="258" y="535"/>
			<point x="257" y="506" type="curve"/>
			<point x="262" y="493"/>
			<point x="269" y="473"/>
			<point x="278" y="445" type="curve" smooth="yes"/>
			<point x="353.3405151367" y="222.8922424316"/>
			<point x="461.2313232422" y="111.8383636475"/>
		</contour>
	</outline>
</glyph>
<glyph name="c" format="2">
	<unicode hex="0063"/>
	<advance width="964"/>
	<outline>
		<contour>
			<point x="230.119934082" y="387.9246520996" type="curve" smooth="yes"/>
			<point x="230.119934082" y="224.1642150879"/>
			<point x="328.526763916" y="116.5055923462"/>
			<point x="506.4163513184" y="116.5055923462" type="curve" smooth="yes"/>
			<point x="583.1637573242" y="116.5055923462"/>
			<point x="673.1860961914" y="135.4231719971"/>
			<point x="777" y="173" type="curve" smooth="yes"/>
			<point x="784.5686035156" y="175.7654571533"/>
			<point x="792.2007446289" y="177.047958374"/>
			<point x="799.6374511719" y="177.047958374" type="curve" smooth="yes"/>
			<point x="834.2673339844" y="177.047958374"/>
			<point x="864.6588745117" y="149.2379150391"/>
			<point x="864.6588745117" y="113.8554763794" type="curve" smooth="yes"/>
			<point x="864.6588745117" y="83.0388565063"/>
			<point x="844.3646850586" y="59.2463569641"/>
			<point x="821" y="51" type="curve" smooth="yes"/>
			<point x="701.8071289062" y="7.5442605019"/>
			<point x="596.4882202148" y="-13.9443616867"/>
			<point x="505.0432434082" y="-13.9443616867" type="curve" smooth="yes"/>
			<point x="300.6662902832" y="-13.9443616867"/>
			<point x="166.9569396973" y="93.2620239258"/>
			<point x="122" y="244" type="curve" smooth="yes"/>
			<point x="107.5500030518" y="292.450012207"/>
			<point x="100.3249969482" y="341.4418640137"/>
			<point x="100.3249969482" y="391.1291503906" type="curve" smooth="yes"/>
			<point x="100.3249969482" y="458.3531188965"/>
			<point x="113.5500030518" y="526.8499755859"/>
			<point x="140" y="597" type="curve" smooth="yes"/>
			<point x="213.5539855957" y="792.0779418945"/>
			<point x="389.7715148926" y="977.7225952148"/>
			<point x="640.4064941406" y="977.7225952148" type="curve" smooth="yes"/>
			<point x="694.8265380859" y="977.7225952148"/>
			<point x="751.3150634766" y="968.8150634766"/>
			<point x="810" y="951" type="curve" smooth="yes"/>
			<point x="841.0508422852" y="941.684753418"/>
			<point x="854.3250732422" y="917.3045654297"/>
			<point x="854.3250732422" y="892.3605957031" type="curve" smooth="yes"/>
			<point x="854.3250732422" y="858.6614379883"/>
			<point x="830.0971069336" y="823.9332275391"/>
			<point x="792.7431640625" y="823.9332275391" type="curve" smooth="yes"/>
			<point x="786.5103759766" y="823.9332275391"/>
			<point x="779.912109375" y="824.9001464844"/>
			<point x="773" y="827" type="curve" smooth="yes"/>
			<point x="729.1182861328" y="840.2505493164"/>
			<point x="687.2503051758" y="846.3050537109"/>
			<point x="647.6507568359" y="846.3050537109" type="curve" smooth="yes"/>
			<point x="457.1345214844" y="846.3050537109"/>
			<point x="319.1261291504" y="706.1642456055"/>
			<point x="262" y="553" type="curve" smooth="yes"/>
			<point x="240.5252685547" y="495.8348388672"/>
			<point x="230.119934082" y="439.7674865723"/>
		</contour>
	</outline>
</glyph>
<glyph name="d" format="2">
	<unicode hex="0064"/>
	<advance width="1192"/>
	<outline>
		<contour>
			<point x="1078.7591552734" y="426.3378601074" type="curve" smooth="yes"/>
			<point x="1078.7591552734" y="440.1478271484"/>
			<point x="1079.25" y="453.6642456055"/>
			<point x="1079.25" y="466.7592468262" type="curve" smooth="yes"/>
			<point x="1079.25" y="497.638885498"/>
			<point x="1077.1666259766" y="518.3333129883"/>
			<point x="1073" y="530" type="curve"/>
			<point x="1072.2360839844" y="575.4539794922"/>
			<point x="1071.9097900391" y="633.4551391602"/>
			<point x="1071.9097900391" y="704.0592651367" type="curve" smooth="yes"/>
			<point x="1071.9097900391" y="818.2991943359"/>
			<point x="1072.7639160156" y="965.5340576172"/>
			<point x="1074" y="1146" type="curve" smooth="yes"/>
			<point x="1076" y="1391" type="line" smooth="yes"/>
			<point x="1076.5029296875" y="1433.25"/>
			<point x="1043.8648681641" y="1454.5021972656"/>
			<point x="1011.1696166992" y="1454.5021972656" type="curve" smooth="yes"/>
			<point x="978.8612670898" y="1454.5021972656"/>
			<point x="946.4970092773" y="1433.75"/>
			<point x="946" y="1392" type="curve" smooth="yes"/>
			<point x="944" y="1148" type="line" smooth="yes"/>
			<point x="943" y="1009"/>
			<point x="943" y="898"/>
			<point x="943" y="815" type="curve"/>
			<point x="810" y="954"/>
			<point x="679" y="1028"/>
			<point x="552" y="1038" type="curve" smooth="yes"/>
			<point x="539.596496582" y="1038.9766845703"/>
			<point x="527.4124145508" y="1039.466796875"/>
			<point x="515.4495849609" y="1039.466796875" type="curve" smooth="yes"/>
			<point x="404.9241027832" y="1039.466796875"/>
			<point x="313.2844543457" y="997.6241455078"/>
			<point x="242" y="911" type="curve" smooth="yes"/>
			<point x="155.3334655762" y="807.1188964844"/>
			<point x="101.4372177124" y="657.7822265625"/>
			<point x="101.4372177124" y="508.1703796387" type="curve" smooth="yes"/>
			<point x="101.4372177124" y="212.221572876"/>
			<point x="305.0753173828" y="5.2591462135"/>
			<point x="596.2651367188" y="5.2591462135" type="curve" smooth="yes"/>
			<point x="739.8516845703" y="5.2591462135"/>
			<point x="858.3780517578" y="78.5060958862"/>
			<point x="951" y="225" type="curve"/>
			<point x="953" y="167"/>
			<point x="956" y="120"/>
			<point x="959" y="86" type="curve" smooth="yes"/>
			<point x="962.1278076172" y="50.0301208496"/>
			<point x="986.6564331055" y="16.5060520172"/>
			<point x="1021.5889892578" y="16.5060520172" type="curve" smooth="yes"/>
			<point x="1075.2052001953" y="16.5060520172"/>
			<point x="1093.0321044922" y="60.3380699158"/>
			<point x="1093.0321044922" y="113.337677002" type="curve" smooth="yes"/>
			<point x="1093.0321044922" y="201.0726318359"/>
			<point x="1078.7591552734" y="326.8203735352"/>
		</contour>
		<contour>
			<point x="596.7562255859" y="134.5897369385" type="curve" smooth="yes"/>
			<point x="372.1307373047" y="134.5897369385"/>
			<point x="232.0763549805" y="289.4366149902"/>
			<point x="232.0763549805" y="514.1744384766" type="curve" smooth="yes"/>
			<point x="232.0763549805" y="709.6007080078"/>
			<point x="343.2196960449" y="909.6942138672"/>
			<point x="519.8591308594" y="909.6942138672" type="curve" smooth="yes"/>
			<point x="525.8317871094" y="909.6942138672"/>
			<point x="531.8793334961" y="909.4654541016"/>
			<point x="538" y="909" type="curve" smooth="yes"/>
			<point x="664" y="898"/>
			<point x="798" y="800"/>
			<point x="943" y="614" type="curve"/>
			<point x="943" y="523" type="line"/>
			<point x="938" y="510"/>
			<point x="931" y="490"/>
			<point x="921" y="462" type="curve" smooth="yes"/>
			<point x="841.8034057617" y="243.7265014648"/>
			<point x="734.623046875" y="134.5897369385"/>
		</contour>
	</outline>
</glyph>
<glyph name="e" format="2">
	<unicode hex="0065"/>
	<advance width="1156"/>
	<outline>
		<contour>
			<point x="242" y="339" type="curve"/>
			<point x="280.3650817871" y="200.4594421387"/>
			<point x="396.1689147949" y="116.9326324463"/>
			<point x="565.0419311523" y="116.9326324463" type="curve" smooth="yes"/>
			<point x="679.4436035156" y="116.9326324463"/>
			<point x="810.5922241211" y="154.2071228027"/>
			<point x="960" y="228" type="curve" smooth="yes"/>
			<point x="969.5627441406" y="232.7813568115"/>
			<point x="979.4912109375" y="234.9656677246"/>
			<point x="989.1558837891" y="234.9656677246" type="curve" smooth="yes"/>
			<point x="1023.1873168945" y="234.9656677246"/>
			<point x="1053.9475097656" y="207.8824615479"/>
			<point x="1053.9475097656" y="171.7365112305" type="curve" smooth="yes"/>
			<point x="1053.9475097656" y="142.9058380127"/>
			<point x="1038.2703857422" y="121.1352081299"/>
			<point x="1018" y="111" type="curve" smooth="yes"/>
			<point x="865.47265625" y="35.7203636169"/>
			<point x="704.2301025391" y="-13.4138355255"/>
			<point x="558.2141113281" y="-13.4138355255" type="curve" smooth="yes"/>
			<point x="407.4639587402" y="-13.4138355255"/>
			<point x="272.9436950684" y="38.9580841064"/>
			<point x="181" y="169" type="curve" smooth="yes"/>
			<point x="129.2398834229" y="242.1214294434"/>
			<point x="99.7550506592" y="321.9929504395"/>
			<point x="99.7550506592" y="425.2519836426" type="curve" smooth="yes"/>
			<point x="99.7550506592" y="447.6750183105"/>
			<point x="101.1454238892" y="471.2008972168"/>
			<point x="104" y="496" type="curve" smooth="yes"/>
			<point x="119" y="622"/>
			<point x="172" y="732"/>
			<point x="263" y="823" type="curve" smooth="yes"/>
			<point x="381" y="941"/>
			<point x="535" y="999"/>
			<point x="726" y="999" type="curve" smooth="yes"/>
			<point x="872" y="999"/>
			<point x="990" y="940"/>
			<point x="1037" y="836" type="curve" smooth="yes"/>
			<point x="1049.8000488281" y="807.200012207"/>
			<point x="1056.1999511719" y="777.1199951172"/>
			<point x="1056.1999511719" y="745.2479858398" type="curve" smooth="yes"/>
			<point x="1056.1999511719" y="635.9873657227"/>
			<point x="997.2608032227" y="555.5603637695"/>
			<point x="893" y="485" type="curve" smooth="yes"/>
			<point x="748" y="387"/>
			<point x="536" y="337"/>
			<point x="258" y="337" type="curve" smooth="yes"/>
			<point x="253" y="337"/>
			<point x="247" y="338"/>
		</contour>
		<contour>
			<point x="231" y="461" type="curve"/>
			<point x="240" y="465"/>
			<point x="249" y="467"/>
			<point x="258" y="467" type="curve" smooth="yes"/>
			<point x="510" y="467"/>
			<point x="697" y="509"/>
			<point x="821" y="593" type="curve" smooth="yes"/>
			<point x="889.8474731445" y="639.6044311523"/>
			<point x="926.7966308594" y="685.7614746094"/>
			<point x="926.7966308594" y="748.5523681641" type="curve" smooth="yes"/>
			<point x="926.7966308594" y="786.5289306641"/>
			<point x="908.7814941406" y="805.4675292969"/>
			<point x="882" y="826" type="curve" smooth="yes"/>
			<point x="844" y="855"/>
			<point x="793" y="869"/>
			<point x="727" y="869" type="curve" smooth="yes"/>
			<point x="461" y="869"/>
			<point x="250" y="712"/>
		</contour>
	</outline>
</glyph>
